SplineFontDB: 3.0
FontName: NovaSquare-Book
FullName: Nova Square Book
FamilyName: Nova Square
Weight: Book
Copyright: Copyright (c) 2020-2024 by Wojciech Kalinowski "wmk69" with Reserved Font Name "NovaSquare-Book".\nThis Font Software is licensed under the SIL Open Font License, Version 1.1.
Version: 3.1.0; 2021-05-23
ItalicAngle: 0
UnderlinePosition: -80
UnderlineWidth: 200
Ascent: 1638
Descent: 410
InvalidEm: 0
LayerCount: 2
Layer: 0 1 "Warstwa t+AUIA-a" 1
Layer: 1 1 "Plan pierwszy" 0
XUID: [1021 783 23647091 8360855]
StyleMap: 0x0040
FSType: 0
OS2Version: 3
OS2_WeightWidthSlopeOnly: 0
OS2_UseTypoMetrics: 1
CreationTime: 1260698820
ModificationTime: 1621762406
PfmFamily: 33
TTFWeight: 400
TTFWidth: 5
LineGap: 200
VLineGap: 0
Panose: 2 12 5 4 2 5 3 6 2 4
OS2TypoAscent: 2000
OS2TypoAOffset: 0
OS2TypoDescent: -500
OS2TypoDOffset: 0
OS2TypoLinegap: 200
OS2WinAscent: 2000
OS2WinAOffset: 0
OS2WinDescent: 500
OS2WinDOffset: 0
HheadAscent: 2000
HheadAOffset: 0
HheadDescent: -500
HheadDOffset: 0
OS2SubXSize: 1434
OS2SubYSize: 1331
OS2SubXOff: 0
OS2SubYOff: 287
OS2SupXSize: 1434
OS2SupYSize: 1331
OS2SupXOff: 0
OS2SupYOff: 977
OS2StrikeYSize: 102
OS2StrikeYPos: 512
OS2CapHeight: 1530
OS2XHeight: 1120
OS2Vendor: '    '
OS2CodePages: 20000093.00000000
OS2UnicodeRanges: 8000002f.4000204b.00000000.00000000
Lookup: 258 0 0 "'kern' Horizontal Kerning lookup 0" { "'kern' Horizontal Kerning lookup 0-1 subtable" [307,0,4] } ['kern' ('DFLT' <'dflt' > 'grek' <'dflt' > 'latn' <'dflt' > ) ]
MarkAttachClasses: 1
DEI: 91125
KernClass2: 65 55 "'kern' Horizontal Kerning lookup 0-1 subtable"
 134 A M N Agrave Aacute Acircumflex Atilde Adieresis Aring Ntilde Amacron Abreve Aogonek Nacute Ncommaaccent Ncaron Eng Aringacute uni1E40
 28 B germandbls uni1E02 uni1E9E
 47 C Ccedilla Cacute Ccircumflex Cdotaccent Ccaron
 122 D O Q Eth Ograve Oacute Ocircumflex Otilde Odieresis Oslash Dcaron Dcroat Omacron Obreve Ohungarumlaut Oslashacute uni1E0A

StartChar: .notdef
Encoding: 65536 -1 0
Width: 994
Flags: W
HStem: 0 68<260 734> 1442 68<260 734>
VStem: 150 110<68 1442> 734 110<68 1442>
LayerCount: 2
Fore
SplineSet
150 0 m 1,0,-1
 150 1510 l 1,1,-1
 844 1510 l 1,2,-1
 844 0 l 1,3,-1
 150 0 l 1,0,-1
260 68 m 1,4,-1
 734 68 l 1,5,-1
 734 1442 l 1,6,-1
 260 1442 l 1,7,-1
 260 68 l 1,4,-1
EndSplineSet
Validated: 1
EndChar

StartChar: exclam
Encoding: 33 33 4
Width: 600
GlyphClass: 2
Flags: W
HStem: -20 245<216.097 383.903> 1510 20G<347.778 400>
VStem: 180 240<17.1285 187.871> 200 200<490 1440>
LayerCount: 2
Fore
SplineSet
300 -20 m 128,-1,1
 250 -20 250 -20 215 16 c 128,-1,2
 180 52 180 52 180 102.5 c 128,-1,3
 180 153 180 153 215 189 c 128,-1,4
 250 225 250 225 300 225 c 128,-1,5
 350 225 350 225 385 189 c 128,-1,6
 420 153 420 153 420 102.5 c 128,-1,7
 420 52 420 52 385 16 c 128,-1,0
 350 -20 350 -20 300 -20 c 128,-1,1
390 1530 m 1,8,-1
 400 1530 l 1,9,-1
 400 490 l 1,10,-1
 210 400 l 1,11,-1
 200 400 l 1,12,-1
 200 1440 l 1,13,-1
 390 1530 l 1,8,-1
EndSplineSet
Validated: 1
EndChar

StartChar: quotedbl
Encoding: 34 34 5
Width: 453
GlyphClass: 2
Flags: W
HStem: 1140 440
VStem: 50 120<1192 1528> 283 120<1192 1528>
LayerCount: 2
Fore
SplineSet
393 1580 m 1,0,-1
 403 1580 l 1,1,-1
 403 1192 l 1,2,-1
 293 1140 l 1,3,-1
 283 1140 l 1,4,-1
 283 1528 l 1,5,-1
 393 1580 l 1,0,-1
160 1580 m 1,6,-1
 170 1580 l 1,7,-1
 170 1192 l 1,8,-1
 60 1140 l 1,9,-1
 50 1140 l 1,10,-1
 50 1528 l 1,11,-1
 160 1580 l 1,6,-1
EndSplineSet
Validated: 1
EndChar

StartChar: numbersign
Encoding: 35 35 6
Width: 1368
GlyphClass: 2
Flags: W
HStem: 520 120<202 448 568 800 920 1166> 872 120<202 448 568 800 920 1166>
VStem: 448 120<274 520 640 872 992 1238> 800 120<274 520 640 872 992 1238>
LayerCount: 2
Fore
SplineSet
558 1290 m 1,0,-1
 568 1290 l 1,1,-1
 568 992 l 1,2,-1
 800 992 l 1,3,-1
 800 1238 l 1,4,-1
 910 1290 l 1,5,-1
 920 1290 l 1,6,-1
 920 992 l 1,7,-1
 1218 992 l 1,8,-1
 1218 982 l 1,9,-1
 1166 872 l 1,10,-1
 920 872 l 1,11,-1
 920 640 l 1,12,-1
 1218 640 l 1,13,-1
 1218 630 l 1,14,-1
 1166 520 l 1,15,-1
 920 520 l 1,16,-1
 920 274 l 1,17,-1
 810 222 l 1,18,-1
 800 222 l 1,19,-1
 800 520 l 1,20,-1
 568 520 l 1,21,-1
 568 274 l 1,22,-1
 458 222 l 1,23,-1
 448 222 l 1,24,-1
 448 520 l 1,25,-1
 150 520 l 1,26,-1
 150 530 l 1,27,-1
 202 640 l 1,28,-1
 448 640 l 1,29,-1
 448 872 l 1,30,-1
 150 872 l 1,31,-1
 150 882 l 1,32,-1
 202 992 l 1,33,-1
 448 992 l 1,34,-1
 448 1238 l 1,35,-1
 558 1290 l 1,0,-1
800 872 m 1,36,-1
 568 872 l 1,37,-1
 568 640 l 1,38,-1
 800 640 l 1,39,-1
 800 872 l 1,36,-1
EndSplineSet
Validated: 1
EndChar

StartChar: dollar
Encoding: 36 36 7
Width: 1140
GlyphClass: 2
Flags: W
HStem: 0 180<291.055 516 616 828.945> 754 180<374.558 516 616 828.945> 1117 21G<767 819.353> 1340 170<374.558 516 616 735.442>
VStem: 60 200<209.853 358> 153 190<967.574 1311.95> 516 100<-78 0 180 754 934 1340 1510 1588> 767 190<1202 1314.16> 860 200<213.623 720.377>
LayerCount: 2
Fore
SplineSet
410 0 m 2,0,1
 60 0 60 0 60 358 c 1,2,-1
 250 448 l 1,3,-1
 260 448 l 1,4,-1
 260 320 l 2,5,6
 260 180 260 180 400 180 c 2,7,-1
 516 180 l 1,8,-1
 516 754 l 1,9,-1
 453 754 l 2,10,11
 153 754 153 754 153 1054 c 2,12,-1
 153 1210 l 2,13,14
 153 1510 153 1510 453 1510 c 2,15,-1
 516 1510 l 1,16,-1
 516 1588 l 1,17,-1
 606 1630 l 1,18,-1
 616 1630 l 1,19,-1
 616 1510 l 1,20,-1
 657 1510 l 2,21,22
 957 1510 957 1510 957 1202 c 1,23,-1
 777 1117 l 1,24,-1
 767 1117 l 1,25,-1
 767 1205 l 2,26,27
 767 1340 767 1340 627 1340 c 2,28,-1
 616 1340 l 1,29,-1
 616 934 l 1,30,-1
 710 934 l 2,31,32
 1060 934 1060 934 1060 584 c 2,33,-1
 1060 350 l 2,34,35
 1060 0 1060 0 710 0 c 2,36,-1
 616 0 l 1,37,-1
 616 -78 l 1,38,-1
 526 -120 l 1,39,-1
 516 -120 l 1,40,-1
 516 -0 l 1,41,-1
 410 0 l 2,0,1
516 934 m 1,42,-1
 516 1340 l 1,43,-1
 483 1340 l 2,44,45
 343 1340 343 1340 343 1200 c 2,46,-1
 343 1074 l 2,47,48
 343 934 343 934 483 934 c 2,49,-1
 516 934 l 1,42,-1
616 754 m 1,50,-1
 616 180 l 1,51,-1
 720 180 l 2,52,53
 860 180 860 180 860 320 c 2,54,-1
 860 614 l 2,55,56
 860 754 860 754 720 754 c 2,57,-1
 616 754 l 1,50,-1
EndSplineSet
Validated: 1
EndChar

StartChar: percent
Encoding: 37 37 8
Width: 1547
GlyphClass: 2
Flags: W
HStem: -20 21G<444.032 504.341> 0 131<941.751 1252.25> 479 131<941.751 1252.25> 900 131<294.751 605.249> 1379 131<294.751 605.249> 1510 20G<1042.67 1103.29>
VStem: 150 140<1033.04 1376.96> 610 140<1033.04 1376.96> 797 140<133.043 476.957> 1257 140<133.043 476.957>
DStem2: 358 42 495 -20 0.423185 0.906043<1.80173 1641.88>
LayerCount: 2
Fore
SplineSet
987 131 m 2,0,-1
 1207 131 l 2,1,2
 1257 131 1257 131 1257 181 c 2,3,-1
 1257 429 l 2,4,5
 1257 479 1257 479 1207 479 c 2,6,7
 987 479 l 2,8,9
 937 479 937 479 937 429 c 2,10,-1
 937 181 l 2,11,12
 937 131 937 131 987 131 c 2,0,-1
1201 0 m 2,13,-1
 993 0 l 2,14,15
 797 0 797 0 797 194 c 2,16,-1
 797 416 l 2,17,18
 797 610 797 610 993 610 c 2,19,-1
 1201 610 l 2,20,21
 1397 610 1397 610 1397 416 c 2,22,-1
 1397 194 l 2,23,24
 1397 0 1397 0 1201 0 c 2,13,-1
560 1379 m 2,25,-1
 340 1379 l 2,26,27
 290 1379 290 1379 290 1329 c 2,28,-1
 290 1081 l 2,29,30
 290 1031 290 1031 340 1031 c 2,31,-1
 560 1031 l 2,32,33
 610 1031 610 1031 610 1081 c 2,34,-1
 610 1329 l 2,35,36
 610 1379 610 1379 560 1379 c 2,25,-1
346 1510 m 2,37,-1
 554 1510 l 2,38,39
 750 1510 750 1510 750 1316 c 2,40,-1
 750 1094 l 2,41,42
 750 900 750 900 554 900 c 2,43,-1
 346 900 l 2,44,45
 150 900 150 900 150 1094 c 2,46,-1
 150 1316 l 2,47,48
 150 1510 150 1510 346 1510 c 2,37,-1
485 -20 m 1,49,-1
 358 42 l 1,50,-1
 1052 1530 l 1,51,-1
 1062 1530 l 1,52,-1
 1190 1468 l 1,53,-1
 495 -20 l 1,54,-1
 485 -20 l 1,49,-1
EndSplineSet
Validated: 1
EndChar

StartChar: ampersand
Encoding: 38 38 9
Width: 1624
GlyphClass: 2
Flags: W
HStem: -20 21G<1276.39 1345.22> 0 180<381.055 955.862> 746 180<457.188 662> 1340 170<462.253 829.835>
VStem: 150 200<213.623 718.509> 240 190<954.901 1313.15> 1247 209<619.175 827>
DStem2: 768 926 662 746 0.632311 -0.774715<72.4238 591.304 842.579 1064.84>
LayerCount: 2
Fore
SplineSet
1029 300 m 1,0,1
 662 746 l 1,2,-1
 490 746 l 2,3,4
 350 746 350 746 350 606 c 2,5,-1
 350 320 l 2,6,7
 350 180 350 180 490 180 c 2,8,-1
 843 180 l 2,9,10
 939 180 939 180 1029 300 c 1,0,1
833 0 m 2,11,-1
 500 0 l 2,12,13
 150 0 150 0 150 350 c 2,14,-1
 150 576 l 2,15,16
 150 824 150 824 326 884 c 1,17,18
 240 952 240 952 240 1096 c 2,19,-1
 240 1200 l 2,20,21
 240 1510 240 1510 590 1510 c 2,22,-1
 700 1510 l 2,23,24
 1031 1510 1031 1510 1049 1230 c 1,25,-1
 870 1145 l 1,26,-1
 860 1145 l 1,27,-1
 860 1200 l 2,28,29
 860 1340 860 1340 720 1340 c 2,30,-1
 570 1340 l 2,31,32
 430 1340 430 1340 430 1200 c 2,33,-1
 430 1066 l 2,34,35
 430 926 430 926 570 926 c 2,36,-1
 768 926 l 17,37,-1
 1142 468 l 1,38,39
 1232 639 1232 639 1247 827 c 1,40,-1
 1442 919 l 1,41,-1
 1456 914 l 1,42,43
 1456 607 1456 607 1270 311 c 1,44,-1
 1474 61 l 1,45,-1
 1303 -20 l 1,46,-1
 1293 -20 l 1,47,-1
 1151 151 l 1,48,49
 1034 0 1034 0 833 0 c 2,11,-1
EndSplineSet
Validated: 1
EndChar

StartChar: quotesingle
Encoding: 39 39 10
Width: 220
GlyphClass: 2
Flags: W
HStem: 1140 440
VStem: 50 120<1192 1528>
LayerCount: 2
Fore
SplineSet
160 1580 m 1,0,-1
 170 1580 l 1,1,-1
 170 1192 l 1,2,-1
 60 1140 l 1,3,-1
 50 1140 l 1,4,-1
 50 1528 l 1,5,-1
 160 1580 l 1,0,-1
EndSplineSet
Validated: 1
EndChar

StartChar: parenleft
Encoding: 40 40 11
Width: 756
GlyphClass: 2
Flags: W
HStem: -240 180<431.055 706> 1570 180<431.055 706>
VStem: 200 200<-26.377 1536.38>
LayerCount: 2
Fore
SplineSet
706 -240 m 1,0,-1
 550 -240 l 2,1,2
 200 -240 200 -240 200 110 c 2,3,-1
 200 1400 l 2,4,5
 200 1750 200 1750 550 1750 c 2,6,-1
 706 1750 l 1,7,-1
 706 1570 l 1,8,-1
 540 1570 l 2,9,10
 400 1570 400 1570 400 1430 c 2,11,-1
 400 80 l 2,12,13
 400 -60 400 -60 540 -60 c 2,14,-1
 706 -60 l 1,15,-1
 706 -240 l 1,0,-1
EndSplineSet
Validated: 1
EndChar

StartChar: parenright
Encoding: 41 41 12
Width: 756
GlyphClass: 2
Flags: W
HStem: -240 180<50 324.945> 1570 180<50 324.945>
VStem: 356 200<-26.377 1536.38>
LayerCount: 2
Fore
SplineSet
50 -240 m 1,0,-1
 50 -60 l 1,1,-1
 216 -60 l 2,2,3
 356 -60 356 -60 356 80 c 2,4,-1
 356 1430 l 2,5,6
 356 1570 356 1570 216 1570 c 2,7,-1
 50 1570 l 1,8,-1
 50 1750 l 1,9,-1
 206 1750 l 2,10,11
 556 1750 556 1750 556 1400 c 2,12,-1
 556 110 l 2,13,14
 556 -240 556 -240 206 -240 c 2,15,-1
 50 -240 l 1,0,-1
EndSplineSet
Validated: 1
EndChar

StartChar: asterisk
Encoding: 42 42 13
Width: 748
GlyphClass: 2
Flags: W
HStem: 900 680
VStem: 314 120<952 1136 1344 1528>
DStem2: 155 1436 50 1358 0.865681 -0.500596<0 183.698 391.704 575.402> 50 1122 155 1044 0.865681 0.500596<51.85 235.548 443.554 627.252>
LayerCount: 2
Fore
SplineSet
424 1580 m 1,0,-1
 434 1580 l 1,1,-1
 434 1344 l 1,2,-1
 593 1436 l 1,3,-1
 693 1367 l 1,4,-1
 698 1358 l 1,5,-1
 494 1240 l 1,6,-1
 698 1122 l 1,7,-1
 693 1113 l 1,8,-1
 593 1044 l 1,9,-1
 434 1136 l 1,10,-1
 434 952 l 1,11,-1
 324 900 l 1,12,-1
 314 900 l 1,13,-1
 314 1136 l 1,14,-1
 155 1044 l 1,15,-1
 55 1113 l 1,16,-1
 50 1122 l 1,17,-1
 254 1240 l 1,18,-1
 50 1358 l 1,19,-1
 55 1367 l 1,20,-1
 155 1436 l 1,21,-1
 314 1344 l 1,22,-1
 314 1528 l 1,23,-1
 424 1580 l 1,0,-1
EndSplineSet
Validated: 1
EndChar

StartChar: plus
Encoding: 43 43 14
Width: 1200
GlyphClass: 2
Flags: W
HStem: 680 150<216 525 675 984>
VStem: 525 150<371 680 830 1139>
LayerCount: 2
Fore
SplineSet
525 1139 m 1,0,-1
 665 1205 l 1,1,-1
 675 1205 l 1,2,-1
 675 830 l 1,3,-1
 1050 830 l 1,4,-1
 1050 820 l 1,5,-1
 984 680 l 1,6,-1
 675 680 l 1,7,-1
 675 371 l 1,8,-1
 535 305 l 1,9,-1
 525 305 l 1,10,-1
 525 680 l 1,11,-1
 150 680 l 1,12,-1
 150 690 l 1,13,-1
 216 830 l 1,14,-1
 525 830 l 1,15,-1
 525 1139 l 1,0,-1
EndSplineSet
Validated: 1
EndChar

StartChar: comma
Encoding: 44 44 15
Width: 389
GlyphClass: 2
Flags: W
HStem: -276 554
VStem: 184 155<-122.682 121.561>
LayerCount: 2
Fore
SplineSet
220 278 m 1,0,-1
 230 278 l 1,1,2
 339 171 339 171 339 34 c 0,3,4
 339 -163 339 -163 114 -276 c 1,5,-1
 107 -269 l 1,6,7
 184 -139 184 -139 184 -10 c 128,-1,8
 184 119 184 119 50 198 c 1,9,-1
 220 278 l 1,0,-1
EndSplineSet
Validated: 1
EndChar

StartChar: hyphen
Encoding: 45 45 16
Width: 1200
GlyphClass: 2
Flags: W
HStem: 680 150<216 984>
LayerCount: 2
Fore
SplineSet
216 830 m 5,0,-1
 1050 830 l 5,1,-1
 1050 820 l 5,2,-1
 984 680 l 5,3,-1
 150 680 l 5,4,-1
 150 690 l 5,5,-1
 216 830 l 5,0,-1
EndSplineSet
Validated: 1
EndChar

StartChar: period
Encoding: 46 46 17
Width: 340
GlyphClass: 2
Flags: W
HStem: -20 245<86.0974 253.903>
VStem: 50 240<17.1285 187.871>
LayerCount: 2
Fore
SplineSet
170 -20 m 128,-1,1
 120 -20 120 -20 85 16 c 128,-1,2
 50 52 50 52 50 102.5 c 128,-1,3
 50 153 50 153 85 189 c 128,-1,4
 120 225 120 225 170 225 c 128,-1,5
 220 225 220 225 255 189 c 128,-1,6
 290 153 290 153 290 102.5 c 128,-1,7
 290 52 290 52 255 16 c 128,-1,0
 220 -20 220 -20 170 -20 c 128,-1,1
EndSplineSet
Validated: 1
EndChar

StartChar: slash
Encoding: 47 47 18
Width: 1019
GlyphClass: 2
Flags: W
DStem2: 10 -138 147 -200 0.422724 0.906258<1.72523 2038.73>
LayerCount: 2
Fore
SplineSet
137 -200 m 1,0,-1
 10 -138 l 1,1,-1
 871 1710 l 1,2,-1
 881 1710 l 1,3,-1
 1009 1648 l 1,4,-1
 147 -200 l 1,5,-1
 137 -200 l 1,0,-1
EndSplineSet
Validated: 1
EndChar

StartChar: zero
Encoding: 48 48 19
Width: 1330
GlyphClass: 2
Flags: W
HStem: 0 180<391.055 938.945> 1330 180<391.055 938.945>
VStem: 160 200<213.623 1296.38> 970 200<213.623 1296.38>
LayerCount: 2
Fore
SplineSet
500 180 m 2,0,-1
 830 180 l 2,1,2
 970 180 970 180 970 320 c 2,3,-1
 970 1190 l 2,4,5
 970 1330 970 1330 830 1330 c 2,6,-1
 500 1330 l 2,7,8
 360 1330 360 1330 360 1190 c 2,9,-1
 360 320 l 2,10,11
 360 180 360 180 500 180 c 2,0,-1
510 0 m 2,12,13
 160 0 160 0 160 350 c 2,14,-1
 160 1160 l 2,15,16
 160 1510 160 1510 510 1510 c 2,17,-1
 820 1510 l 2,18,19
 1170 1510 1170 1510 1170 1160 c 2,20,-1
 1170 350 l 2,21,22
 1170 0 1170 0 820 0 c 2,23,-1
 510 0 l 2,12,13
EndSplineSet
Validated: 1
EndChar

StartChar: one
Encoding: 49 49 20
Width: 714
GlyphClass: 2
Flags: W
HStem: -20 21G<264 316.222> 1510 20G<412.068 464>
VStem: 264 200<70 1252>
LayerCount: 2
Fore
SplineSet
264 -20 m 1,0,-1
 264 1252 l 1,1,-1
 20 1138 l 1,2,-1
 20 1323 l 1,3,-1
 454 1530 l 1,4,-1
 464 1530 l 1,5,-1
 464 70 l 1,6,-1
 274 -20 l 1,7,-1
 264 -20 l 1,0,-1
EndSplineSet
Validated: 1
EndChar

StartChar: two
Encoding: 50 50 21
Width: 1233
GlyphClass: 2
Flags: W
HStem: 0 180<401 1023> 1330 180<340.934 847.945>
VStem: 109 200<1127 1296.38> 879 200<857.462 1296.38>
DStem2: 160 180 401 180 0.745444 0.666569<179.652 928.252>
LayerCount: 2
Fore
SplineSet
80 0 m 1,0,-1
 80 10 l 1,1,-1
 160 180 l 1,2,-1
 642 611 l 2,3,4
 879 823 879 823 879 1039 c 2,5,-1
 879 1190 l 2,6,7
 879 1330 879 1330 739 1330 c 2,8,-1
 449 1330 l 2,9,10
 309 1330 309 1330 309 1190 c 2,11,-1
 309 1127 l 1,12,-1
 119 1036 l 1,13,-1
 109 1036 l 1,14,-1
 109 1160 l 2,15,16
 109 1510 109 1510 489 1510 c 2,17,-1
 729 1510 l 2,18,19
 1079 1510 1079 1510 1079 1160 c 2,20,-1
 1079 1037 l 2,21,22
 1079 743 1079 743 825 532 c 2,23,-1
 401 180 l 1,24,-1
 1103 180 l 1,25,-1
 1103 170 l 1,26,-1
 1023 0 l 1,27,-1
 80 0 l 1,0,-1
EndSplineSet
Validated: 1
EndChar

StartChar: three
Encoding: 51 51 22
Width: 1223
GlyphClass: 2
Flags: W
HStem: 0 180<331.055 851.945> 771 180<696 851.945> 1330 180<293 707>
VStem: 100 200<209.853 358> 883 200<213.623 737.377>
DStem2: 436 821 696 951 0.496808 0.867861<241.992 576.376>
LayerCount: 2
Fore
SplineSet
450 0 m 2,0,1
 100 0 100 0 100 358 c 1,2,-1
 290 448 l 1,3,-1
 300 448 l 9,4,-1
 300 320 l 2,5,6
 300 180 300 180 440 180 c 2,7,-1
 743 180 l 2,8,9
 883 180 883 180 883 320 c 2,10,-1
 883 631 l 2,11,12
 883 771 883 771 743 771 c 2,13,-1
 476 771 l 17,14,-1
 436 821 l 1,15,-1
 707 1330 l 1,16,-1
 213 1330 l 1,17,-1
 213 1340 l 1,18,-1
 293 1510 l 1,19,-1
 1016 1510 l 1,20,-1
 696 951 l 1,21,-1
 733 951 l 2,22,23
 1083 951 1083 951 1083 601 c 2,24,-1
 1083 350 l 2,25,26
 1083 0 1083 0 733 0 c 2,27,-1
 450 0 l 2,0,1
EndSplineSet
Validated: 1
EndChar

StartChar: four
Encoding: 52 52 23
Width: 1232
GlyphClass: 2
Flags: W
HStem: -20 21G<782 834.222> 340 180<326 782 982 1052> 1510 20G<929.778 982>
VStem: 782 200<70 340 520 1166>
DStem2: 10 350 326 520 0.577976 0.816054<321.37 1112.1>
LayerCount: 2
Fore
SplineSet
326 520 m 1,0,-1
 782 520 l 1,1,-1
 782 1166 l 1,2,-1
 326 520 l 1,0,-1
782 -20 m 1,3,-1
 782 340 l 1,4,-1
 10 340 l 1,5,-1
 10 350 l 1,6,-1
 782 1440 l 1,7,-1
 972 1530 l 1,8,-1
 982 1530 l 1,9,-1
 982 520 l 1,10,-1
 1132 520 l 1,11,-1
 1132 510 l 1,12,-1
 1052 340 l 1,13,-1
 982 340 l 1,14,-1
 982 70 l 1,15,-1
 792 -20 l 1,16,-1
 782 -20 l 1,3,-1
EndSplineSet
Validated: 1
EndChar

StartChar: five
Encoding: 53 53 24
Width: 1223
GlyphClass: 2
Flags: W
HStem: 0 180<331.055 851.945> 771 180<388.24 851.945> 1330 180<486 946>
VStem: 100 200<209.853 358> 883 200<213.623 737.377>
DStem2: 166 808 384 927 0.231433 0.972851<166.222 581.887>
LayerCount: 2
Fore
SplineSet
450 0 m 2,0,1
 100 0 100 0 100 358 c 1,2,-1
 290 448 l 1,3,-1
 300 448 l 9,4,-1
 300 320 l 2,5,6
 300 180 300 180 440 180 c 2,7,-1
 743 180 l 2,8,9
 883 180 883 180 883 320 c 2,10,-1
 883 631 l 2,11,12
 883 771 883 771 743 771 c 2,13,-1
 500 771 l 2,14,15
 405 771 405 771 375 707 c 1,16,-1
 166 808 l 1,17,-1
 333 1510 l 1,18,-1
 1026 1510 l 1,19,-1
 1026 1500 l 1,20,-1
 946 1330 l 1,21,-1
 486 1330 l 1,22,-1
 384 927 l 1,23,24
 452 951 452 951 510 951 c 2,25,-1
 733 951 l 2,26,27
 1083 951 1083 951 1083 601 c 2,28,-1
 1083 350 l 2,29,30
 1083 0 1083 0 733 0 c 2,31,-1
 450 0 l 2,0,1
EndSplineSet
Validated: 1
EndChar

StartChar: six
Encoding: 54 54 25
Width: 1300
GlyphClass: 2
Flags: W
HStem: 0 180<391.055 918.945> 774 180<386.797 918.945> 1330 180<391.055 918.945>
VStem: 160 200<213.623 747.203 923 1296.38> 950 200<213.623 740.377 1152 1300.15>
LayerCount: 2
Fore
SplineSet
360 634 m 2,0,-1
 360 320 l 2,1,2
 360 180 360 180 500 180 c 2,3,-1
 810 180 l 2,4,5
 950 180 950 180 950 320 c 2,6,-1
 950 634 l 2,7,8
 950 774 950 774 810 774 c 2,9,-1
 500 774 l 2,10,11
 360 774 360 774 360 634 c 2,0,-1
510 0 m 2,12,13
 160 0 160 0 160 350 c 2,14,-1
 160 1160 l 2,15,16
 160 1510 160 1510 510 1510 c 2,17,-1
 800 1510 l 2,18,19
 1150 1510 1150 1510 1150 1152 c 1,20,-1
 960 1062 l 1,21,-1
 950 1062 l 1,22,-1
 950 1190 l 2,23,24
 950 1330 950 1330 810 1330 c 2,25,-1
 500 1330 l 2,26,27
 360 1330 360 1330 360 1190 c 2,28,-1
 360 923 l 1,29,30
 430 954 430 954 510 954 c 2,31,-1
 800 954 l 2,32,33
 1150 954 1150 954 1150 604 c 2,34,-1
 1150 350 l 2,35,36
 1150 0 1150 0 800 0 c 2,37,-1
 510 0 l 2,12,13
EndSplineSet
Validated: 1
EndChar

StartChar: seven
Encoding: 55 55 26
Width: 967
GlyphClass: 2
Flags: W
HStem: -20 21G<162 214.167> 1330 180<90 685>
DStem2: 162 -20 425 100 0.355218 0.934784<205.596 1447.74>
LayerCount: 2
Fore
SplineSet
162 -20 m 1,0,-1
 685 1330 l 1,1,-1
 10 1330 l 1,2,-1
 10 1340 l 1,3,-1
 90 1510 l 1,4,-1
 957 1510 l 1,5,-1
 957 1500 l 1,6,-1
 425 100 l 1,7,-1
 172 -20 l 1,8,-1
 162 -20 l 1,0,-1
EndSplineSet
Validated: 1
EndChar

StartChar: eight
Encoding: 56 56 27
Width: 1210
GlyphClass: 2
Flags: W
HStem: 0 180<341.055 868.945> 746 180<417.188 792.812> 1340 170<422.253 787.747>
VStem: 110 200<213.623 718.509> 200 190<954.901 1313.15> 820 190<954.901 1313.15> 900 200<213.623 718.509>
LayerCount: 2
Fore
SplineSet
450 180 m 2,0,1
 760 180 l 2,2,3
 900 180 900 180 900 320 c 2,4,-1
 900 606 l 2,5,6
 900 746 900 746 760 746 c 2,7,-1
 450 746 l 2,8,9
 310 746 310 746 310 606 c 2,10,-1
 310 320 l 2,11,12
 310 180 310 180 450 180 c 2,0,1
530 926 m 2,13,-1
 680 926 l 2,14,15
 820 926 820 926 820 1066 c 2,16,-1
 820 1200 l 2,17,18
 820 1340 820 1340 680 1340 c 2,19,-1
 530 1340 l 2,20,21
 390 1340 390 1340 390 1200 c 2,22,-1
 390 1066 l 2,23,24
 390 926 390 926 530 926 c 2,13,-1
750 0 m 2,25,-1
 460 0 l 2,26,27
 110 0 110 0 110 350 c 2,28,-1
 110 576 l 2,29,30
 110 824 110 824 286 884 c 1,31,32
 200 952 200 952 200 1096 c 2,33,-1
 200 1200 l 2,34,35
 200 1510 200 1510 550 1510 c 2,36,-1
 660 1510 l 2,37,38
 1010 1510 1010 1510 1010 1200 c 2,39,-1
 1010 1096 l 2,40,41
 1010 952 1010 952 924 884 c 1,42,43
 1100 824 1100 824 1100 576 c 2,44,-1
 1100 350 l 2,45,46
 1100 0 1100 0 750 0 c 2,25,-1
EndSplineSet
Validated: 1
EndChar

StartChar: nine
Encoding: 57 57 28
Width: 1300
GlyphClass: 2
Flags: W
HStem: 0 180<381.055 908.945> 556 180<381.055 913.203> 1330 180<381.055 908.945>
VStem: 150 200<209.853 358 769.623 1296.38> 940 200<213.623 587 762.797 1296.38>
LayerCount: 2
Fore
SplineSet
940 876 m 2,0,-1
 940 1190 l 2,1,2
 940 1330 940 1330 800 1330 c 2,3,-1
 490 1330 l 2,4,5
 350 1330 350 1330 350 1190 c 2,6,-1
 350 876 l 2,7,8
 350 736 350 736 490 736 c 2,9,-1
 800 736 l 2,10,11
 940 736 940 736 940 876 c 2,0,-1
500 0 m 2,12,13
 150 0 150 0 150 358 c 1,14,-1
 340 448 l 1,15,-1
 350 448 l 1,16,-1
 350 320 l 2,17,18
 350 180 350 180 490 180 c 2,19,-1
 800 180 l 2,20,21
 940 180 940 180 940 320 c 2,22,-1
 940 587 l 1,23,24
 870 556 870 556 790 556 c 2,25,-1
 500 556 l 2,26,27
 150 556 150 556 150 906 c 2,28,-1
 150 1160 l 2,29,30
 150 1510 150 1510 500 1510 c 2,31,-1
 790 1510 l 2,32,33
 1140 1510 1140 1510 1140 1160 c 2,34,-1
 1140 350 l 2,35,36
 1140 0 1140 0 790 0 c 2,37,-1
 500 0 l 2,12,13
EndSplineSet
Validated: 1
EndChar

StartChar: colon
Encoding: 58 58 29
Width: 340
GlyphClass: 2
Flags: W
HStem: -20 245<86.0974 253.903> 632 245<86.0974 253.903>
VStem: 50 240<17.1285 187.871 669.129 839.871>
LayerCount: 2
Fore
SplineSet
170 877 m 128,-1,1
 220 877 220 877 255 841 c 128,-1,2
 290 805 290 805 290 754.5 c 128,-1,3
 290 704 290 704 255 668 c 128,-1,4
 220 632 220 632 170 632 c 128,-1,5
 120 632 120 632 85 668 c 128,-1,6
 50 704 50 704 50 754.5 c 128,-1,7
 50 805 50 805 85 841 c 128,-1,0
 120 877 120 877 170 877 c 128,-1,1
170 -20 m 128,-1,9
 120 -20 120 -20 85 16 c 128,-1,10
 50 52 50 52 50 102.5 c 128,-1,11
 50 153 50 153 85 189 c 128,-1,12
 120 225 120 225 170 225 c 128,-1,13
 220 225 220 225 255 189 c 128,-1,14
 290 153 290 153 290 102.5 c 128,-1,15
 290 52 290 52 255 16 c 128,-1,8
 220 -20 220 -20 170 -20 c 128,-1,9
EndSplineSet
Validated: 1
EndChar

StartChar: semicolon
Encoding: 59 59 30
Width: 389
GlyphClass: 2
Flags: W
HStem: 632 245<106.097 273.903>
VStem: 70 240<669.129 839.871> 184 155<-122.682 121.561>
LayerCount: 2
Fore
SplineSet
190 877 m 128,-1,1
 240 877 240 877 275 841 c 128,-1,2
 310 805 310 805 310 754.5 c 128,-1,3
 310 704 310 704 275 668 c 128,-1,4
 240 632 240 632 190 632 c 128,-1,5
 140 632 140 632 105 668 c 128,-1,6
 70 704 70 704 70 754.5 c 128,-1,7
 70 805 70 805 105 841 c 128,-1,0
 140 877 140 877 190 877 c 128,-1,1
220 278 m 1,8,-1
 230 278 l 1,9,10
 339 171 339 171 339 34 c 0,11,12
 339 -163 339 -163 114 -276 c 1,13,-1
 107 -269 l 1,14,15
 184 -139 184 -139 184 -10 c 128,-1,16
 184 119 184 119 50 198 c 1,17,-1
 220 278 l 1,8,-1
EndSplineSet
Validated: 1
EndChar

StartChar: less
Encoding: 60 60 31
Width: 1315
GlyphClass: 2
Flags: W
DStem2: 392 750 150 680 0.942662 -0.33375<0 751.043> 216 830 392 750 0.937519 0.347934<137.169 893.848>
LayerCount: 2
Fore
SplineSet
1054 1141 m 1,0,-1
 1115 1014 l 1,1,-1
 1115 1004 l 1,2,-1
 392 750 l 1,3,-1
 1115 505 l 1,4,-1
 1115 495 l 1,5,-1
 1051 361 l 1,6,-1
 150 680 l 1,7,-1
 150 690 l 1,8,-1
 216 830 l 1,9,-1
 1054 1141 l 1,0,-1
EndSplineSet
Validated: 1
EndChar

StartChar: equal
Encoding: 61 61 32
Width: 1200
GlyphClass: 2
Flags: W
HStem: 480 150<216 984> 880 150<216 984>
LayerCount: 2
Fore
SplineSet
216 1030 m 1,0,-1
 1050 1030 l 1,1,-1
 1050 1020 l 1,2,-1
 984 880 l 1,3,-1
 150 880 l 1,4,-1
 150 890 l 1,5,-1
 216 1030 l 1,0,-1
216 630 m 1,6,-1
 1050 630 l 1,7,-1
 1050 620 l 1,8,-1
 984 480 l 1,9,-1
 150 480 l 1,10,-1
 150 490 l 1,11,-1
 216 630 l 1,6,-1
EndSplineSet
Validated: 1
EndChar

StartChar: greater
Encoding: 62 62 33
Width: 1315
GlyphClass: 2
Flags: W
DStem2: 264 1149 200 1005 0.942662 -0.33375<0 751.043> 200 506 261 369 0.937519 0.347934<9.52175 766.201>
LayerCount: 2
Fore
SplineSet
264 1149 m 1,0,-1
 1165 830 l 1,1,-1
 1165 820 l 1,2,-1
 1099 680 l 1,3,-1
 261 369 l 1,4,-1
 200 496 l 1,5,-1
 200 506 l 1,6,-1
 923 760 l 1,7,-1
 200 1005 l 1,8,-1
 200 1015 l 1,9,-1
 264 1149 l 1,0,-1
EndSplineSet
Validated: 1
EndChar

StartChar: question
Encoding: 63 63 34
Width: 1270
GlyphClass: 2
Flags: W
HStem: -20 245<511.097 678.903> 1330 180<381.934 888.945>
VStem: 150 200<1127 1296.38> 475 240<17.1285 187.871> 498 203<454 557.676> 920 200<896.695 1296.38>
LayerCount: 2
Fore
SplineSet
530 1510 m 2,0,1
 770 1510 l 2,2,3
 1120 1510 1120 1510 1120 1160 c 2,4,-1
 1120 1070 l 2,5,6
 1120 756 1120 756 791 591 c 0,7,8
 701 546 701 546 701 454 c 1,9,-1
 508 361 l 1,10,-1
 498 361 l 1,11,12
 498 638 498 638 708 743 c 0,13,14
 920 850 920 850 920 1072 c 2,15,-1
 920 1190 l 2,16,17
 920 1330 920 1330 780 1330 c 2,18,-1
 490 1330 l 2,19,20
 350 1330 350 1330 350 1190 c 2,21,-1
 350 1127 l 1,22,-1
 160 1036 l 1,23,-1
 150 1036 l 1,24,-1
 150 1160 l 2,25,26
 150 1510 150 1510 530 1510 c 2,0,1
595 -20 m 128,-1,28
 545 -20 545 -20 510 16 c 128,-1,29
 475 52 475 52 475 102.5 c 128,-1,30
 475 153 475 153 510 189 c 128,-1,31
 545 225 545 225 595 225 c 128,-1,32
 645 225 645 225 680 189 c 128,-1,33
 715 153 715 153 715 102.5 c 128,-1,34
 715 52 715 52 680 16 c 128,-1,27
 645 -20 645 -20 595 -20 c 128,-1,28
EndSplineSet
Validated: 1
EndChar

StartChar: at
Encoding: 64 64 35
Width: 1380
GlyphClass: 2
Flags: W
HStem: -410 160<393.623 685> 0 160<730.021 1010> 509 160<730.021 1017> 940 160<393.623 986.377>
VStem: 180 180<-221.243 911.243> 538 180<170.898 498.102> 1020 180<160 509 669 911.243>
LayerCount: 2
Fore
SplineSet
808 509 m 2,0,1
 718 509 718 509 718 419 c 2,2,-1
 718 250 l 2,3,4
 718 160 718 160 808 160 c 2,5,-1
 1020 160 l 1,6,-1
 1020 509 l 1,7,8
 808 509 l 2,0,1
1010 0 m 1,9,-1
 818 0 l 2,10,11
 538 0 538 0 538 280 c 2,12,-1
 538 389 l 2,13,14
 538 669 538 669 818 669 c 2,15,-1
 1017 669 l 1,16,-1
 1017 800 l 2,17,18
 1017 940 1017 940 877 940 c 2,19,-1
 500 940 l 2,20,21
 360 940 360 940 360 800 c 2,22,-1
 360 -110 l 2,23,24
 360 -250 360 -250 500 -250 c 2,25,-1
 756 -250 l 1,26,-1
 756 -260 l 1,27,-1
 685 -410 l 1,28,-1
 530 -410 l 2,29,30
 180 -410 180 -410 180 -60 c 2,31,-1
 180 750 l 2,32,33
 180 1100 180 1100 530 1100 c 2,34,-1
 850 1100 l 2,35,36
 1200 1100 1200 1100 1200 750 c 2,37,-1
 1200 90 l 1,38,-1
 1010 0 l 1,9,-1
EndSplineSet
Validated: 1
EndChar

StartChar: A
Encoding: 65 65 36
Width: 1370
GlyphClass: 2
Flags: W
HStem: -20 21G<180 232.222 990 1042.22> 665 180<380 990> 1330 180<411.055 958.945>
VStem: 180 200<70 665 845 1296.38> 990 200<70 665 845 1296.38>
LayerCount: 2
Fore
SplineSet
190 -20 m 1,0,-1
 180 -20 l 1,1,-1
 180 1160 l 2,2,3
 180 1510 180 1510 530 1510 c 2,4,-1
 840 1510 l 2,5,6
 1190 1510 1190 1510 1190 1160 c 2,7,-1
 1190 70 l 1,8,-1
 1000 -20 l 1,9,-1
 990 -20 l 1,10,-1
 990 665 l 1,11,-1
 380 665 l 1,12,-1
 380 70 l 1,13,-1
 190 -20 l 1,0,-1
380 845 m 1,14,-1
 990 845 l 1,15,-1
 990 1190 l 2,16,17
 990 1330 990 1330 850 1330 c 2,18,-1
 520 1330 l 2,19,20
 380 1330 380 1330 380 1190 c 2,21,-1
 380 845 l 1,14,-1
EndSplineSet
Validated: 1
EndChar

StartChar: B
Encoding: 66 66 37
Width: 1250
GlyphClass: 2
Flags: W
HStem: 0 180<400 938.945> 746 180<400 851.021> 1330 180<400 848.945>
VStem: 200 200<180 746 926 1330> 880 200<954.901 1297.4> 970 200<213.623 718.509>
LayerCount: 2
Fore
SplineSet
400 180 m 1,0,-1
 830 180 l 2,1,2
 970 180 970 180 970 320 c 2,3,-1
 970 606 l 2,4,5
 970 746 970 746 830 746 c 2,6,-1
 400 746 l 1,7,-1
 400 180 l 1,0,-1
200 0 m 1,8,-1
 200 1440 l 1,9,-1
 348 1510 l 1,10,-1
 730 1510 l 2,11,12
 1080 1510 1080 1510 1080 1200 c 2,13,-1
 1080 1096 l 2,14,15
 1080 952 1080 952 994 884 c 1,16,17
 1170 824 1170 824 1170 576 c 2,18,-1
 1170 350 l 2,19,20
 1170 0 1170 0 820 0 c 2,21,-1
 200 0 l 1,8,-1
400 926 m 1,22,-1
 740 926 l 2,23,24
 880 926 880 926 880 1066 c 2,25,-1
 880 1190 l 2,26,27
 880 1330 880 1330 740 1330 c 2,28,-1
 400 1330 l 1,29,-1
 400 926 l 1,22,-1
EndSplineSet
Validated: 1
EndChar

StartChar: C
Encoding: 67 67 38
Width: 1230
GlyphClass: 2
Flags: W
HStem: 0 180<391.055 918.945> 1330 180<391.055 918.945>
VStem: 160 200<213.623 1296.38> 950 200<213.623 383 1152 1300.15>
LayerCount: 2
Fore
SplineSet
510 0 m 2,0,1
 160 0 160 0 160 350 c 2,2,-1
 160 1160 l 2,3,4
 160 1510 160 1510 510 1510 c 2,5,-1
 800 1510 l 2,6,7
 1150 1510 1150 1510 1150 1152 c 1,8,-1
 960 1062 l 1,9,-1
 950 1062 l 9,10,-1
 950 1190 l 2,11,12
 950 1330 950 1330 810 1330 c 2,13,-1
 500 1330 l 2,14,15
 360 1330 360 1330 360 1190 c 2,16,-1
 360 320 l 2,17,18
 360 180 360 180 500 180 c 2,19,-1
 810 180 l 2,20,21
 950 180 950 180 950 320 c 2,22,-1
 950 383 l 1,23,-1
 1140 474 l 1,24,-1
 1150 474 l 1,25,-1
 1150 350 l 2,26,27
 1150 0 1150 0 800 0 c 2,28,-1
 510 0 l 2,0,1
EndSplineSet
Validated: 1
EndChar

StartChar: D
Encoding: 68 68 39
Width: 1350
GlyphClass: 2
Flags: W
HStem: 0 180<400 958.945> 1330 180<400 958.945>
VStem: 200 200<180 1330> 990 200<213.623 1296.38>
LayerCount: 2
Fore
SplineSet
400 180 m 1,0,-1
 850 180 l 2,1,2
 990 180 990 180 990 320 c 2,3,-1
 990 1190 l 2,4,5
 990 1330 990 1330 850 1330 c 2,6,-1
 400 1330 l 1,7,-1
 400 180 l 1,0,-1
200 0 m 1,8,-1
 200 1440 l 1,9,-1
 348 1510 l 1,10,-1
 840 1510 l 2,11,12
 1190 1510 1190 1510 1190 1160 c 2,13,-1
 1190 350 l 2,14,15
 1190 0 1190 0 840 0 c 2,16,-1
 200 0 l 1,8,-1
EndSplineSet
Validated: 1
EndChar

StartChar: E
Encoding: 69 69 40
Width: 1060
GlyphClass: 2
Flags: W
HStem: 0 180<400 930> 665 180<400 880> 1330 180<400 880>
VStem: 200 200<180 665 845 1330>
CounterMasks: 1 e0
LayerCount: 2
Fore
SplineSet
200 0 m 1,0,-1
 200 1440 l 1,1,-1
 348 1510 l 1,2,-1
 960 1510 l 1,3,-1
 960 1500 l 1,4,-1
 880 1330 l 1,5,-1
 400 1330 l 1,6,-1
 400 845 l 1,7,-1
 960 845 l 1,8,-1
 960 835 l 1,9,-1
 880 665 l 1,10,-1
 400 665 l 1,11,-1
 400 180 l 1,12,-1
 1010 180 l 1,13,-1
 1010 170 l 1,14,-1
 930 0 l 1,15,-1
 200 0 l 1,0,-1
EndSplineSet
Validated: 1
EndChar

StartChar: F
Encoding: 70 70 41
Width: 1010
GlyphClass: 2
Flags: W
HStem: -20 21G<200 252.222> 665 180<400 880> 1330 180<400 880>
VStem: 200 200<70 665 845 1330>
LayerCount: 2
Fore
SplineSet
200 -20 m 1,0,-1
 200 1440 l 1,1,-1
 348 1510 l 1,2,-1
 960 1510 l 1,3,-1
 960 1500 l 1,4,-1
 880 1330 l 1,5,-1
 400 1330 l 1,6,-1
 400 845 l 1,7,-1
 960 845 l 1,8,-1
 960 835 l 1,9,-1
 880 665 l 1,10,-1
 400 665 l 1,11,-1
 400 70 l 1,12,-1
 210 -20 l 1,13,-1
 200 -20 l 1,0,-1
EndSplineSet
Validated: 1
EndChar

StartChar: G
Encoding: 71 71 42
Width: 1310
GlyphClass: 2
Flags: W
HStem: 0 180<391.055 918.945> 665 180<702 950> 1330 180<391.055 918.945>
VStem: 160 200<213.623 1296.38> 950 200<213.623 665 1152 1300.15>
CounterMasks: 1 e0
LayerCount: 2
Fore
SplineSet
510 0 m 2,0,1
 160 0 160 0 160 350 c 2,2,-1
 160 1160 l 2,3,4
 160 1510 160 1510 510 1510 c 2,5,-1
 800 1510 l 2,6,7
 1150 1510 1150 1510 1150 1152 c 1,8,-1
 960 1062 l 1,9,-1
 950 1062 l 9,10,-1
 950 1190 l 2,11,12
 950 1330 950 1330 810 1330 c 2,13,-1
 500 1330 l 2,14,15
 360 1330 360 1330 360 1190 c 2,16,-1
 360 320 l 2,17,18
 360 180 360 180 500 180 c 2,19,-1
 810 180 l 2,20,21
 950 180 950 180 950 320 c 2,22,-1
 950 665 l 1,23,-1
 622 665 l 1,24,-1
 622 675 l 1,25,-1
 702 845 l 1,26,-1
 1150 845 l 1,27,-1
 1150 350 l 2,28,29
 1150 0 1150 0 800 0 c 2,30,-1
 510 0 l 2,0,1
EndSplineSet
Validated: 1
EndChar

StartChar: H
Encoding: 72 72 43
Width: 1400
GlyphClass: 2
Flags: W
HStem: -20 21G<200 252.222 1000 1052.22> 665 180<400 1000> 1510 20G<347.778 400 1147.78 1200>
VStem: 200 200<70 665 845 1440> 1000 200<70 665 845 1440>
LayerCount: 2
Fore
SplineSet
200 -20 m 1,0,-1
 200 1440 l 1,1,-1
 390 1530 l 1,2,-1
 400 1530 l 1,3,-1
 400 845 l 1,4,-1
 1000 845 l 1,5,-1
 1000 1440 l 1,6,-1
 1190 1530 l 1,7,-1
 1200 1530 l 1,8,-1
 1200 70 l 1,9,-1
 1010 -20 l 1,10,-1
 1000 -20 l 1,11,-1
 1000 665 l 1,12,-1
 400 665 l 1,13,-1
 400 70 l 1,14,-1
 210 -20 l 1,15,-1
 200 -20 l 1,0,-1
EndSplineSet
Validated: 1
EndChar

StartChar: I
Encoding: 73 73 44
Width: 600
GlyphClass: 2
Flags: W
HStem: -20 21G<200 252.222> 1510 20G<347.778 400>
VStem: 200 200<70 1440>
LayerCount: 2
Fore
SplineSet
200 -20 m 1,0,-1
 200 1440 l 1,1,-1
 390 1530 l 1,2,-1
 400 1530 l 1,3,-1
 400 70 l 1,4,-1
 210 -20 l 1,5,-1
 200 -20 l 1,0,-1
EndSplineSet
Validated: 1
EndChar

StartChar: J
Encoding: 74 74 45
Width: 1150
GlyphClass: 2
Flags: W
HStem: 0 180<261.055 758.945> 1330 180<205 790>
VStem: 30 200<209.853 358> 790 200<213.623 1330>
LayerCount: 2
Fore
SplineSet
380 0 m 2,0,1
 30 0 30 0 30 358 c 1,2,-1
 220 448 l 1,3,-1
 230 448 l 9,4,-1
 230 320 l 2,5,6
 230 180 230 180 370 180 c 2,7,-1
 650 180 l 2,8,9
 790 180 790 180 790 320 c 2,10,-1
 790 1330 l 1,11,-1
 125 1330 l 1,12,-1
 125 1340 l 1,13,-1
 205 1510 l 1,14,-1
 990 1510 l 1,15,-1
 990 350 l 2,16,17
 990 0 990 0 640 0 c 2,18,-1
 380 0 l 2,0,1
EndSplineSet
Validated: 1
EndChar

StartChar: K
Encoding: 75 75 46
Width: 1330
GlyphClass: 2
Flags: W
HStem: -20 21G<200 252.222 970 1022.22> 810 180<666 938.945> 1510 20G<347.778 400 980.023 1053.34>
VStem: 200 200<70 783.203 957 1440> 970 200<70 776.377>
LayerCount: 2
Fore
SplineSet
210 -20 m 1,0,-1
 200 -20 l 1,1,-1
 200 1440 l 1,2,-1
 390 1530 l 1,3,-1
 400 1530 l 1,4,-1
 400 957 l 1,5,-1
 1001 1530 l 1,6,-1
 1011 1530 l 1,7,-1
 1174 1453 l 1,8,-1
 666 990 l 1,9,-1
 820 990 l 2,10,11
 1170 990 1170 990 1170 640 c 2,12,-1
 1170 70 l 1,13,-1
 980 -20 l 1,14,-1
 970 -20 l 1,15,-1
 970 670 l 2,16,17
 970 810 970 810 830 810 c 2,18,-1
 540 810 l 2,19,20
 400 810 400 810 400 670 c 2,21,-1
 400 70 l 1,22,-1
 210 -20 l 1,0,-1
EndSplineSet
Validated: 1
EndChar

StartChar: L
Encoding: 76 76 47
Width: 1020
GlyphClass: 2
Flags: W
HStem: 0 180<400 930> 1510 20G<347.778 400>
VStem: 200 200<180 1440>
LayerCount: 2
Fore
SplineSet
200 0 m 1,0,-1
 200 1440 l 1,1,-1
 390 1530 l 1,2,-1
 400 1530 l 1,3,-1
 400 180 l 1,4,-1
 1010 180 l 1,5,-1
 1010 170 l 1,6,-1
 930 0 l 1,7,-1
 200 0 l 1,0,-1
EndSplineSet
Validated: 1
EndChar

StartChar: M
Encoding: 77 77 48
Width: 2180
GlyphClass: 2
Flags: W
HStem: -20 21G<180 232.222 990 1042.22 1800 1852.22> 1330 180<411.055 959.895 1220.11 1768.95>
VStem: 180 200<70 1296.38> 990 200<70 1303.2> 1800 200<70 1296.38>
CounterMasks: 1 38
LayerCount: 2
Fore
SplineSet
190 -20 m 1,0,-1
 180 -20 l 1,1,-1
 180 1160 l 2,2,3
 180 1510 180 1510 530 1510 c 2,4,-1
 840 1510 l 2,5,6
 1003 1510 1003 1510 1090 1434 c 1,7,8
 1177 1510 1177 1510 1340 1510 c 2,9,-1
 1650 1510 l 2,10,11
 2000 1510 2000 1510 2000 1160 c 2,12,-1
 2000 70 l 1,13,-1
 1810 -20 l 1,14,-1
 1800 -20 l 1,15,-1
 1800 1190 l 2,16,17
 1800 1330 1800 1330 1660 1330 c 2,18,-1
 1330 1330 l 2,19,20
 1190 1330 1190 1330 1190 1190 c 2,21,-1
 1190 70 l 1,22,-1
 1000 -20 l 1,23,-1
 990 -20 l 1,24,-1
 990 1190 l 2,25,26
 990 1330 990 1330 850 1330 c 2,27,-1
 520 1330 l 2,28,29
 380 1330 380 1330 380 1190 c 2,30,-1
 380 70 l 1,31,-1
 190 -20 l 1,0,-1
EndSplineSet
Validated: 1
EndChar

StartChar: N
Encoding: 78 78 49
Width: 1370
GlyphClass: 2
Flags: W
HStem: -20 21G<180 232.222 990 1042.22> 1330 180<411.055 958.945>
VStem: 180 200<70 1296.38> 990 200<70 1296.38>
LayerCount: 2
Fore
SplineSet
190 -20 m 1,0,-1
 180 -20 l 1,1,-1
 180 1160 l 2,2,3
 180 1510 180 1510 530 1510 c 2,4,-1
 840 1510 l 2,5,6
 1190 1510 1190 1510 1190 1160 c 2,7,-1
 1190 70 l 1,8,-1
 1000 -20 l 1,9,-1
 990 -20 l 1,10,-1
 990 1190 l 2,11,12
 990 1330 990 1330 850 1330 c 2,13,-1
 520 1330 l 2,14,15
 380 1330 380 1330 380 1190 c 2,16,-1
 380 70 l 1,17,-1
 190 -20 l 1,0,-1
EndSplineSet
Validated: 1
EndChar

StartChar: O
Encoding: 79 79 50
Width: 1330
GlyphClass: 2
Flags: W
HStem: 0 180<391.055 938.945> 1330 180<391.055 938.945>
VStem: 160 200<213.623 1296.38> 970 200<213.623 1296.38>
LayerCount: 2
Fore
SplineSet
500 180 m 2,0,-1
 830 180 l 2,1,2
 970 180 970 180 970 320 c 2,3,-1
 970 1190 l 2,4,5
 970 1330 970 1330 830 1330 c 2,6,-1
 500 1330 l 2,7,8
 360 1330 360 1330 360 1190 c 2,9,-1
 360 320 l 2,10,11
 360 180 360 180 500 180 c 2,0,-1
510 0 m 2,12,13
 160 0 160 0 160 350 c 2,14,-1
 160 1160 l 2,15,16
 160 1510 160 1510 510 1510 c 2,17,-1
 820 1510 l 2,18,19
 1170 1510 1170 1510 1170 1160 c 2,20,-1
 1170 350 l 2,21,22
 1170 0 1170 0 820 0 c 2,23,-1
 510 0 l 2,12,13
EndSplineSet
Validated: 1
EndChar

StartChar: P
Encoding: 80 80 51
Width: 1210
GlyphClass: 2
Flags: W
HStem: -20 21G<200 252.222> 500 180<400 898.945> 1330 180<400 898.945>
VStem: 200 200<70 500 680 1330> 930 200<713.623 1296.38>
LayerCount: 2
Fore
SplineSet
210 -20 m 1,0,-1
 200 -20 l 1,1,-1
 200 1440 l 1,2,-1
 348 1510 l 1,3,-1
 780 1510 l 2,4,5
 1130 1510 1130 1510 1130 1160 c 2,6,-1
 1130 850 l 2,7,8
 1130 500 1130 500 780 500 c 2,9,-1
 400 500 l 1,10,-1
 400 70 l 1,11,-1
 210 -20 l 1,0,-1
400 1330 m 1,12,-1
 400 680 l 1,13,-1
 790 680 l 2,14,15
 930 680 930 680 930 820 c 2,16,-1
 930 1190 l 2,17,18
 930 1330 930 1330 790 1330 c 2,19,-1
 400 1330 l 1,12,-1
EndSplineSet
Validated: 1
EndChar

StartChar: Q
Encoding: 81 81 52
Width: 1330
GlyphClass: 2
Flags: W
HStem: 0 180<391.055 757> 1330 180<391.055 938.945>
VStem: 160 200<213.623 1296.38> 970 200<248.793 1296.38>
DStem2: 750 540 564 457 0.572465 -0.819929<0 299.182 554.267 567.726>
LayerCount: 2
Fore
SplineSet
564 457 m 1,0,-1
 740 540 l 1,1,-1
 750 540 l 1,2,-1
 956 245 l 1,3,4
 970 275 970 275 970 320 c 2,5,-1
 970 1190 l 2,6,7
 970 1330 970 1330 830 1330 c 2,8,-1
 500 1330 l 2,9,10
 360 1330 360 1330 360 1190 c 2,11,-1
 360 320 l 2,12,13
 360 180 360 180 500 180 c 2,14,-1
 757 180 l 1,15,-1
 564 457 l 1,0,-1
510 0 m 2,16,17
 160 0 160 0 160 350 c 2,18,-1
 160 1160 l 2,19,20
 160 1510 160 1510 510 1510 c 2,21,-1
 820 1510 l 2,22,23
 1170 1510 1170 1510 1170 1160 c 2,24,-1
 1170 350 l 2,25,26
 1170 165 1170 165 1073 78 c 1,27,-1
 1097 43 l 1,28,-1
 921 -40 l 1,29,-1
 911 -40 l 1,30,-1
 881 3 l 1,31,32
 852 0 852 0 820 0 c 2,33,-1
 510 0 l 2,16,17
EndSplineSet
Validated: 1
EndChar

StartChar: R
Encoding: 82 82 53
Width: 1294
GlyphClass: 2
Flags: W
HStem: -20 21G<200 252.222 1003.85 1072.82> 500 180<400 650> 1330 180<400 898.945>
VStem: 200 200<70 500 680 1330> 930 200<712.481 1296.38>
DStem2: 889 510 650 500 0.577669 -0.816271<0 507.143>
LayerCount: 2
Fore
SplineSet
400 1330 m 1,0,-1
 400 680 l 1,1,-1
 790 680 l 2,2,3
 930 680 930 680 930 820 c 2,4,-1
 930 1190 l 2,5,6
 930 1330 930 1330 790 1330 c 2,7,-1
 400 1330 l 1,0,-1
210 -20 m 1,8,-1
 200 -20 l 1,9,-1
 200 1440 l 1,10,-1
 348 1510 l 1,11,-1
 780 1510 l 2,12,13
 1130 1510 1130 1510 1130 1160 c 2,14,-1
 1130 850 l 2,15,16
 1130 559 1130 559 889 510 c 1,17,-1
 1214 63 l 1,18,-1
 1028 -20 l 1,19,-1
 1018 -20 l 1,20,-1
 650 500 l 1,21,-1
 400 500 l 1,22,-1
 400 70 l 1,23,-1
 210 -20 l 1,8,-1
EndSplineSet
Validated: 1
EndChar

StartChar: T
Encoding: 84 84 54
Width: 1070
GlyphClass: 2
Flags: W
HStem: -20 21G<435 487.222> 1330 180<90 435 635 980>
VStem: 435 200<70 1330>
LayerCount: 2
Fore
SplineSet
435 -20 m 1,0,-1
 435 1330 l 1,1,-1
 10 1330 l 1,2,-1
 10 1340 l 1,3,-1
 90 1510 l 1,4,-1
 1060 1510 l 1,5,-1
 1060 1500 l 1,6,-1
 980 1330 l 1,7,-1
 635 1330 l 1,8,-1
 635 70 l 1,9,-1
 445 -20 l 1,10,-1
 435 -20 l 1,0,-1
EndSplineSet
Validated: 1
EndChar

StartChar: U
Encoding: 85 85 55
Width: 1370
GlyphClass: 2
Flags: W
HStem: 0 180<411.055 958.945> 1510 20G<327.778 380 1137.78 1190>
VStem: 180 200<213.623 1440> 990 200<213.623 1440>
LayerCount: 2
Fore
SplineSet
530 0 m 2,0,1
 180 0 180 0 180 350 c 2,2,-1
 180 1440 l 1,3,-1
 370 1530 l 1,4,-1
 380 1530 l 1,5,-1
 380 320 l 2,6,7
 380 180 380 180 520 180 c 2,8,-1
 850 180 l 2,9,10
 990 180 990 180 990 320 c 2,11,-1
 990 1440 l 1,12,-1
 1180 1530 l 1,13,-1
 1190 1530 l 1,14,-1
 1190 350 l 2,15,16
 1190 0 1190 0 840 0 c 2,17,-1
 530 0 l 2,0,1
EndSplineSet
Validated: 1
EndChar

StartChar: V
Encoding: 86 86 56
Width: 1230
GlyphClass: 2
Flags: W
HStem: -20 21G<518.902 578.133> 1510 20G<135.805 195.14 1050.59 1110.43>
DStem2: 188 1530 5 1448 0.334465 -0.942408<16.0704 1269.94> 615 334 694 55 0.354413 0.935089<0 1265.36>
LayerCount: 2
Fore
SplineSet
526 -20 m 1,0,-1
 5 1448 l 1,1,-1
 178 1530 l 1,2,-1
 188 1530 l 1,3,-1
 615 334 l 1,4,-1
 1058 1530 l 1,5,-1
 1068 1530 l 1,6,-1
 1225 1456 l 1,7,-1
 694 55 l 1,8,-1
 536 -20 l 1,9,-1
 526 -20 l 1,0,-1
EndSplineSet
Validated: 1
EndChar

StartChar: W
Encoding: 87 87 57
Width: 2180
GlyphClass: 2
Flags: W
HStem: 0 180<411.055 959.895 1220.11 1768.95> 1510 20G<327.778 380 1137.78 1190 1947.78 2000>
VStem: 180 200<213.623 1440> 990 200<206.797 1440> 1800 200<213.623 1440>
CounterMasks: 1 38
LayerCount: 2
Fore
SplineSet
530 0 m 2,0,1
 180 0 180 0 180 350 c 2,2,-1
 180 1440 l 1,3,-1
 370 1530 l 1,4,-1
 380 1530 l 1,5,-1
 380 320 l 2,6,7
 380 180 380 180 520 180 c 2,8,-1
 850 180 l 2,9,10
 990 180 990 180 990 320 c 2,11,-1
 990 1440 l 1,12,-1
 1180 1530 l 1,13,-1
 1190 1530 l 1,14,-1
 1190 320 l 2,15,16
 1190 180 1190 180 1330 180 c 2,17,-1
 1660 180 l 2,18,19
 1800 180 1800 180 1800 320 c 2,20,-1
 1800 1440 l 1,21,-1
 1990 1530 l 1,22,-1
 2000 1530 l 1,23,-1
 2000 350 l 2,24,25
 2000 0 2000 0 1650 0 c 2,26,-1
 1340 0 l 2,27,28
 1177 0 1177 0 1090 76 c 1,29,30
 1003 0 1003 0 840 0 c 2,31,-1
 530 0 l 2,0,1
EndSplineSet
Validated: 1
EndChar

StartChar: X
Encoding: 88 88 58
Width: 1156
GlyphClass: 2
Flags: W
HStem: -20 21G<141.647 206.529 934.636 999.4>
DStem2: 210 1523 40 1447 0.525197 -0.850981<0 710.742 988.866 1700.13> 40 48 194 -20 0.529637 0.848224<23.8848 737.793 1025.55 1738.93>
LayerCount: 2
Fore
SplineSet
194 -20 m 1,0,-1
 184 -20 l 1,1,-1
 40 48 l 1,2,-1
 475 744 l 1,3,-1
 40 1447 l 1,4,-1
 200 1523 l 1,5,-1
 210 1523 l 1,6,-1
 583 918 l 1,7,-1
 961 1523 l 1,8,-1
 971 1523 l 1,9,-1
 1116 1454 l 1,10,-1
 681 759 l 1,11,-1
 1116 55 l 1,12,-1
 957 -20 l 1,13,-1
 947 -20 l 1,14,-1
 573 585 l 1,15,-1
 194 -20 l 1,0,-1
EndSplineSet
Validated: 1
EndChar

StartChar: Y
Encoding: 89 89 59
Width: 1210
GlyphClass: 2
Flags: W
HStem: -20 21G<505 557.222> 450 180<351.055 505 705 858.945> 1510 20G<267.778 320 1037.78 1090>
VStem: 120 200<663.623 1440> 505 200<70 450> 890 200<663.623 1440>
CounterMasks: 1 1c
LayerCount: 2
Fore
SplineSet
515 -20 m 1,0,-1
 505 -20 l 1,1,-1
 505 450 l 1,2,-1
 470 450 l 2,3,4
 120 450 120 450 120 800 c 2,5,-1
 120 1440 l 1,6,-1
 310 1530 l 1,7,-1
 320 1530 l 1,8,-1
 320 770 l 2,9,10
 320 630 320 630 460 630 c 2,11,-1
 750 630 l 2,12,13
 890 630 890 630 890 770 c 2,14,-1
 890 1440 l 1,15,-1
 1080 1530 l 1,16,-1
 1090 1530 l 1,17,-1
 1090 800 l 2,18,19
 1090 450 1090 450 740 450 c 2,20,-1
 705 450 l 1,21,-1
 705 70 l 1,22,-1
 515 -20 l 1,0,-1
EndSplineSet
Validated: 1
EndChar

StartChar: Z
Encoding: 90 90 60
Width: 1040
GlyphClass: 2
Flags: W
HStem: 0 180<330 920> 1330 180<150 707>
DStem2: 40 10 330 180 0.45261 0.891709<282.847 1478.95>
LayerCount: 2
Fore
SplineSet
40 0 m 1,0,-1
 40 10 l 1,1,-1
 707 1330 l 1,2,-1
 70 1330 l 1,3,-1
 70 1340 l 1,4,-1
 150 1510 l 1,5,-1
 1000 1510 l 1,6,-1
 1000 1500 l 1,7,-1
 330 180 l 1,8,-1
 1000 180 l 1,9,-1
 1000 170 l 1,10,-1
 920 0 l 1,11,-1
 40 0 l 1,0,-1
EndSplineSet
Validated: 1
EndChar

StartChar: bracketleft
Encoding: 91 91 61
Width: 880
GlyphClass: 2
Flags: W
HStem: -240 180<400 750> 1570 180<400 750>
VStem: 200 200<-60 1570>
LayerCount: 2
Fore
SplineSet
200 -240 m 1,0,-1
 200 1660 l 1,1,-1
 390 1750 l 1,2,-1
 830 1750 l 1,3,-1
 830 1740 l 1,4,-1
 750 1570 l 1,5,-1
 400 1570 l 1,6,-1
 400 -60 l 1,7,-1
 830 -60 l 1,8,-1
 830 -70 l 1,9,-1
 750 -240 l 1,10,-1
 200 -240 l 1,0,-1
EndSplineSet
Validated: 1
EndChar

StartChar: backslash
Encoding: 92 92 62
Width: 1019
GlyphClass: 2
Flags: W
DStem2: 148 1710 10 1648 0.422724 -0.906258<0 2037.01>
LayerCount: 2
Fore
SplineSet
882 -200 m 1,0,-1
 872 -200 l 1,1,-1
 10 1648 l 1,2,-1
 138 1710 l 1,3,-1
 148 1710 l 1,4,-1
 1009 -138 l 1,5,-1
 882 -200 l 1,0,-1
EndSplineSet
Validated: 1
EndChar

StartChar: bracketright
Encoding: 93 93 63
Width: 880
GlyphClass: 2
Flags: W
HStem: -240 180<130 480> 1570 180<130 480>
VStem: 480 200<-60 1570>
LayerCount: 2
Fore
SplineSet
490 -240 m 1,0,-1
 50 -240 l 1,1,-1
 50 -230 l 1,2,-1
 130 -60 l 1,3,-1
 480 -60 l 1,4,-1
 480 1570 l 1,5,-1
 50 1570 l 1,6,-1
 50 1580 l 1,7,-1
 130 1750 l 1,8,-1
 680 1750 l 1,9,-1
 680 -150 l 1,10,-1
 490 -240 l 1,0,-1
EndSplineSet
Validated: 1
EndChar

StartChar: asciicircum
Encoding: 94 94 64
Width: 871
GlyphClass: 2
Flags: W
HStem: 1160 410
DStem2: 50 1231 208 1160 0.704339 0.709864<60.8853 362.041> 488 1570 430 1393 0.701818 -0.712356<85.3816 411.375>
LayerCount: 2
Fore
SplineSet
478 1570 m 1,0,-1
 488 1570 l 1,1,-1
 821 1232 l 1,2,-1
 668 1160 l 1,3,-1
 658 1160 l 1,4,-1
 430 1393 l 1,5,-1
 208 1160 l 1,6,-1
 198 1160 l 1,7,-1
 50 1231 l 1,8,-1
 305 1488 l 1,9,-1
 478 1570 l 1,0,-1
EndSplineSet
Validated: 1
EndChar

StartChar: underscore
Encoding: 95 95 65
Width: 1364
GlyphClass: 2
Flags: W
HStem: -410 120<202 1162>
LayerCount: 2
Fore
SplineSet
150 -410 m 1,0,-1
 150 -400 l 1,1,-1
 202 -290 l 1,2,-1
 1214 -290 l 1,3,-1
 1214 -300 l 1,4,-1
 1162 -410 l 1,5,-1
 150 -410 l 1,0,-1
EndSplineSet
Validated: 1
EndChar

StartChar: grave
Encoding: 96 96 66
Width: 377
GlyphClass: 2
Flags: W
HStem: 1160 367
VStem: 50 277
DStem2: 180 1527 50 1470 0.427336 -0.904093<0 339.921>
LayerCount: 2
Fore
SplineSet
170 1527 m 1,0,-1
 180 1527 l 1,1,-1
 327 1216 l 1,2,-1
 209 1160 l 1,3,-1
 199 1160 l 1,4,-1
 50 1470 l 1,5,-1
 170 1527 l 1,0,-1
EndSplineSet
Validated: 1
EndChar

StartChar: a
Encoding: 97 97 67
Width: 1064
GlyphClass: 2
Flags: W
HStem: -20 21G<704 755.975> 0 160<292.021 701.068> 580 160<292.021 700.117> 940 160<315 691.979>
VStem: 100 180<170.898 569.102> 704 180<166.35 573.65 719 929.102>
LayerCount: 2
Fore
SplineSet
380 0 m 2,0,1
 100 0 100 0 100 280 c 2,2,-1
 100 460 l 2,3,4
 100 740 100 740 380 740 c 2,5,-1
 604 740 l 2,6,7
 663 740 663 740 704 719 c 1,8,-1
 704 850 l 2,9,10
 704 940 704 940 614 940 c 2,11,-1
 244 940 l 1,12,-1
 244 950 l 1,13,-1
 315 1100 l 1,14,-1
 604 1100 l 2,15,16
 884 1100 884 1100 884 820 c 2,17,-1
 884 61 l 1,18,-1
 714 -20 l 1,19,-1
 704 -20 l 1,20,-1
 704 21 l 1,21,22
 659 0 659 0 604 0 c 2,23,-1
 380 0 l 2,0,1
370 160 m 2,24,-1
 619 160 l 2,25,26
 709 160 709 160 709 250 c 2,27,-1
 709 490 l 2,28,29
 709 580 709 580 619 580 c 2,30,-1
 370 580 l 2,31,32
 280 580 280 580 280 490 c 2,33,-1
 280 250 l 2,34,35
 280 160 280 160 370 160 c 2,24,-1
EndSplineSet
Validated: 1
EndChar

StartChar: b
Encoding: 98 98 68
Width: 1170
GlyphClass: 2
Flags: W
HStem: 0 160<372.021 817.979> 940 160<368.865 817.979> 1510 20G<308.025 360>
VStem: 180 180<170.898 932.068 1079 1449> 830 180<170.898 929.102>
LayerCount: 2
Fore
SplineSet
450 160 m 2,0,-1
 740 160 l 2,1,2
 830 160 830 160 830 250 c 2,3,-1
 830 850 l 2,4,5
 830 940 830 940 740 940 c 2,6,-1
 450 940 l 2,7,8
 360 940 360 940 360 850 c 2,9,-1
 360 250 l 2,10,11
 360 160 360 160 450 160 c 2,0,-1
460 0 m 2,12,13
 180 0 180 0 180 280 c 2,14,-1
 180 1449 l 1,15,-1
 350 1530 l 1,16,-1
 360 1530 l 1,17,-1
 360 1079 l 1,18,19
 407 1100 407 1100 460 1100 c 2,20,-1
 730 1100 l 2,21,22
 1010 1100 1010 1100 1010 820 c 2,23,-1
 1010 280 l 2,24,25
 1010 0 1010 0 730 0 c 2,26,-1
 460 0 l 2,12,13
EndSplineSet
Validated: 1
EndChar

StartChar: c
Encoding: 99 99 69
Width: 1050
GlyphClass: 2
Flags: W
HStem: 0 160<352.021 777.979> 940 160<352.021 777.979>
VStem: 160 180<170.898 929.102> 790 180<170.898 307 815 926.05>
LayerCount: 2
Fore
SplineSet
440 0 m 2,0,1
 160 0 160 0 160 280 c 2,2,-1
 160 820 l 2,3,4
 160 1100 160 1100 440 1100 c 2,5,-1
 690 1100 l 2,6,7
 970 1100 970 1100 970 815 c 1,8,-1
 800 734 l 1,9,-1
 790 734 l 1,10,-1
 790 850 l 2,11,12
 790 940 790 940 700 940 c 2,13,-1
 430 940 l 2,14,15
 340 940 340 940 340 850 c 2,16,-1
 340 250 l 2,17,18
 340 160 340 160 430 160 c 2,19,-1
 700 160 l 2,20,21
 790 160 790 160 790 250 c 2,22,-1
 790 307 l 1,23,-1
 960 388 l 1,24,-1
 970 388 l 1,25,-1
 970 280 l 2,26,27
 970 0 970 0 690 0 c 2,28,-1
 440 0 l 2,0,1
EndSplineSet
Validated: 1
EndChar

StartChar: d
Encoding: 100 100 70
Width: 1170
GlyphClass: 2
Flags: W
HStem: 0 160<352.021 797.979> 940 160<352.021 801.135> 1510 20G<938.025 990>
VStem: 160 180<170.898 929.102> 810 180<170.898 932.068 1079 1449>
LayerCount: 2
Fore
SplineSet
720 160 m 2,0,1
 810 160 810 160 810 250 c 2,2,-1
 810 850 l 2,3,4
 810 940 810 940 720 940 c 2,5,-1
 430 940 l 2,6,7
 340 940 340 940 340 850 c 2,8,-1
 340 250 l 2,9,10
 340 160 340 160 430 160 c 2,11,-1
 720 160 l 2,0,1
440 0 m 2,12,13
 160 0 160 0 160 280 c 2,14,-1
 160 820 l 2,15,16
 160 1100 160 1100 440 1100 c 2,17,-1
 710 1100 l 2,18,19
 763 1100 763 1100 810 1079 c 1,20,-1
 810 1449 l 1,21,-1
 980 1530 l 1,22,-1
 990 1530 l 1,23,-1
 990 280 l 2,24,25
 990 0 990 0 710 0 c 2,26,-1
 440 0 l 2,12,13
EndSplineSet
Validated: 1
EndChar

StartChar: e
Encoding: 101 101 71
Width: 1130
GlyphClass: 2
Flags: W
HStem: 0 160<352.021 777.979> 940 160<352.021 777.979>
VStem: 160 180<170.898 343 518 929.102> 790 180<170.898 307 734 929.102>
DStem2: 340 518 340 343 0.902304 0.431101<0 499.154>
LayerCount: 2
Fore
SplineSet
690 0 m 2,0,1
 440 0 l 2,2,3
 160 0 160 0 160 280 c 2,4,-1
 160 820 l 2,5,6
 160 1100 160 1100 440 1100 c 2,7,-1
 690 1100 l 2,8,9
 970 1100 970 1100 970 820 c 2,10,-1
 970 644 l 1,11,-1
 340 343 l 1,12,-1
 340 250 l 2,13,14
 340 160 340 160 430 160 c 2,15,-1
 700 160 l 2,16,17
 790 160 790 160 790 250 c 2,18,-1
 790 307 l 1,19,-1
 960 388 l 1,20,-1
 970 388 l 1,21,-1
 970 280 l 2,22,23
 970 0 970 0 690 0 c 2,0,1
340 518 m 1,24,-1
 790 734 l 1,25,-1
 790 850 l 2,26,27
 790 940 790 940 700 940 c 2,28,-1
 430 940 l 2,29,30
 340 940 340 940 340 850 c 2,31,-1
 340 518 l 1,24,-1
EndSplineSet
Validated: 1
EndChar

StartChar: f
Encoding: 102 102 72
Width: 780
GlyphClass: 2
Flags: W
HStem: -20 21G<180 231.975> 740 160<360 660> 1350 160<372.021 699>
VStem: 180 180<61 740 900 1339.1>
LayerCount: 2
Fore
SplineSet
190 -20 m 1,0,-1
 180 -20 l 1,1,-1
 180 1230 l 2,2,3
 180 1510 180 1510 460 1510 c 2,4,-1
 770 1510 l 1,5,-1
 770 1500 l 1,6,-1
 699 1350 l 1,7,-1
 450 1350 l 2,8,9
 360 1350 360 1350 360 1260 c 2,10,-1
 360 900 l 1,11,-1
 731 900 l 1,12,-1
 731 890 l 1,13,-1
 660 740 l 1,14,-1
 360 740 l 1,15,-1
 360 61 l 1,16,-1
 190 -20 l 1,0,-1
EndSplineSet
Validated: 1
EndChar

StartChar: g
Encoding: 103 103 73
Width: 1170
GlyphClass: 2
Flags: W
HStem: -410 160<371 797.979> 0 160<352.021 802.068> 940 160<352.021 797.979>
VStem: 160 180<170.898 929.102> 810 180<-239.102 21 167.932 929.102>
LayerCount: 2
Fore
SplineSet
440 0 m 2,0,1
 160 0 160 0 160 280 c 2,2,-1
 160 820 l 2,3,4
 160 1100 160 1100 440 1100 c 2,5,-1
 710 1100 l 2,6,7
 990 1100 990 1100 990 820 c 2,8,-1
 990 -130 l 2,9,10
 990 -410 990 -410 710 -410 c 2,11,-1
 300 -410 l 1,12,-1
 300 -400 l 1,13,-1
 371 -250 l 1,14,-1
 720 -250 l 2,15,16
 810 -250 810 -250 810 -160 c 2,17,-1
 810 21 l 1,18,19
 769 0 769 0 710 0 c 2,20,-1
 440 0 l 2,0,1
810 850 m 2,21,22
 810 940 810 940 720 940 c 2,23,-1
 430 940 l 2,24,25
 340 940 340 940 340 850 c 2,26,-1
 340 250 l 2,27,28
 340 160 340 160 430 160 c 2,29,-1
 720 160 l 2,30,31
 810 160 810 160 810 250 c 2,32,-1
 810 850 l 2,21,22
EndSplineSet
Validated: 1
EndChar

StartChar: h
Encoding: 104 104 74
Width: 1210
GlyphClass: 2
Flags: W
HStem: -20 21G<200 251.975 850 901.975> 940 160<389.205 837.979> 1510 20G<328.025 380>
VStem: 200 180<61 932.068 1079 1449> 850 180<61 929.102>
LayerCount: 2
Fore
SplineSet
210 -20 m 1,0,-1
 200 -20 l 1,1,-1
 200 1449 l 1,2,-1
 370 1530 l 1,3,-1
 380 1530 l 1,4,-1
 380 1079 l 1,5,6
 429 1100 429 1100 480 1100 c 2,7,-1
 750 1100 l 2,8,9
 1030 1100 1030 1100 1030 820 c 2,10,-1
 1030 61 l 1,11,-1
 860 -20 l 1,12,-1
 850 -20 l 1,13,-1
 850 850 l 2,14,15
 850 940 850 940 760 940 c 2,16,-1
 470 940 l 2,17,18
 380 940 380 940 380 850 c 2,19,-1
 380 61 l 1,20,-1
 210 -20 l 1,0,-1
EndSplineSet
Validated: 1
EndChar

StartChar: i
Encoding: 105 105 75
Width: 580
GlyphClass: 2
Flags: W
HStem: -20 21G<200 251.975> 1100 20G<328.025 380> 1220 245<206.097 373.903>
VStem: 170 240<1257.13 1427.87> 200 180<61 1039>
LayerCount: 2
Fore
SplineSet
200 -20 m 1,0,-1
 200 1039 l 1,1,-1
 370 1120 l 1,2,-1
 380 1120 l 1,3,-1
 380 61 l 1,4,-1
 210 -20 l 1,5,-1
 200 -20 l 1,0,-1
290 1465 m 128,-1,7
 340 1465 340 1465 375 1429 c 128,-1,8
 410 1393 410 1393 410 1342.5 c 128,-1,9
 410 1292 410 1292 375 1256 c 128,-1,10
 340 1220 340 1220 290 1220 c 128,-1,11
 240 1220 240 1220 205 1256 c 128,-1,12
 170 1292 170 1292 170 1342.5 c 128,-1,13
 170 1393 170 1393 205 1429 c 128,-1,6
 240 1465 240 1465 290 1465 c 128,-1,7
EndSplineSet
Validated: 1
EndChar

StartChar: j
Encoding: 106 106 76
Width: 580
GlyphClass: 2
Flags: W
HStem: -410 160<36 187.979> 1100 20G<328.025 380> 1220 245<206.097 373.903>
VStem: 170 240<1257.13 1427.87> 200 180<-239.102 1039>
LayerCount: 2
Fore
SplineSet
-35 -410 m 1,0,-1
 -35 -400 l 1,1,-1
 36 -250 l 1,2,-1
 110 -250 l 2,3,4
 200 -250 200 -250 200 -160 c 2,5,-1
 200 1039 l 1,6,-1
 370 1120 l 1,7,-1
 380 1120 l 1,8,-1
 380 -130 l 2,9,10
 380 -410 380 -410 100 -410 c 2,11,-1
 -35 -410 l 1,0,-1
290 1465 m 128,-1,13
 340 1465 340 1465 375 1429 c 128,-1,14
 410 1393 410 1393 410 1342.5 c 128,-1,15
 410 1292 410 1292 375 1256 c 128,-1,16
 340 1220 340 1220 290 1220 c 128,-1,17
 240 1220 240 1220 205 1256 c 128,-1,18
 170 1292 170 1292 170 1342.5 c 128,-1,19
 170 1393 170 1393 205 1429 c 128,-1,12
 240 1465 240 1465 290 1465 c 128,-1,13
EndSplineSet
Validated: 1
EndChar

StartChar: k
Encoding: 107 107 77
Width: 1170
GlyphClass: 2
Flags: W
HStem: -20 21G<200 251.975 830 881.975> 596 160<642 817.979> 1100 20G<796.582 868> 1510 20G<328.025 380>
VStem: 200 180<61 588.068 711 1449> 830 180<61 585.102>
DStem2: 380 711 642 756 0.730889 0.682497<222.205 599.27>
LayerCount: 2
Fore
SplineSet
210 -20 m 1,0,-1
 200 -20 l 1,1,-1
 200 1449 l 1,2,-1
 370 1530 l 1,3,-1
 380 1530 l 1,4,-1
 380 711 l 1,5,-1
 818 1120 l 1,6,-1
 828 1120 l 1,7,-1
 968 1050 l 1,8,-1
 642 756 l 1,9,-1
 730 756 l 2,10,11
 1010 756 1010 756 1010 476 c 2,12,-1
 1010 61 l 1,13,-1
 840 -20 l 1,14,-1
 830 -20 l 1,15,-1
 830 506 l 2,16,17
 830 596 830 596 740 596 c 2,18,-1
 470 596 l 2,19,20
 380 596 380 596 380 506 c 2,21,-1
 380 61 l 1,22,-1
 210 -20 l 1,0,-1
EndSplineSet
Validated: 1
EndChar

StartChar: l
Encoding: 108 108 78
Width: 580
GlyphClass: 2
Flags: W
HStem: -20 21G<200 251.975> 1510 20G<328.025 380>
VStem: 200 180<61 1449>
LayerCount: 2
Fore
SplineSet
200 -20 m 1,0,-1
 200 1449 l 1,1,-1
 370 1530 l 1,2,-1
 380 1530 l 1,3,-1
 380 61 l 1,4,-1
 210 -20 l 1,5,-1
 200 -20 l 1,0,-1
EndSplineSet
Validated: 1
EndChar

StartChar: m
Encoding: 109 109 79
Width: 1840
GlyphClass: 2
Flags: W
HStem: -20 21G<180 231.975 830 881.975 1480 1531.98> 940 160<372.021 819.73 1020.27 1467.98>
VStem: 180 180<61 929.102> 830 180<61 932.068> 1480 180<61 929.102>
CounterMasks: 1 38
LayerCount: 2
Fore
SplineSet
190 -20 m 1,0,-1
 180 -20 l 1,1,-1
 180 820 l 2,2,3
 180 1100 180 1100 460 1100 c 2,4,-1
 730 1100 l 2,5,6
 851 1100 851 1100 920 1047 c 1,7,8
 989 1100 989 1100 1110 1100 c 2,9,-1
 1380 1100 l 2,10,11
 1660 1100 1660 1100 1660 820 c 2,12,-1
 1660 61 l 1,13,-1
 1490 -20 l 1,14,-1
 1480 -20 l 1,15,-1
 1480 850 l 2,16,17
 1480 940 1480 940 1390 940 c 2,18,-1
 1100 940 l 2,19,20
 1010 940 1010 940 1010 850 c 2,21,-1
 1010 61 l 1,22,-1
 840 -20 l 1,23,-1
 830 -20 l 1,24,-1
 830 850 l 2,25,26
 830 940 830 940 740 940 c 2,27,-1
 450 940 l 2,28,29
 360 940 360 940 360 850 c 2,30,-1
 360 61 l 1,31,-1
 190 -20 l 1,0,-1
EndSplineSet
Validated: 1
EndChar

StartChar: n
Encoding: 110 110 80
Width: 1190
GlyphClass: 2
Flags: W
HStem: -20 21G<180 231.975 830 881.975> 940 160<372.021 817.979>
VStem: 180 180<61 929.102> 830 180<61 929.102>
LayerCount: 2
Fore
SplineSet
190 -20 m 1,0,-1
 180 -20 l 1,1,-1
 180 820 l 2,2,3
 180 1100 180 1100 460 1100 c 2,4,-1
 730 1100 l 2,5,6
 1010 1100 1010 1100 1010 820 c 2,7,-1
 1010 61 l 1,8,-1
 840 -20 l 1,9,-1
 830 -20 l 1,10,-1
 830 850 l 2,11,12
 830 940 830 940 740 940 c 2,13,-1
 450 940 l 2,14,15
 360 940 360 940 360 850 c 2,16,-1
 360 61 l 1,17,-1
 190 -20 l 1,0,-1
EndSplineSet
Validated: 1
EndChar

StartChar: o
Encoding: 111 111 81
Width: 1150
GlyphClass: 2
Flags: W
HStem: 0 160<352.021 797.979> 940 160<352.021 797.979>
VStem: 160 180<170.898 929.102> 810 180<170.898 929.102>
LayerCount: 2
Fore
SplineSet
430 160 m 2,0,-1
 720 160 l 2,1,2
 810 160 810 160 810 250 c 2,3,-1
 810 850 l 2,4,5
 810 940 810 940 720 940 c 2,6,-1
 430 940 l 2,7,8
 340 940 340 940 340 850 c 2,9,-1
 340 250 l 2,10,11
 340 160 340 160 430 160 c 2,0,-1
440 0 m 2,12,13
 160 0 160 0 160 280 c 2,14,-1
 160 820 l 2,15,16
 160 1100 160 1100 440 1100 c 2,17,-1
 710 1100 l 2,18,19
 990 1100 990 1100 990 820 c 2,20,-1
 990 280 l 2,21,22
 990 0 990 0 710 0 c 2,23,-1
 440 0 l 2,12,13
EndSplineSet
Validated: 1
EndChar

StartChar: p
Encoding: 112 112 82
Width: 1170
GlyphClass: 2
Flags: W
HStem: -430 21G<180 231.975> 0 160<368.865 817.979> 940 160<372.021 817.979>
VStem: 180 180<-349 21 167.932 929.102> 830 180<170.898 929.102>
LayerCount: 2
Fore
SplineSet
450 940 m 2,0,1
 360 940 360 940 360 850 c 2,2,-1
 360 250 l 2,3,4
 360 160 360 160 450 160 c 2,5,-1
 740 160 l 2,6,7
 830 160 830 160 830 250 c 2,8,-1
 830 850 l 2,9,10
 830 940 830 940 740 940 c 2,11,-1
 450 940 l 2,0,1
730 0 m 2,12,-1
 460 0 l 2,13,14
 407 0 407 0 360 21 c 1,15,-1
 360 -349 l 1,16,-1
 190 -430 l 1,17,-1
 180 -430 l 1,18,-1
 180 820 l 2,19,20
 180 1100 180 1100 460 1100 c 2,21,-1
 730 1100 l 2,22,23
 1010 1100 1010 1100 1010 820 c 2,24,-1
 1010 280 l 2,25,26
 1010 0 1010 0 730 0 c 2,12,-1
EndSplineSet
Validated: 1
EndChar

StartChar: q
Encoding: 113 113 83
Width: 1170
GlyphClass: 2
Flags: W
HStem: -430 21G<810 861.975> 0 160<352.021 801.135> 940 160<352.021 797.979>
VStem: 160 180<170.898 929.102> 810 180<-349 21 167.932 929.102>
LayerCount: 2
Fore
SplineSet
720 940 m 2,0,-1
 430 940 l 2,1,2
 340 940 340 940 340 850 c 2,3,-1
 340 250 l 2,4,5
 340 160 340 160 430 160 c 2,6,-1
 720 160 l 2,7,8
 810 160 810 160 810 250 c 2,9,-1
 810 850 l 2,10,11
 810 940 810 940 720 940 c 2,0,-1
440 0 m 2,12,13
 160 0 160 0 160 280 c 2,14,-1
 160 820 l 2,15,16
 160 1100 160 1100 440 1100 c 2,17,-1
 710 1100 l 2,18,19
 990 1100 990 1100 990 820 c 2,20,-1
 990 -349 l 1,21,-1
 820 -430 l 1,22,-1
 810 -430 l 1,23,-1
 810 21 l 1,24,25
 763 0 763 0 710 0 c 2,26,-1
 440 0 l 2,12,13
EndSplineSet
Validated: 1
EndChar

StartChar: r
Encoding: 114 114 84
Width: 780
GlyphClass: 2
Flags: W
HStem: -20 21G<180 231.975> 940 160<372.021 699>
VStem: 180 180<61 929.102>
LayerCount: 2
Fore
SplineSet
190 -20 m 1,0,-1
 180 -20 l 1,1,-1
 180 820 l 2,2,3
 180 1100 180 1100 460 1100 c 2,4,5
 770 1100 l 1,6,-1
 770 1090 l 1,7,-1
 699 940 l 1,8,-1
 450 940 l 2,9,10
 360 940 360 940 360 850 c 2,11,12
 360 61 l 1,13,-1
 190 -20 l 1,0,-1
EndSplineSet
Validated: 1
EndChar

StartChar: t
Encoding: 116 116 85
Width: 780
GlyphClass: 2
Flags: W
HStem: -20 21G<300 351.975> 940 160<81 300 480 699> 1510 20G<428.025 480>
VStem: 300 180<61 940 1100 1449>
LayerCount: 2
Fore
SplineSet
300 -20 m 1,0,-1
 300 940 l 1,1,-1
 10 940 l 1,2,-1
 10 950 l 1,3,-1
 81 1100 l 1,4,-1
 300 1100 l 1,5,-1
 300 1449 l 1,6,-1
 470 1530 l 1,7,-1
 480 1530 l 1,8,-1
 480 1100 l 1,9,-1
 770 1100 l 1,10,-1
 770 1090 l 1,11,-1
 699 940 l 1,12,-1
 480 940 l 1,13,-1
 480 61 l 1,14,-1
 310 -20 l 1,15,-1
 300 -20 l 1,0,-1
EndSplineSet
Validated: 1
EndChar

StartChar: u
Encoding: 117 117 86
Width: 1190
GlyphClass: 2
Flags: W
HStem: 0 160<372.021 817.979> 1100 20G<308.025 360 958.025 1010>
VStem: 180 180<170.898 1039> 830 180<170.898 1039>
LayerCount: 2
Fore
SplineSet
460 0 m 2,0,1
 180 0 180 0 180 280 c 2,2,-1
 180 1039 l 1,3,-1
 350 1120 l 1,4,-1
 360 1120 l 1,5,-1
 360 250 l 2,6,7
 360 160 360 160 450 160 c 2,8,-1
 740 160 l 2,9,10
 830 160 830 160 830 250 c 2,11,-1
 830 1039 l 1,12,-1
 1000 1120 l 1,13,-1
 1010 1120 l 1,14,-1
 1010 280 l 2,15,16
 1010 0 1010 0 730 0 c 2,17,-1
 460 0 l 2,0,1
EndSplineSet
Validated: 1
EndChar

StartChar: v
Encoding: 118 118 87
Width: 950
GlyphClass: 2
Flags: W
HStem: -20 21G<383.765 443.133> 1100 20G<116.082 175.129 781.518 840.714>
DStem2: 168 1120 5 1047 0.340186 -0.940358<13.1959 902.381> 471 270 559 55 0.361677 0.932303<0 898.632>
LayerCount: 2
Fore
SplineSet
391 -20 m 1,0,-1
 5 1047 l 1,1,-1
 158 1120 l 1,2,-1
 168 1120 l 1,3,-1
 471 270 l 1,4,-1
 789 1120 l 1,5,-1
 799 1120 l 1,6,-1
 945 1050 l 1,7,-1
 559 55 l 1,8,-1
 401 -20 l 1,9,-1
 391 -20 l 1,0,-1
EndSplineSet
Validated: 1
EndChar

StartChar: w
Encoding: 119 119 88
Width: 1840
GlyphClass: 2
Flags: W
HStem: 0 160<372.021 819.73 1020.27 1467.98> 1100 20G<308.025 360 958.025 1010 1608.02 1660>
VStem: 180 180<170.898 1039> 830 180<167.932 1039> 1480 180<170.898 1039>
CounterMasks: 1 38
LayerCount: 2
Fore
SplineSet
460 0 m 2,0,1
 180 0 180 0 180 280 c 2,2,-1
 180 1039 l 1,3,-1
 350 1120 l 1,4,-1
 360 1120 l 1,5,-1
 360 250 l 2,6,7
 360 160 360 160 450 160 c 2,8,-1
 740 160 l 2,9,10
 830 160 830 160 830 250 c 2,11,-1
 830 1039 l 1,12,-1
 1000 1120 l 1,13,-1
 1010 1120 l 1,14,-1
 1010 250 l 2,15,16
 1010 160 1010 160 1100 160 c 2,17,-1
 1390 160 l 2,18,19
 1480 160 1480 160 1480 250 c 2,20,-1
 1480 1039 l 1,21,-1
 1650 1120 l 1,22,-1
 1660 1120 l 1,23,-1
 1660 280 l 2,24,25
 1660 0 1660 0 1380 0 c 2,26,-1
 1110 0 l 2,27,28
 989 0 989 0 920 53 c 1,29,30
 851 0 851 0 730 0 c 2,31,-1
 460 0 l 2,0,1
EndSplineSet
Validated: 1
EndChar

StartChar: x
Encoding: 120 120 89
Width: 886
GlyphClass: 2
Flags: W
HStem: -20 21G<126.033 190.44 682.703 747.09> 1094 20G<140.235 204.278 694.578 758.613>
DStem2: 192 1114 40 1046 0.522581 -0.85259<0 489.311 739.009 1229.69> 40 41 178 -20 0.527934 0.849285<21.0485 513.313 772.528 1263.42>
LayerCount: 2
Fore
SplineSet
178 -20 m 1,0,-1
 168 -20 l 1,1,-1
 40 41 l 1,2,-1
 351 541 l 1,3,-1
 40 1046 l 1,4,-1
 182 1114 l 1,5,-1
 192 1114 l 1,6,-1
 448 697 l 1,7,-1
 707 1114 l 1,8,-1
 717 1114 l 1,9,-1
 846 1052 l 1,10,-1
 535 554 l 1,11,-1
 846 47 l 1,12,-1
 705 -20 l 1,13,-1
 695 -20 l 1,14,-1
 438 398 l 1,15,-1
 178 -20 l 1,0,-1
EndSplineSet
Validated: 1
EndChar

StartChar: y
Encoding: 121 121 90
Width: 1210
GlyphClass: 2
Flags: W
HStem: -410 160<391 817.979> 0 160<372.021 821.305> 1100 20G<308.025 360 958.025 1010>
VStem: 180 180<170.898 1039> 830 180<-239.102 21 167.932 1039>
LayerCount: 2
Fore
SplineSet
460 0 m 2,0,1
 180 0 180 0 180 280 c 2,2,-1
 180 1039 l 1,3,-1
 350 1120 l 1,4,-1
 360 1120 l 1,5,-1
 360 250 l 2,6,7
 360 160 360 160 450 160 c 2,8,-1
 740 160 l 2,9,10
 830 160 830 160 830 250 c 2,11,-1
 830 1039 l 1,12,-1
 1000 1120 l 1,13,-1
 1010 1120 l 1,14,-1
 1010 -130 l 2,15,16
 1010 -410 1010 -410 730 -410 c 2,17,-1
 320 -410 l 1,18,-1
 320 -400 l 1,19,-1
 391 -250 l 1,20,-1
 740 -250 l 2,21,22
 830 -250 830 -250 830 -160 c 2,23,-1
 830 21 l 1,24,25
 784 0 784 0 730 0 c 2,26,-1
 460 0 l 2,0,1
EndSplineSet
Validated: 1
EndChar

StartChar: z
Encoding: 122 122 91
Width: 850
GlyphClass: 2
Flags: W
HStem: 0 160<309 739> 940 160<141 542>
DStem2: 40 10 309 160 0.475002 0.879985<259.773 1056.84>
LayerCount: 2
Fore
SplineSet
40 0 m 1,0,-1
 40 10 l 1,1,-1
 542 940 l 1,2,-1
 70 940 l 1,3,-1
 70 950 l 1,4,-1
 141 1100 l 1,5,-1
 810 1100 l 1,6,-1
 810 1090 l 1,7,-1
 309 160 l 1,8,-1
 810 160 l 1,9,-1
 810 150 l 1,10,-1
 739 0 l 1,11,-1
 40 0 l 1,0,-1
EndSplineSet
Validated: 1
EndChar

StartChar: braceleft
Encoding: 123 123 92
Width: 830
GlyphClass: 2
Flags: W
HStem: -240 180<505.055 780> 665 180<130 274> 1570 180<505.055 780>
VStem: 274 200<-26.377 665 845 1536.38>
CounterMasks: 1 e0
LayerCount: 2
Fore
SplineSet
780 -240 m 1,0,-1
 624 -240 l 2,1,2
 274 -240 274 -240 274 110 c 2,3,-1
 274 665 l 1,4,-1
 50 665 l 1,5,-1
 50 675 l 1,6,-1
 130 845 l 1,7,-1
 274 845 l 1,8,-1
 274 1400 l 2,9,10
 274 1750 274 1750 624 1750 c 2,11,-1
 780 1750 l 1,12,-1
 780 1570 l 1,13,-1
 614 1570 l 2,14,15
 474 1570 474 1570 474 1430 c 2,16,-1
 474 80 l 2,17,18
 474 -60 474 -60 614 -60 c 2,19,-1
 780 -60 l 1,20,-1
 780 -240 l 1,0,-1
EndSplineSet
Validated: 1
EndChar

StartChar: bar
Encoding: 124 124 93
Width: 650
GlyphClass: 2
Flags: W
VStem: 250 150<-134 1644>
LayerCount: 2
Fore
SplineSet
250 -200 m 1,0,-1
 250 1644 l 1,1,-1
 390 1710 l 1,2,-1
 400 1710 l 1,3,-1
 400 -134 l 1,4,-1
 260 -200 l 1,5,-1
 250 -200 l 1,0,-1
EndSplineSet
Validated: 1
EndChar

StartChar: braceright
Encoding: 125 125 94
Width: 830
GlyphClass: 2
Flags: W
HStem: -240 180<50 324.945> 665 180<556 700> 1570 180<50 324.945>
VStem: 356 200<-26.377 665 845 1536.38>
CounterMasks: 1 e0
LayerCount: 2
Fore
SplineSet
50 -240 m 1,0,-1
 50 -60 l 1,1,-1
 216 -60 l 2,2,3
 356 -60 356 -60 356 80 c 2,4,-1
 356 1430 l 2,5,6
 356 1570 356 1570 216 1570 c 2,7,-1
 50 1570 l 1,8,-1
 50 1750 l 1,9,-1
 206 1750 l 2,10,11
 556 1750 556 1750 556 1400 c 2,12,-1
 556 845 l 1,13,-1
 780 845 l 1,14,-1
 780 835 l 1,15,-1
 700 665 l 1,16,-1
 556 665 l 1,17,-1
 556 110 l 2,18,19
 556 -240 556 -240 206 -240 c 2,20,-1
 50 -240 l 1,0,-1
EndSplineSet
Validated: 1
EndChar

StartChar: asciitilde
Encoding: 126 126 95
Width: 1138
GlyphClass: 2
Flags: W
HStem: 576 147<657.304 812.171> 790 147<325.829 480.696>
VStem: 150 157<647 774.039> 831 157<738.961 866>
LayerCount: 2
Fore
SplineSet
988 937 m 1,0,1
 988 576 988 576 732 576 c 0,2,3
 615 576 615 576 517 703 c 0,4,5
 450 790 450 790 400 790 c 0,6,7
 307 790 307 790 307 647 c 1,8,-1
 160 576 l 1,9,-1
 150 576 l 1,10,11
 150 937 150 937 406 937 c 0,12,13
 523 937 523 937 621 810 c 0,14,15
 688 723 688 723 738 723 c 0,16,17
 831 723 831 723 831 866 c 1,18,-1
 978 937 l 1,19,-1
 988 937 l 1,0,1
EndSplineSet
Validated: 1
EndChar

StartChar: exclamdown
Encoding: 161 161 97
Width: 600
GlyphClass: 2
Flags: W
HStem: -430 21G<200 252.222> 875 245<216.097 383.903>
VStem: 180 240<912.129 1082.87> 200 200<-340 610>
LayerCount: 2
Fore
SplineSet
300 1120 m 128,-1,1
 350 1120 350 1120 385 1084 c 128,-1,2
 420 1048 420 1048 420 997.5 c 128,-1,3
 420 947 420 947 385 911 c 128,-1,4
 350 875 350 875 300 875 c 128,-1,5
 250 875 250 875 215 911 c 128,-1,6
 180 947 180 947 180 997.5 c 128,-1,7
 180 1048 180 1048 215 1084 c 128,-1,0
 250 1120 250 1120 300 1120 c 128,-1,1
210 -430 m 1,8,-1
 200 -430 l 1,9,-1
 200 610 l 1,10,-1
 390 700 l 1,11,-1
 400 700 l 1,12,-1
 400 -340 l 1,13,-1
 210 -430 l 1,8,-1
EndSplineSet
Validated: 1
EndChar

StartChar: cent
Encoding: 162 162 98
Width: 1070
GlyphClass: 2
Flags: W
HStem: 0 160<352.021 525 625 797.979> 940 160<352.021 525 625 797.979>
VStem: 160 180<170.898 929.102> 525 100<-78 0 160 940 1100 1178> 810 180<170.898 307 815 926.05>
CounterMasks: 1 38
LayerCount: 2
Fore
SplineSet
440 0 m 2,0,1
 160 0 160 0 160 280 c 2,2,-1
 160 820 l 2,3,4
 160 1100 160 1100 440 1100 c 2,5,-1
 525 1100 l 1,6,-1
 525 1178 l 1,7,-1
 615 1220 l 1,8,-1
 625 1220 l 1,9,-1
 625 1100 l 1,10,-1
 710 1100 l 2,11,12
 990 1100 990 1100 990 815 c 1,13,-1
 820 734 l 1,14,-1
 810 734 l 1,15,-1
 810 850 l 2,16,17
 810 940 810 940 720 940 c 2,18,-1
 625 940 l 1,19,-1
 625 160 l 1,20,-1
 720 160 l 2,21,22
 810 160 810 160 810 250 c 2,23,-1
 810 307 l 1,24,-1
 980 388 l 1,25,-1
 990 388 l 1,26,-1
 990 280 l 2,27,28
 990 0 990 0 710 0 c 2,29,-1
 625 -0 l 1,30,-1
 625 -78 l 1,31,-1
 535 -120 l 1,32,-1
 525 -120 l 1,33,-1
 525 -0 l 1,34,-1
 440 0 l 2,0,1
525 160 m 1,35,-1
 525 940 l 1,36,-1
 430 940 l 2,37,38
 340 940 340 940 340 850 c 2,39,-1
 340 250 l 2,40,41
 340 160 340 160 430 160 c 2,42,-1
 525 160 l 1,35,-1
EndSplineSet
Validated: 1
EndChar

StartChar: sterling
Encoding: 163 163 99
Width: 1335
GlyphClass: 2
Flags: W
HStem: 0 180<230 300 500 1105> 600 180<231 300 500 835> 1330 180<531.055 891.945>
VStem: 300 200<180 600 780 1296.38> 923 200<1152 1300.15>
LayerCount: 2
Fore
SplineSet
150 0 m 1,0,-1
 150 10 l 1,1,-1
 230 180 l 1,2,-1
 300 180 l 1,3,-1
 300 600 l 1,4,-1
 151 600 l 1,5,-1
 151 610 l 1,6,-1
 231 780 l 1,7,-1
 300 780 l 1,8,-1
 300 1160 l 2,9,10
 300 1510 300 1510 650 1510 c 2,11,-1
 773 1510 l 2,12,13
 1123 1510 1123 1510 1123 1152 c 1,14,-1
 933 1062 l 1,15,-1
 923 1062 l 9,16,-1
 923 1190 l 2,17,18
 923 1330 923 1330 783 1330 c 2,19,-1
 640 1330 l 2,20,21
 500 1330 500 1330 500 1190 c 2,22,-1
 500 780 l 1,23,-1
 915 780 l 1,24,-1
 915 770 l 1,25,-1
 835 600 l 1,26,-1
 500 600 l 1,27,-1
 500 180 l 1,28,-1
 1185 180 l 1,29,-1
 1185 170 l 1,30,-1
 1105 0 l 1,31,-1
 150 0 l 1,0,-1
EndSplineSet
Validated: 1
EndChar

StartChar: currency
Encoding: 164 164 100
Width: 1395
GlyphClass: 2
Flags: W
HStem: 240 180<419.656 973.144> 1089 180<420.563 973.437>
VStem: 192 200<447.447 1060.48> 1002 200<446.797 1060.48>
LayerCount: 2
Fore
SplineSet
532 420 m 2,0,-1
 862 420 l 2,1,2
 1002 420 1002 420 1002 560 c 2,3,-1
 1002 949 l 2,4,5
 1002 1089 1002 1089 862 1089 c 2,6,-1
 532 1089 l 2,7,8
 392 1089 392 1089 392 949 c 2,9,-1
 392 560 l 2,10,11
 392 420 392 420 532 420 c 2,0,-1
1168 407 m 1,12,-1
 1245 330 l 1,13,-1
 1238 323 l 1,14,-1
 1059 259 l 1,15,-1
 1041 276 l 1,16,17
 965 240 965 240 852 240 c 2,18,-1
 542 240 l 2,19,20
 422 240 422 240 342 281 c 1,21,-1
 336 275 l 1,22,-1
 157 339 l 1,23,-1
 150 346 l 1,24,-1
 221 417 l 1,25,26
 192 489 192 489 192 590 c 2,27,-1
 192 919 l 2,28,29
 192 1030 192 1030 227 1106 c 1,30,-1
 150 1184 l 1,31,-1
 157 1191 l 1,32,-1
 335 1255 l 1,33,-1
 356 1234 l 1,34,35
 432 1269 432 1269 542 1269 c 2,36,-1
 852 1269 l 2,37,38
 962 1269 962 1269 1038 1234 c 1,39,-1
 1059 1255 l 1,40,-1
 1238 1191 l 1,41,-1
 1245 1184 l 1,42,-1
 1167 1106 l 1,43,44
 1202 1030 1202 1030 1202 919 c 2,45,-1
 1202 590 l 2,46,47
 1202 482 1202 482 1168 407 c 1,12,-1
EndSplineSet
Validated: 1
EndChar

StartChar: yen
Encoding: 165 165 101
Width: 1310
GlyphClass: 2
Flags: W
HStem: -20 21G<555 607.222> 114 120<342 555 755 968> 314 120<342 555 755 968> 450 180<391.055 555 755 918.945> 1510 20G<307.778 360 1097.78 1150>
VStem: 160 200<663.623 1440> 555 200<70 114 234 314 434 450> 950 200<663.623 1440>
CounterMasks: 1 07
LayerCount: 2
Fore
SplineSet
565 -20 m 1,0,-1
 555 -20 l 1,1,-1
 555 114 l 1,2,-1
 290 114 l 1,3,-1
 290 124 l 1,4,-1
 342 234 l 1,5,-1
 555 234 l 1,6,-1
 555 314 l 1,7,-1
 290 314 l 1,8,-1
 290 324 l 1,9,-1
 342 434 l 1,10,-1
 555 434 l 1,11,-1
 555 450 l 1,12,-1
 510 450 l 2,13,14
 160 450 160 450 160 800 c 2,15,-1
 160 1440 l 1,16,-1
 350 1530 l 1,17,-1
 360 1530 l 1,18,-1
 360 770 l 2,19,20
 360 630 360 630 500 630 c 2,21,-1
 810 630 l 2,22,23
 950 630 950 630 950 770 c 2,24,-1
 950 1440 l 1,25,-1
 1140 1530 l 1,26,-1
 1150 1530 l 1,27,-1
 1150 800 l 2,28,29
 1150 450 1150 450 800 450 c 2,30,-1
 755 450 l 1,31,-1
 755 434 l 1,32,-1
 1020 434 l 1,33,-1
 1020 424 l 1,34,-1
 968 314 l 1,35,-1
 755 314 l 1,36,-1
 755 234 l 1,37,-1
 1020 234 l 1,38,-1
 1020 224 l 1,39,-1
 968 114 l 1,40,-1
 755 114 l 1,41,-1
 755 70 l 1,42,-1
 565 -20 l 1,0,-1
EndSplineSet
Validated: 1
EndChar

StartChar: brokenbar
Encoding: 166 166 102
Width: 650
GlyphClass: 2
Flags: W
VStem: 250 150<-134 587 915 1644>
LayerCount: 2
Fore
SplineSet
250 -200 m 1,0,-1
 250 587 l 1,1,-1
 390 653 l 1,2,-1
 400 653 l 1,3,-1
 400 -134 l 1,4,-1
 260 -200 l 1,5,-1
 250 -200 l 1,0,-1
390 1710 m 1,6,-1
 400 1710 l 1,7,-1
 400 915 l 1,8,-1
 260 849 l 1,9,-1
 250 849 l 1,10,-1
 250 1644 l 1,11,-1
 390 1710 l 1,6,-1
EndSplineSet
Validated: 1
EndChar

StartChar: section
Encoding: 167 167 103
Width: 1090
GlyphClass: 2
Flags: W
HStem: 0 150<401.246 688.25> 418 160<342.021 688.25> 932 160<401.75 747.979> 1360 150<401.75 688.754>
VStem: 150 180<588.898 885.499> 218 170<161.738 245 1102.86 1351.56> 702 170<158.438 407.141 1265 1348.26> 760 180<624.501 921.102>
LayerCount: 2
Fore
SplineSet
464 0 m 2,0,1
 224 0 224 0 224 245 c 1,2,-1
 384 321 l 1,3,-1
 394 321 l 1,4,-1
 394 235 l 2,5,6
 394 150 394 150 484 150 c 2,7,-1
 612 150 l 2,8,9
 702 150 702 150 702 240 c 2,10,-1
 702 328 l 2,11,12
 702 418 702 418 612 418 c 2,13,-1
 430 418 l 2,14,15
 150 418 150 418 150 698 c 2,16,-1
 150 820 l 2,17,18
 150 917 150 917 183 980 c 1,19,-1
 335 886 l 1,20,21
 330 870 330 870 330 850 c 2,22,-1
 330 668 l 2,23,24
 330 578 330 578 420 578 c 2,25,-1
 632 578 l 2,26,27
 872 578 872 578 872 338 c 2,28,-1
 872 240 l 2,29,30
 872 0 872 0 632 0 c 2,31,-1
 464 0 l 2,0,1
626 1510 m 2,32,33
 866 1510 866 1510 866 1265 c 1,34,-1
 706 1189 l 1,35,-1
 696 1189 l 1,36,-1
 696 1275 l 2,37,38
 696 1360 696 1360 606 1360 c 2,39,-1
 478 1360 l 2,40,41
 388 1360 388 1360 388 1270 c 2,42,-1
 388 1182 l 2,43,44
 388 1092 388 1092 478 1092 c 2,45,-1
 660 1092 l 2,46,47
 940 1092 940 1092 940 812 c 2,48,-1
 940 690 l 2,49,50
 940 593 940 593 907 530 c 1,51,-1
 755 624 l 1,52,53
 760 640 760 640 760 660 c 2,54,-1
 760 842 l 2,55,56
 760 932 760 932 670 932 c 2,57,-1
 458 932 l 2,58,59
 218 932 218 932 218 1172 c 2,60,-1
 218 1270 l 2,61,62
 218 1510 218 1510 458 1510 c 2,63,-1
 626 1510 l 2,32,33
EndSplineSet
Validated: 1
EndChar

StartChar: dieresis
Encoding: 168 168 104
Width: 600
GlyphClass: 2
Flags: W
HStem: 1230 227<84.0344 239.966 361.004 516.996>
VStem: 50 224<1264.55 1422.45> 328 222<1265.07 1422.93>
LayerCount: 2
Fore
SplineSet
439 1458 m 128,-1,1
 486 1458 486 1458 518 1424 c 128,-1,2
 550 1390 550 1390 550 1344 c 128,-1,3
 550 1298 550 1298 518 1264 c 128,-1,4
 486 1230 486 1230 439 1230 c 128,-1,5
 392 1230 392 1230 360 1264 c 128,-1,6
 328 1298 328 1298 328 1344 c 128,-1,7
 328 1390 328 1390 360 1424 c 128,-1,0
 392 1458 392 1458 439 1458 c 128,-1,1
162 1457 m 128,-1,9
 208 1457 208 1457 241 1423.5 c 128,-1,10
 274 1390 274 1390 274 1343.5 c 128,-1,11
 274 1297 274 1297 241 1263.5 c 128,-1,12
 208 1230 208 1230 162 1230 c 128,-1,13
 116 1230 116 1230 83 1263.5 c 128,-1,14
 50 1297 50 1297 50 1343.5 c 128,-1,15
 50 1390 50 1390 83 1423.5 c 128,-1,8
 116 1457 116 1457 162 1457 c 128,-1,9
EndSplineSet
Validated: 1
EndChar

StartChar: copyright
Encoding: 169 169 105
Width: 1401
GlyphClass: 2
Flags: W
HStem: 386 48<545.181 850.676> 556 131<589.274 836.726> 1220 131<589.274 836.726> 1478 52<544.168 856.773>
VStem: 150 50<794.694 1125.05> 446 140<689.043 1217.96> 840 140<689.729 781 1139 1219.63> 1200 51<785.868 1126.58>
LayerCount: 2
Fore
SplineSet
640 1351 m 2,0,-1
 786 1351 l 2,1,2
 980 1351 980 1351 980 1152 c 2,3,-1
 980 1139 l 1,4,-1
 850 1086 l 1,5,-1
 840 1086 l 1,6,-1
 840 1170 l 2,7,8
 840 1220 840 1220 790 1220 c 2,9,-1
 636 1220 l 2,10,11
 586 1220 586 1220 586 1170 c 2,12,-1
 586 737 l 2,13,14
 586 687 586 687 636 687 c 2,15,-1
 790 687 l 2,16,17
 840 687 840 687 840 737 c 2,18,-1
 840 781 l 1,19,-1
 970 833 l 1,20,-1
 980 833 l 1,21,-1
 980 751 l 2,22,23
 980 556 980 556 786 556 c 2,24,-1
 640 556 l 2,25,26
 446 556 446 556 446 750 c 2,27,-1
 446 1157 l 2,28,29
 446 1351 446 1351 640 1351 c 2,0,-1
701 1530 m 0,30,31
 943 1530 943 1530 1099 1357 c 0,32,33
 1251 1188 1251 1188 1251 953 c 0,34,35
 1251 701 1251 701 1090 549 c 0,36,37
 919 386 919 386 699 386 c 0,38,39
 476 386 476 386 311 549 c 0,40,41
 150 708 150 708 150 953 c 0,42,43
 150 1197 150 1197 308 1362 c 0,44,45
 469 1530 469 1530 701 1530 c 0,30,31
699 1478 m 0,46,47
 499 1478 499 1478 350 1330 c 0,48,49
 200 1181 200 1181 200 953 c 0,50,51
 200 750 200 750 347 587 c 0,52,53
 485 434 485 434 701 434 c 0,54,55
 902 434 902 434 1054 587 c 0,56,57
 1200 734 1200 734 1200 953 c 0,58,59
 1200 1185 1200 1185 1056 1327 c 0,60,61
 903 1478 903 1478 699 1478 c 0,46,47
EndSplineSet
Validated: 1
EndChar

StartChar: ordfeminine
Encoding: 170 170 106
Width: 554
GlyphClass: 2
Flags: W
HStem: 790 120<102 452> 969 121<203.406 373.531 374 376> 1259 121<203.406 373.562> 1439 121<187 372.594>
VStem: 72 130<1091.5 1257.5> 374 130<1090 1259 1377 1437.5>
LayerCount: 2
Fore
SplineSet
187 1560 m 1,0,-1
 344 1560 l 2,1,2
 504 1560 504 1560 504 1400 c 2,3,-1
 504 1007 l 1,4,-1
 384 959 l 1,5,-1
 374 959 l 1,6,-1
 374 978 l 1,7,8
 359 969 359 969 344 969 c 2,9,-1
 232 969 l 2,10,11
 72 969 72 969 72 1129 c 2,12,-1
 72 1220 l 2,13,14
 72 1380 72 1380 232 1380 c 2,15,-1
 344 1380 l 2,16,17
 360 1380 360 1380 374 1377 c 1,18,-1
 374 1414 l 2,19,20
 374 1439 374 1439 349 1439 c 2,21,-1
 144 1439 l 1,22,-1
 144 1449 l 1,23,-1
 187 1560 l 1,0,-1
352 1259 m 2,24,-1
 227 1259 l 2,25,26
 202 1259 202 1259 202 1234 c 2,27,-1
 202 1115 l 2,28,29
 202 1090 202 1090 227 1090 c 2,30,-1
 352 1090 l 2,31,32
 376 1090 376 1090 376 1115 c 2,33,-1
 376 1234 l 2,34,35
 376 1259 376 1259 352 1259 c 2,24,-1
50 790 m 1,36,-1
 50 800 l 1,37,-1
 102 910 l 1,38,-1
 504 910 l 1,39,-1
 504 900 l 1,40,-1
 452 790 l 1,41,-1
 50 790 l 1,36,-1
EndSplineSet
Validated: 1
EndChar

StartChar: guillemotleft
Encoding: 171 171 107
Width: 1100
GlyphClass: 2
Flags: W
VStem: 150 172<669 841> 502 172<669 841>
DStem2: 322 755 150 755 0.50702 -0.861934<0 425.593> 150 755 322 755 0.50702 0.861934<87.2075 512.8> 674 755 502 755 0.50702 -0.861934<0 425.593> 502 755 674 755 0.50702 0.861934<87.2075 512.8>
LayerCount: 2
Fore
SplineSet
502 755 m 1,0,-1
 762 1197 l 1,1,-1
 772 1197 l 1,2,-1
 900 1136 l 1,3,-1
 674 755 l 1,4,-1
 900 374 l 1,5,-1
 772 313 l 1,6,-1
 762 313 l 1,7,-1
 502 755 l 1,0,-1
150 755 m 1,8,-1
 410 1197 l 1,9,-1
 420 1197 l 1,10,-1
 548 1136 l 1,11,-1
 322 755 l 1,12,-1
 548 374 l 1,13,-1
 420 313 l 1,14,-1
 410 313 l 1,15,-1
 150 755 l 1,8,-1
EndSplineSet
Validated: 1
EndChar

StartChar: logicalnot
Encoding: 172 172 108
Width: 1200
GlyphClass: 2
Flags: W
HStem: 680 150<216 864>
DStem2: 738 418 858 418 0.430979 0.902362<51.7175 290.722>
LayerCount: 2
Fore
SplineSet
216 830 m 1,0,-1
 1050 830 l 1,1,-1
 1050 820 l 1,2,-1
 858 418 l 1,3,-1
 738 418 l 1,4,-1
 864 680 l 1,5,-1
 150 680 l 1,6,-1
 150 690 l 1,7,-1
 216 830 l 1,0,-1
EndSplineSet
Validated: 1
EndChar

StartChar: uni00AD
Encoding: 173 173 109
Width: 1200
GlyphClass: 2
Flags: W
HStem: 680 150<216 984>
LayerCount: 2
Fore
SplineSet
216 830 m 5,0,-1
 1050 830 l 5,1,-1
 1050 820 l 5,2,-1
 984 680 l 5,3,-1
 150 680 l 5,4,-1
 150 690 l 5,5,-1
 216 830 l 5,0,-1
EndSplineSet
Validated: 1
EndChar

StartChar: registered
Encoding: 174 174 110
Width: 1401
GlyphClass: 2
Flags: W
HStem: 386 48<545.181 850.676> 807 131<604 698> 1223 131<604 824.726> 1478 52<544.168 856.773>
VStem: 150 50<794.694 1125.05> 464 140<598 807 938 1223> 828 140<938.812 1219.58> 1200 51<785.868 1126.58>
DStem2: 861 822 698 807 0.577669 -0.816271<0 236.606>
LayerCount: 2
Fore
SplineSet
778 1223 m 2,0,-1
 604 1223 l 1,1,-1
 604 938 l 1,2,-1
 778 938 l 2,3,4
 828 938 828 938 828 988 c 2,5,-1
 828 1173 l 2,6,7
 828 1223 828 1223 778 1223 c 2,0,-1
892 547 m 1,8,-1
 882 547 l 1,9,-1
 698 807 l 1,10,-1
 604 807 l 1,11,-1
 604 598 l 1,12,-1
 474 547 l 1,13,-1
 464 547 l 1,14,-1
 464 1310 l 1,15,-1
 553 1354 l 1,16,-1
 774 1354 l 2,17,18
 968 1354 968 1354 968 1158 c 2,19,-1
 968 1003 l 2,20,21
 968 862 968 862 861 822 c 1,22,-1
 1018 601 l 1,23,-1
 892 547 l 1,8,-1
701 1530 m 0,24,25
 943 1530 943 1530 1099 1357 c 0,26,27
 1251 1188 1251 1188 1251 953 c 0,28,29
 1251 701 1251 701 1090 549 c 0,30,31
 919 386 919 386 699 386 c 0,32,33
 476 386 476 386 311 549 c 0,34,35
 150 708 150 708 150 953 c 0,36,37
 150 1197 150 1197 308 1362 c 0,38,39
 469 1530 469 1530 701 1530 c 0,24,25
699 1478 m 0,40,41
 499 1478 499 1478 350 1330 c 0,42,43
 200 1181 200 1181 200 953 c 0,44,45
 200 750 200 750 347 587 c 0,46,47
 485 434 485 434 701 434 c 0,48,49
 902 434 902 434 1054 587 c 0,50,51
 1200 734 1200 734 1200 953 c 0,52,53
 1200 1185 1200 1185 1056 1327 c 0,54,55
 903 1478 903 1478 699 1478 c 0,40,41
EndSplineSet
Validated: 1
EndChar

StartChar: macron
Encoding: 175 175 111
Width: 600
GlyphClass: 2
Flags: W
HStem: 1299 130<107 493>
VStem: 50 500
LayerCount: 2
Fore
SplineSet
107 1429 m 1,0,-1
 550 1429 l 1,1,-1
 550 1419 l 1,2,-1
 493 1299 l 1,3,-1
 50 1299 l 1,4,-1
 50 1309 l 1,5,-1
 107 1429 l 1,0,-1
EndSplineSet
Validated: 1
EndChar

StartChar: degree
Encoding: 176 176 112
Width: 650
GlyphClass: 2
Flags: W
HStem: 1000 131<194.751 455.249> 1429 131<194.751 455.249>
VStem: 50 140<1133.04 1426.96> 460 140<1133.04 1426.96>
LayerCount: 2
Fore
SplineSet
410 1429 m 2,0,-1
 240 1429 l 2,1,2
 190 1429 190 1429 190 1379 c 2,3,-1
 190 1181 l 2,4,5
 190 1131 190 1131 240 1131 c 2,6,7
 410 1131 l 2,8,9
 460 1131 460 1131 460 1181 c 2,10,-1
 460 1379 l 2,11,12
 460 1429 460 1429 410 1429 c 2,0,-1
404 1000 m 2,13,-1
 246 1000 l 2,14,15
 50 1000 50 1000 50 1194 c 2,16,-1
 50 1366 l 2,17,18
 50 1560 50 1560 246 1560 c 2,19,-1
 404 1560 l 2,20,21
 600 1560 600 1560 600 1366 c 2,22,-1
 600 1194 l 2,23,24
 600 1000 600 1000 404 1000 c 2,13,-1
EndSplineSet
Validated: 1
EndChar

StartChar: plusminus
Encoding: 177 177 113
Width: 1200
GlyphClass: 2
Flags: W
HStem: 275 150<216 984> 858 150<216 525 675 984>
VStem: 525 150<549 858 1008 1317>
LayerCount: 2
Fore
SplineSet
216 425 m 1,0,-1
 1050 425 l 1,1,-1
 1050 415 l 1,2,-1
 984 275 l 1,3,-1
 150 275 l 1,4,-1
 150 285 l 1,5,-1
 216 425 l 1,0,-1
525 1317 m 1,6,-1
 665 1383 l 1,7,-1
 675 1383 l 1,8,-1
 675 1008 l 1,9,-1
 1050 1008 l 1,10,-1
 1050 998 l 1,11,-1
 984 858 l 1,12,-1
 675 858 l 1,13,-1
 675 549 l 1,14,-1
 535 483 l 1,15,-1
 525 483 l 1,16,-1
 525 858 l 1,17,-1
 150 858 l 1,18,-1
 150 868 l 1,19,-1
 216 1008 l 1,20,-1
 525 1008 l 1,21,-1
 525 1317 l 1,6,-1
EndSplineSet
Validated: 1
EndChar

StartChar: uni00B2
Encoding: 178 178 114
Width: 651
VWidth: 1406
GlyphClass: 2
Flags: W
HStem: 765 131<286 554> 1429 131<208.016 444.988>
VStem: 64 140<1341 1426.27> 449 140<1179.49 1424.74>
DStem2: 94 888 286 896 0.74724 0.664554<148.787 506.054>
LayerCount: 2
Fore
SplineSet
274 1560 m 2,0,-1
 394 1560 l 2,1,2
 589 1560 589 1560 589 1370 c 2,3,-1
 589 1309 l 2,4,5
 589 1165 589 1165 455 1046 c 2,6,-1
 286 896 l 1,7,-1
 601 896 l 1,8,-1
 601 886 l 1,9,-1
 554 765 l 1,10,-1
 50 765 l 1,11,-1
 50 775 l 1,12,-1
 94 888 l 1,13,-1
 338 1105 l 2,14,15
 449 1204 449 1204 449 1304 c 2,16,-1
 449 1379 l 2,17,18
 449 1429 449 1429 399 1429 c 2,19,-1
 254 1429 l 2,20,21
 204 1429 204 1429 204 1379 c 2,22,-1
 204 1341 l 1,23,-1
 74 1283 l 1,24,-1
 64 1283 l 1,25,-1
 64 1365 l 2,26,27
 64 1560 64 1560 274 1560 c 2,0,-1
EndSplineSet
Validated: 1
EndChar

StartChar: uni00B3
Encoding: 179 179 115
Width: 631
VWidth: 1396
GlyphClass: 2
Flags: W
HStem: 765 131<194.012 436.988> 1151 129<402 439.015> 1429 131<153 340>
VStem: 50 140<896.371 981> 441 140<898.043 1148.53>
LayerCount: 2
Fore
SplineSet
153 1560 m 1,0,-1
 563 1560 l 1,1,-1
 402 1280 l 1,2,3
 581 1271 581 1271 581 1085 c 2,4,-1
 581 959 l 2,5,6
 581 765 581 765 386 765 c 2,7,-1
 245 765 l 2,8,9
 50 765 50 765 50 964 c 2,10,-1
 50 981 l 1,11,-1
 180 1030 l 1,12,-1
 190 1030 l 1,13,-1
 190 946 l 2,14,15
 190 896 190 896 240 896 c 2,16,-1
 391 896 l 2,17,18
 441 896 441 896 441 946 c 2,19,-1
 441 1101 l 2,20,21
 441 1151 441 1151 391 1151 c 2,22,-1
 248 1151 l 1,23,-1
 214 1193 l 1,24,-1
 340 1429 l 1,25,-1
 106 1429 l 1,26,-1
 106 1440 l 1,27,-1
 153 1560 l 1,0,-1
EndSplineSet
Validated: 1
EndChar

StartChar: acute
Encoding: 180 180 116
Width: 377
GlyphClass: 2
Flags: W
HStem: 1160 367
VStem: 50 277
DStem2: 50 1216 178 1160 0.427336 0.904093<4.06987 343.991>
LayerCount: 2
Fore
SplineSet
207 1527 m 1,0,-1
 327 1470 l 1,1,-1
 178 1160 l 1,2,-1
 168 1160 l 1,3,-1
 50 1216 l 1,4,-1
 197 1527 l 1,5,-1
 207 1527 l 1,0,-1
EndSplineSet
Validated: 1
EndChar

StartChar: uni00B5
Encoding: 181 181 117
Width: 1190
GlyphClass: 2
Flags: W
HStem: -430 21G<180 231.975> 0 160<368.355 817.979> 1100 20G<308.025 360 958.025 1010>
VStem: 180 180<-349 11 167.932 1039> 830 180<170.898 1039>
LayerCount: 2
Fore
SplineSet
730 0 m 2,0,-1
 460 0 l 2,1,2
 404 0 404 0 360 11 c 1,3,-1
 360 -349 l 1,4,-1
 190 -430 l 1,5,-1
 180 -430 l 1,6,-1
 180 1039 l 1,7,-1
 350 1120 l 1,8,-1
 360 1120 l 1,9,-1
 360 250 l 2,10,11
 360 160 360 160 450 160 c 2,12,-1
 740 160 l 2,13,14
 830 160 830 160 830 250 c 2,15,-1
 830 1039 l 1,16,-1
 1000 1120 l 1,17,-1
 1010 1120 l 1,18,-1
 1010 280 l 2,19,20
 1010 0 1010 0 730 0 c 2,0,-1
EndSplineSet
Validated: 1
EndChar

StartChar: paragraph
Encoding: 182 182 118
Width: 1180
GlyphClass: 2
Flags: W
HStem: -20 21G<780 832.857> 1490 20G<290 840>
VStem: 780 70<8 555> 914 66<70 1140>
LayerCount: 2
Fore
SplineSet
790 -20 m 1,0,-1
 780 -20 l 1,1,-1
 780 555 l 1,2,3
 742 548 742 548 700 548 c 2,4,-1
 430 548 l 2,5,6
 150 548 150 548 150 828 c 2,7,-1
 150 1230 l 2,8,9
 150 1510 150 1510 430 1510 c 2,10,-1
 700 1510 l 2,11,12
 980 1510 980 1510 980 1230 c 2,13,-1
 980 70 l 1,14,-1
 914 39 l 1,15,-1
 914 1140 l 1,16,-1
 850 1110 l 1,17,-1
 850 8 l 1,18,-1
 790 -20 l 1,0,-1
EndSplineSet
Validated: 1
EndChar

StartChar: periodcentered
Encoding: 183 183 119
Width: 340
GlyphClass: 2
Flags: W
HStem: 632 245<86.0974 253.903>
VStem: 50 240<669.129 839.871>
LayerCount: 2
Fore
SplineSet
170 877 m 128,-1,1
 220 877 220 877 255 841 c 128,-1,2
 290 805 290 805 290 754.5 c 128,-1,3
 290 704 290 704 255 668 c 128,-1,4
 220 632 220 632 170 632 c 128,-1,5
 120 632 120 632 85 668 c 128,-1,6
 50 704 50 704 50 754.5 c 128,-1,7
 50 805 50 805 85 841 c 128,-1,0
 120 877 120 877 170 877 c 128,-1,1
EndSplineSet
Validated: 1
EndChar

StartChar: cedilla
Encoding: 184 184 120
Width: 420
GlyphClass: 2
Flags: W
HStem: -410 130<107 197.422>
VStem: 156 103<-61.7314 0> 222 148<-257.261 -86.9303>
LayerCount: 2
Fore
SplineSet
50 -410 m 1,0,-1
 50 -400 l 1,1,-1
 107 -280 l 1,2,3
 222 -264 222 -264 222 -173 c 0,4,5
 222 -100 222 -100 156 -76 c 1,6,-1
 156 0 l 1,7,-1
 259 0 l 1,8,-1
 259 -40 l 1,9,10
 370 -83 370 -83 370 -187 c 0,11,12
 370 -410 370 -410 50 -410 c 1,0,-1
EndSplineSet
Validated: 1
EndChar

StartChar: uni00B9
Encoding: 185 185 121
Width: 412
VWidth: 1401
GlyphClass: 2
Flags: W
VStem: 172 140<787 1380>
LayerCount: 2
Fore
SplineSet
302 1570 m 1,0,-1
 312 1570 l 1,1,-1
 312 787 l 1,2,-1
 182 736 l 1,3,-1
 172 736 l 1,4,-1
 172 1380 l 1,5,-1
 50 1322 l 1,6,-1
 50 1460 l 1,7,-1
 302 1570 l 1,0,-1
EndSplineSet
Validated: 1
EndChar

StartChar: ordmasculine
Encoding: 186 186 122
Width: 554
GlyphClass: 2
Flags: W
HStem: 790 120<102 452> 969 121<181.406 372.594> 1439 121<181.406 372.594>
VStem: 50 130<1091.5 1437.5> 374 130<1091.5 1437.5>
LayerCount: 2
Fore
SplineSet
180 1414 m 2,0,-1
 180 1115 l 2,1,2
 180 1090 180 1090 204 1090 c 2,3,-1
 350 1090 l 2,4,5
 374 1090 374 1090 374 1115 c 2,6,-1
 374 1414 l 2,7,8
 374 1439 374 1439 350 1439 c 2,9,-1
 204 1439 l 2,10,11
 180 1439 180 1439 180 1414 c 2,0,-1
210 1560 m 2,12,-1
 344 1560 l 2,13,14
 504 1560 504 1560 504 1400 c 2,15,-1
 504 1129 l 2,16,17
 504 969 504 969 344 969 c 2,18,-1
 210 969 l 2,19,20
 50 969 50 969 50 1129 c 2,21,-1
 50 1400 l 2,22,23
 50 1560 50 1560 210 1560 c 2,12,-1
50 790 m 1,24,-1
 50 800 l 1,25,-1
 102 910 l 1,26,-1
 504 910 l 1,27,-1
 504 900 l 1,28,-1
 452 790 l 1,29,-1
 50 790 l 1,24,-1
EndSplineSet
Validated: 1
EndChar

StartChar: guillemotright
Encoding: 187 187 123
Width: 1100
GlyphClass: 2
Flags: W
VStem: 426 172<669 841> 778 172<669 841>
DStem2: 338 1197 200 1136 0.50702 -0.861934<0 425.593> 200 374 338 313 0.50702 0.861934<17.3908 442.983> 690 1197 552 1136 0.50702 -0.861934<0 425.593> 552 374 690 313 0.50702 0.861934<17.3908 442.983>
LayerCount: 2
Fore
SplineSet
598 755 m 1,0,-1
 338 313 l 1,1,-1
 328 313 l 1,2,-1
 200 374 l 1,3,-1
 426 755 l 1,4,-1
 200 1136 l 1,5,-1
 328 1197 l 1,6,-1
 338 1197 l 1,7,-1
 598 755 l 1,0,-1
950 755 m 1,8,-1
 690 313 l 1,9,-1
 680 313 l 1,10,-1
 552 374 l 1,11,-1
 778 755 l 1,12,-1
 552 1136 l 1,13,-1
 680 1197 l 1,14,-1
 690 1197 l 1,15,-1
 950 755 l 1,8,-1
EndSplineSet
Validated: 1
EndChar

StartChar: onequarter
Encoding: 188 188 124
Width: 1572
VWidth: 1401
GlyphClass: 2
Flags: W
HStem: -20 21G<413.032 473.341 1206 1266.98> 180 131<1043 1206 1346 1375> 1510 20G<356.182 412 1011.67 1072.29>
VStem: 272 140<747 1340> 1206 140<31 180 311 550>
DStem2: 327 42 464 -20 0.423185 0.906043<1.80173 1641.88> 820 190 1043 311 0.562937 0.8265<225.541 514.834>
LayerCount: 2
Fore
SplineSet
454 -20 m 1,0,-1
 327 42 l 1,1,-1
 1021 1530 l 1,2,-1
 1031 1530 l 1,3,-1
 1159 1468 l 1,4,-1
 464 -20 l 1,5,-1
 454 -20 l 1,0,-1
402 1530 m 1,6,-1
 412 1530 l 1,7,-1
 412 747 l 1,8,-1
 282 696 l 1,9,-1
 272 696 l 1,10,-1
 272 1340 l 1,11,-1
 150 1282 l 1,12,-1
 150 1420 l 1,13,-1
 402 1530 l 1,6,-1
1043 311 m 1,14,-1
 1206 311 l 1,15,-1
 1206 550 l 1,16,-1
 1043 311 l 1,14,-1
1216 -20 m 1,17,-1
 1206 -20 l 1,18,-1
 1206 180 l 1,19,-1
 820 180 l 1,20,-1
 820 190 l 1,21,-1
 1213 767 l 1,22,-1
 1336 815 l 1,23,-1
 1346 815 l 1,24,-1
 1346 311 l 1,25,-1
 1422 311 l 1,26,-1
 1422 301 l 1,27,-1
 1375 180 l 1,28,-1
 1346 180 l 1,29,-1
 1346 31 l 1,30,-1
 1216 -20 l 1,17,-1
EndSplineSet
Validated: 1
EndChar

StartChar: onehalf
Encoding: 189 189 125
Width: 1718
VWidth: 1401
GlyphClass: 2
Flags: W
HStem: -20 21G<413.032 473.341> 0 131<1253 1521> 664 131<1175.02 1411.99> 1510 20G<356.182 412 1011.67 1072.29>
VStem: 272 140<747 1340> 1031 140<576 661.271> 1416 140<414.493 659.736>
DStem2: 327 42 464 -20 0.423185 0.906043<1.80173 1641.88> 1061 123 1253 131 0.74724 0.664554<148.787 506.054>
LayerCount: 2
Fore
SplineSet
1521 0 m 1,0,-1
 1017 0 l 1,1,-1
 1017 10 l 1,2,-1
 1061 123 l 1,3,-1
 1305 340 l 2,4,5
 1416 439 1416 439 1416 539 c 2,6,-1
 1416 614 l 2,7,8
 1416 664 1416 664 1366 664 c 2,9,-1
 1221 664 l 2,10,11
 1171 664 1171 664 1171 614 c 2,12,-1
 1171 576 l 1,13,-1
 1041 518 l 1,14,-1
 1031 518 l 1,15,-1
 1031 600 l 2,16,17
 1031 795 1031 795 1241 795 c 2,18,-1
 1361 795 l 2,19,20
 1556 795 1556 795 1556 605 c 2,21,-1
 1556 544 l 2,22,23
 1556 400 1556 400 1422 281 c 2,24,-1
 1253 131 l 1,25,-1
 1568 131 l 1,26,-1
 1568 121 l 1,27,-1
 1521 0 l 1,0,-1
454 -20 m 1,28,-1
 327 42 l 1,29,-1
 1021 1530 l 1,30,-1
 1031 1530 l 1,31,-1
 1159 1468 l 1,32,-1
 464 -20 l 1,33,-1
 454 -20 l 1,28,-1
402 1530 m 1,34,-1
 412 1530 l 1,35,-1
 412 747 l 1,36,-1
 282 696 l 1,37,-1
 272 696 l 1,38,-1
 272 1340 l 1,39,-1
 150 1282 l 1,40,-1
 150 1420 l 1,41,-1
 402 1530 l 1,34,-1
EndSplineSet
Validated: 1
EndChar

StartChar: threequarters
Encoding: 190 190 126
Width: 1796
VWidth: 1401
GlyphClass: 2
Flags: W
HStem: -20 21G<637.032 697.341 1430 1490.98> 180 131<1267 1430 1570 1599> 735 131<294.012 536.988> 1121 129<502 539.015> 1399 131<253 440>
VStem: 150 140<866.371 951> 541 140<868.043 1118.53> 1430 140<31 180 311 550>
DStem2: 551 42 688 -20 0.423185 0.906043<1.80173 1641.88> 1044 190 1267 311 0.562937 0.8265<225.541 514.834>
LayerCount: 2
Fore
SplineSet
253 1530 m 1,0,-1
 663 1530 l 1,1,-1
 502 1250 l 1,2,3
 681 1241 681 1241 681 1055 c 2,4,-1
 681 929 l 2,5,6
 681 735 681 735 486 735 c 2,7,-1
 345 735 l 2,8,9
 150 735 150 735 150 934 c 2,10,-1
 150 951 l 1,11,-1
 280 1000 l 1,12,-1
 290 1000 l 1,13,-1
 290 916 l 2,14,15
 290 866 290 866 340 866 c 2,16,-1
 491 866 l 2,17,18
 541 866 541 866 541 916 c 2,19,-1
 541 1071 l 2,20,21
 541 1121 541 1121 491 1121 c 2,22,-1
 348 1121 l 1,23,-1
 314 1163 l 1,24,-1
 440 1399 l 1,25,-1
 206 1399 l 1,26,-1
 206 1410 l 1,27,-1
 253 1530 l 1,0,-1
678 -20 m 1,28,-1
 551 42 l 1,29,-1
 1245 1530 l 1,30,-1
 1255 1530 l 1,31,-1
 1383 1468 l 1,32,-1
 688 -20 l 1,33,-1
 678 -20 l 1,28,-1
1267 311 m 1,34,-1
 1430 311 l 1,35,-1
 1430 550 l 1,36,-1
 1267 311 l 1,34,-1
1440 -20 m 1,37,-1
 1430 -20 l 1,38,-1
 1430 180 l 1,39,-1
 1044 180 l 1,40,-1
 1044 190 l 1,41,-1
 1437 767 l 1,42,-1
 1560 815 l 1,43,-1
 1570 815 l 1,44,-1
 1570 311 l 1,45,-1
 1646 311 l 1,46,-1
 1646 301 l 1,47,-1
 1599 180 l 1,48,-1
 1570 180 l 1,49,-1
 1570 31 l 1,50,-1
 1440 -20 l 1,37,-1
EndSplineSet
Validated: 1
EndChar

StartChar: questiondown
Encoding: 191 191 127
Width: 1270
GlyphClass: 2
Flags: W
HStem: -410 180<381.055 888.066> 875 245<591.097 758.903>
VStem: 150 200<-196.377 203.305> 555 240<912.129 1082.87> 569 203<542.324 646> 920 200<-196.377 -27>
LayerCount: 2
Fore
SplineSet
740 -410 m 2,0,1
 500 -410 l 2,2,3
 150 -410 150 -410 150 -60 c 2,4,-1
 150 30 l 2,5,6
 150 344 150 344 479 509 c 0,7,8
 569 554 569 554 569 646 c 1,9,-1
 762 739 l 1,10,-1
 772 739 l 1,11,12
 772 462 772 462 562 357 c 0,13,14
 350 250 350 250 350 28 c 2,15,-1
 350 -90 l 2,16,17
 350 -230 350 -230 490 -230 c 2,18,-1
 780 -230 l 2,19,20
 920 -230 920 -230 920 -90 c 2,21,-1
 920 -27 l 1,22,-1
 1110 64 l 1,23,-1
 1120 64 l 1,24,-1
 1120 -60 l 2,25,26
 1120 -410 1120 -410 740 -410 c 2,0,1
675 1120 m 128,-1,28
 725 1120 725 1120 760 1084 c 128,-1,29
 795 1048 795 1048 795 997.5 c 128,-1,30
 795 947 795 947 760 911 c 128,-1,31
 725 875 725 875 675 875 c 128,-1,32
 625 875 625 875 590 911 c 128,-1,33
 555 947 555 947 555 997.5 c 128,-1,34
 555 1048 555 1048 590 1084 c 128,-1,27
 625 1120 625 1120 675 1120 c 128,-1,28
EndSplineSet
Validated: 1
EndChar

StartChar: endash
Encoding: 8211 8211 128
Width: 1200
GlyphClass: 2
Flags: W
HStem: 680 150<216 984>
LayerCount: 2
Fore
SplineSet
216 830 m 5,0,-1
 1050 830 l 5,1,-1
 1050 820 l 5,2,-1
 984 680 l 5,3,-1
 150 680 l 5,4,-1
 150 690 l 5,5,-1
 216 830 l 5,0,-1
EndSplineSet
Validated: 1
EndChar

StartChar: emdash
Encoding: 8212 8212 129
Width: 1500
GlyphClass: 2
Flags: W
HStem: 680 150<216 1284>
LayerCount: 2
Fore
SplineSet
216 830 m 1,0,-1
 1350 830 l 1,1,-1
 1350 820 l 1,2,-1
 1284 680 l 1,3,-1
 150 680 l 1,4,-1
 150 690 l 1,5,-1
 216 830 l 1,0,-1
EndSplineSet
Validated: 1
EndChar

StartChar: afii00208
Encoding: 8213 8213 130
Width: 1500
GlyphClass: 2
Flags: W
HStem: 680 150<216 1284>
LayerCount: 2
Fore
SplineSet
216 830 m 1,0,-1
 1350 830 l 1,1,-1
 1350 820 l 1,2,-1
 1284 680 l 1,3,-1
 150 680 l 1,4,-1
 150 690 l 1,5,-1
 216 830 l 1,0,-1
EndSplineSet
Validated: 1
EndChar

StartChar: quoteleft
Encoding: 8216 8216 131
Width: 389
GlyphClass: 2
Flags: W
HStem: 1046 554
VStem: 50 155<1202.44 1446.68>
LayerCount: 2
Fore
SplineSet
275 1600 m 1,0,-1
 282 1593 l 1,1,2
 205 1463 205 1463 205 1334 c 128,-1,3
 205 1205 205 1205 339 1126 c 1,4,-1
 169 1046 l 1,5,-1
 159 1046 l 1,6,7
 50 1153 50 1153 50 1290 c 0,8,9
 50 1487 50 1487 275 1600 c 1,0,-1
EndSplineSet
Validated: 1
EndChar

StartChar: quoteright
Encoding: 8217 8217 132
Width: 389
GlyphClass: 2
Flags: W
HStem: 1046 554
VStem: 184 155<1199.32 1443.56>
LayerCount: 2
Fore
SplineSet
220 1600 m 1,0,-1
 230 1600 l 1,1,2
 339 1493 339 1493 339 1356 c 0,3,4
 339 1159 339 1159 114 1046 c 1,5,-1
 107 1053 l 1,6,7
 184 1183 184 1183 184 1312 c 128,-1,8
 184 1441 184 1441 50 1520 c 1,9,-1
 220 1600 l 1,0,-1
EndSplineSet
Validated: 1
EndChar

StartChar: quotesinglbase
Encoding: 8218 8218 133
Width: 389
GlyphClass: 2
Flags: W
HStem: -276 554
VStem: 184 155<-122.682 121.561>
LayerCount: 2
Fore
SplineSet
220 278 m 1,0,-1
 230 278 l 1,1,2
 339 171 339 171 339 34 c 0,3,4
 339 -163 339 -163 114 -276 c 1,5,-1
 107 -269 l 1,6,7
 184 -139 184 -139 184 -10 c 128,-1,8
 184 119 184 119 50 198 c 1,9,-1
 220 278 l 1,0,-1
EndSplineSet
Validated: 1
EndChar

StartChar: quotereversed
Encoding: 8219 8219 134
Width: 389
GlyphClass: 2
Flags: W
HStem: 1046 554
VStem: 50 155<1199.32 1443.56>
LayerCount: 2
Fore
SplineSet
169 1600 m 1,0,-1
 339 1520 l 1,1,2
 205 1441 205 1441 205 1312 c 128,-1,3
 205 1183 205 1183 282 1053 c 1,4,-1
 275 1046 l 1,5,6
 50 1159 50 1159 50 1356 c 0,7,8
 50 1493 50 1493 159 1600 c 1,9,-1
 169 1600 l 1,0,-1
EndSplineSet
Validated: 1
EndChar

StartChar: quotedblleft
Encoding: 8220 8220 135
Width: 688
GlyphClass: 2
Flags: W
HStem: 1046 554
VStem: 50 155<1202.44 1446.68> 349 155<1202.44 1446.68>
LayerCount: 2
Fore
SplineSet
275 1600 m 1,0,-1
 282 1593 l 1,1,2
 205 1463 205 1463 205 1334 c 128,-1,3
 205 1205 205 1205 339 1126 c 1,4,-1
 169 1046 l 1,5,-1
 159 1046 l 1,6,7
 50 1153 50 1153 50 1290 c 0,8,9
 50 1487 50 1487 275 1600 c 1,0,-1
574 1600 m 1,10,-1
 581 1593 l 1,11,12
 504 1463 504 1463 504 1334 c 128,-1,13
 504 1205 504 1205 638 1126 c 1,14,-1
 468 1046 l 1,15,-1
 458 1046 l 1,16,17
 349 1153 349 1153 349 1290 c 0,18,19
 349 1487 349 1487 574 1600 c 1,10,-1
EndSplineSet
Validated: 1
EndChar

StartChar: quotedblright
Encoding: 8221 8221 136
Width: 688
GlyphClass: 2
Flags: W
HStem: 1046 554
VStem: 184 155<1199.32 1443.56> 483 155<1199.32 1443.56>
LayerCount: 2
Fore
SplineSet
519 1600 m 1,0,-1
 529 1600 l 1,1,2
 638 1493 638 1493 638 1356 c 0,3,4
 638 1159 638 1159 413 1046 c 1,5,-1
 406 1053 l 1,6,7
 483 1183 483 1183 483 1312 c 128,-1,8
 483 1441 483 1441 349 1520 c 1,9,-1
 519 1600 l 1,0,-1
220 1600 m 1,10,-1
 230 1600 l 1,11,12
 339 1493 339 1493 339 1356 c 0,13,14
 339 1159 339 1159 114 1046 c 1,15,-1
 107 1053 l 1,16,17
 184 1183 184 1183 184 1312 c 128,-1,18
 184 1441 184 1441 50 1520 c 1,19,-1
 220 1600 l 1,10,-1
EndSplineSet
Validated: 1
EndChar

StartChar: quotedblbase
Encoding: 8222 8222 137
Width: 688
GlyphClass: 2
Flags: W
HStem: -276 554
VStem: 184 155<-122.682 121.561> 483 155<-122.682 121.561>
LayerCount: 2
Fore
SplineSet
519 278 m 1,0,-1
 529 278 l 1,1,2
 638 171 638 171 638 34 c 0,3,4
 638 -163 638 -163 413 -276 c 1,5,-1
 406 -269 l 1,6,7
 483 -139 483 -139 483 -10 c 128,-1,8
 483 119 483 119 349 198 c 1,9,-1
 519 278 l 1,0,-1
220 278 m 1,10,-1
 230 278 l 1,11,12
 339 171 339 171 339 34 c 0,13,14
 339 -163 339 -163 114 -276 c 1,15,-1
 107 -269 l 1,16,17
 184 -139 184 -139 184 -10 c 128,-1,18
 184 119 184 119 50 198 c 1,19,-1
 220 278 l 1,10,-1
EndSplineSet
Validated: 1
EndChar

StartChar: dagger
Encoding: 8224 8224 138
Width: 1214
GlyphClass: 2
Flags: W
HStem: -20 21G<507 559.222> 998 180<230 507 707 984> 1510 20G<654.778 707>
VStem: 507 200<70 998 1178 1440>
LayerCount: 2
Fore
SplineSet
517 -20 m 1,0,-1
 507 -20 l 1,1,-1
 507 998 l 1,2,-1
 150 998 l 1,3,-1
 150 1008 l 1,4,-1
 230 1178 l 1,5,-1
 507 1178 l 1,6,-1
 507 1440 l 1,7,-1
 697 1530 l 1,8,-1
 707 1530 l 1,9,-1
 707 1178 l 1,10,-1
 1064 1178 l 1,11,-1
 1064 1168 l 1,12,-1
 984 998 l 1,13,-1
 707 998 l 1,14,-1
 707 70 l 1,15,-1
 517 -20 l 1,0,-1
EndSplineSet
Validated: 1
EndChar

StartChar: daggerdbl
Encoding: 8225 8225 139
Width: 1214
GlyphClass: 2
Flags: W
HStem: -20 21G<507 559.222> 332 180<230 507 707 984> 998 180<230 507 707 984> 1510 20G<654.778 707>
VStem: 507 200<70 332 512 998 1178 1440>
LayerCount: 2
Fore
SplineSet
517 -20 m 1,0,-1
 507 -20 l 1,1,-1
 507 332 l 1,2,-1
 150 332 l 1,3,-1
 150 342 l 1,4,-1
 230 512 l 1,5,-1
 507 512 l 1,6,-1
 507 998 l 1,7,-1
 150 998 l 1,8,-1
 150 1008 l 1,9,-1
 230 1178 l 1,10,-1
 507 1178 l 1,11,-1
 507 1440 l 1,12,-1
 697 1530 l 1,13,-1
 707 1530 l 1,14,-1
 707 1178 l 1,15,-1
 1064 1178 l 1,16,-1
 1064 1168 l 1,17,-1
 984 998 l 1,18,-1
 707 998 l 1,19,-1
 707 512 l 1,20,-1
 1064 512 l 1,21,-1
 1064 502 l 1,22,-1
 984 332 l 1,23,-1
 707 332 l 1,24,-1
 707 70 l 1,25,-1
 517 -20 l 1,0,-1
EndSplineSet
Validated: 1
EndChar

StartChar: bullet
Encoding: 8226 8226 140
Width: 900
GlyphClass: 2
Flags: W
HStem: 450 610<205.316 694.684>
VStem: 150 600<504.752 1005.25>
LayerCount: 2
Fore
SplineSet
346 1060 m 2,0,-1
 554 1060 l 2,1,2
 750 1060 750 1060 750 866 c 2,3,-1
 750 644 l 2,4,5
 750 450 750 450 554 450 c 2,6,-1
 346 450 l 2,7,8
 150 450 150 450 150 644 c 2,9,-1
 150 866 l 2,10,11
 150 1060 150 1060 346 1060 c 2,0,-1
EndSplineSet
Validated: 1
EndChar

StartChar: ellipsis
Encoding: 8230 8230 141
Width: 1012
GlyphClass: 2
Flags: W
HStem: -20 245<86.0974 253.903 422.097 589.903 758.097 925.903>
VStem: 50 240<17.1285 187.871> 386 240<17.1285 187.871> 722 240<17.1285 187.871>
CounterMasks: 1 70
LayerCount: 2
Fore
SplineSet
842 -20 m 128,-1,1
 792 -20 792 -20 757 16 c 128,-1,2
 722 52 722 52 722 102.5 c 128,-1,3
 722 153 722 153 757 189 c 128,-1,4
 792 225 792 225 842 225 c 128,-1,5
 892 225 892 225 927 189 c 128,-1,6
 962 153 962 153 962 102.5 c 128,-1,7
 962 52 962 52 927 16 c 128,-1,0
 892 -20 892 -20 842 -20 c 128,-1,1
506 -20 m 128,-1,9
 456 -20 456 -20 421 16 c 128,-1,10
 386 52 386 52 386 102.5 c 128,-1,11
 386 153 386 153 421 189 c 128,-1,12
 456 225 456 225 506 225 c 128,-1,13
 556 225 556 225 591 189 c 128,-1,14
 626 153 626 153 626 102.5 c 128,-1,15
 626 52 626 52 591 16 c 128,-1,8
 556 -20 556 -20 506 -20 c 128,-1,9
170 -20 m 128,-1,17
 120 -20 120 -20 85 16 c 128,-1,18
 50 52 50 52 50 102.5 c 128,-1,19
 50 153 50 153 85 189 c 128,-1,20
 120 225 120 225 170 225 c 128,-1,21
 220 225 220 225 255 189 c 128,-1,22
 290 153 290 153 290 102.5 c 128,-1,23
 290 52 290 52 255 16 c 128,-1,16
 220 -20 220 -20 170 -20 c 128,-1,17
EndSplineSet
Validated: 1
EndChar

StartChar: perthousand
Encoding: 8240 8240 142
Width: 2220
GlyphClass: 2
Flags: W
HStem: -20 21G<444.032 504.341> 0 131<941.751 1252.25 1614.75 1925.25> 479 131<941.751 1252.25 1614.75 1925.25> 900 131<294.751 605.249> 1379 131<294.751 605.249> 1510 20G<1042.67 1103.29>
VStem: 150 140<1033.04 1376.96> 610 140<1033.04 1376.96> 797 140<133.043 476.957> 1257 140<133.043 476.957> 1470 140<133.043 476.957> 1930 140<133.043 476.957>
DStem2: 358 42 495 -20 0.423185 0.906043<1.80173 1641.88>
LayerCount: 2
Fore
SplineSet
1660 131 m 2,0,-1
 1880 131 l 2,1,2
 1930 131 1930 131 1930 181 c 2,3,-1
 1930 429 l 2,4,5
 1930 479 1930 479 1880 479 c 2,6,7
 1660 479 l 2,8,9
 1610 479 1610 479 1610 429 c 2,10,-1
 1610 181 l 2,11,12
 1610 131 1610 131 1660 131 c 2,0,-1
1874 0 m 2,13,-1
 1666 0 l 2,14,15
 1470 0 1470 0 1470 194 c 2,16,-1
 1470 416 l 2,17,18
 1470 610 1470 610 1666 610 c 2,19,-1
 1874 610 l 2,20,21
 2070 610 2070 610 2070 416 c 2,22,-1
 2070 194 l 2,23,24
 2070 0 2070 0 1874 0 c 2,13,-1
987 131 m 2,25,-1
 1207 131 l 2,26,27
 1257 131 1257 131 1257 181 c 2,28,-1
 1257 429 l 2,29,30
 1257 479 1257 479 1207 479 c 2,31,-1
 987 479 l 2,32,33
 937 479 937 479 937 429 c 2,34,-1
 937 181 l 2,35,36
 937 131 937 131 987 131 c 2,25,-1
1201 0 m 2,37,-1
 993 0 l 2,38,39
 797 0 797 0 797 194 c 2,40,-1
 797 416 l 2,41,42
 797 610 797 610 993 610 c 2,43,-1
 1201 610 l 2,44,45
 1397 610 1397 610 1397 416 c 2,46,-1
 1397 194 l 2,47,48
 1397 0 1397 0 1201 0 c 2,37,-1
560 1379 m 2,49,-1
 340 1379 l 2,50,51
 290 1379 290 1379 290 1329 c 2,52,-1
 290 1081 l 2,53,54
 290 1031 290 1031 340 1031 c 2,55,-1
 560 1031 l 2,56,57
 610 1031 610 1031 610 1081 c 2,58,-1
 610 1329 l 2,59,60
 610 1379 610 1379 560 1379 c 2,49,-1
346 1510 m 2,61,-1
 554 1510 l 2,62,63
 750 1510 750 1510 750 1316 c 2,64,-1
 750 1094 l 2,65,66
 750 900 750 900 554 900 c 2,67,-1
 346 900 l 2,68,69
 150 900 150 900 150 1094 c 2,70,-1
 150 1316 l 2,71,72
 150 1510 150 1510 346 1510 c 2,61,-1
485 -20 m 1,73,-1
 358 42 l 1,74,-1
 1052 1530 l 1,75,-1
 1062 1530 l 1,76,-1
 1190 1468 l 1,77,-1
 495 -20 l 1,78,-1
 485 -20 l 1,73,-1
EndSplineSet
Validated: 1
EndChar

StartChar: minute
Encoding: 8242 8242 143
Width: 414
GlyphClass: 2
Flags: W
HStem: 1201 399
VStem: 50 314
LayerCount: 2
Fore
SplineSet
201 1600 m 1,0,-1
 211 1600 l 1,1,-1
 364 1527 l 1,2,-1
 154 1201 l 1,3,-1
 144 1201 l 1,4,-1
 50 1245 l 1,5,-1
 201 1600 l 1,0,-1
EndSplineSet
Validated: 1
EndChar

StartChar: second
Encoding: 8243 8243 144
Width: 667
GlyphClass: 2
Flags: W
HStem: 1201 399
VStem: 50 567
LayerCount: 2
Fore
SplineSet
454 1600 m 1,0,-1
 464 1600 l 1,1,-1
 617 1527 l 1,2,-1
 407 1201 l 1,3,-1
 397 1201 l 1,4,-1
 303 1245 l 1,5,-1
 454 1600 l 1,0,-1
201 1600 m 1,6,-1
 211 1600 l 1,7,-1
 364 1527 l 1,8,-1
 154 1201 l 1,9,-1
 144 1201 l 1,10,-1
 50 1245 l 1,11,-1
 201 1600 l 1,6,-1
EndSplineSet
Validated: 1
EndChar

StartChar: guilsinglleft
Encoding: 8249 8249 145
Width: 748
GlyphClass: 2
Flags: W
VStem: 150 172<669 841>
DStem2: 322 755 150 755 0.50702 -0.861934<0 425.593> 150 755 322 755 0.50702 0.861934<87.2075 512.8>
LayerCount: 2
Fore
SplineSet
150 755 m 1,0,-1
 410 1197 l 1,1,-1
 420 1197 l 1,2,-1
 548 1136 l 1,3,-1
 322 755 l 1,4,-1
 548 374 l 1,5,-1
 420 313 l 1,6,-1
 410 313 l 1,7,-1
 150 755 l 1,0,-1
EndSplineSet
Validated: 1
EndChar

StartChar: guilsinglright
Encoding: 8250 8250 146
Width: 798
GlyphClass: 2
Flags: W
VStem: 426 172<669 841>
DStem2: 338 1197 200 1136 0.50702 -0.861934<0 425.593> 200 374 338 313 0.50702 0.861934<17.3908 442.983>
LayerCount: 2
Fore
SplineSet
598 755 m 1,0,-1
 338 313 l 1,1,-1
 328 313 l 1,2,-1
 200 374 l 1,3,-1
 426 755 l 1,4,-1
 200 1136 l 1,5,-1
 328 1197 l 1,6,-1
 338 1197 l 1,7,-1
 598 755 l 1,0,-1
EndSplineSet
Validated: 1
EndChar

StartChar: fraction
Encoding: 8260 8260 147
Width: 852
GlyphClass: 2
Flags: W
HStem: -20 21G<96.0323 156.341> 1510 20G<694.672 755.29>
DStem2: 10 42 147 -20 0.423185 0.906043<1.80173 1641.88>
LayerCount: 2
Fore
SplineSet
137 -20 m 1,0,-1
 10 42 l 1,1,-1
 704 1530 l 1,2,-1
 714 1530 l 1,3,-1
 842 1468 l 1,4,-1
 147 -20 l 1,5,-1
 137 -20 l 1,0,-1
EndSplineSet
Validated: 1
EndChar

StartChar: Euro
Encoding: 8364 8364 148
Width: 1400
GlyphClass: 2
Flags: W
HStem: 0 180<491.055 1018.95> 595 120<132 260 460 918> 795 120<132 260 460 918> 1330 180<491.055 1018.95>
VStem: 260 200<213.623 595 715 795 915 1296.38> 1050 200<213.623 383 1152 1300.15>
LayerCount: 2
Fore
SplineSet
610 0 m 2,0,1
 260 0 260 0 260 350 c 2,2,-1
 260 595 l 1,3,-1
 80 595 l 1,4,-1
 80 605 l 1,5,-1
 132 715 l 1,6,-1
 260 715 l 1,7,-1
 260 795 l 1,8,-1
 80 795 l 1,9,-1
 80 805 l 1,10,-1
 132 915 l 1,11,-1
 260 915 l 1,12,-1
 260 1160 l 2,13,14
 260 1510 260 1510 610 1510 c 2,15,-1
 900 1510 l 2,16,17
 1250 1510 1250 1510 1250 1152 c 1,18,-1
 1060 1062 l 1,19,-1
 1050 1062 l 1,20,-1
 1050 1190 l 2,21,22
 1050 1330 1050 1330 910 1330 c 2,23,-1
 600 1330 l 2,24,25
 460 1330 460 1330 460 1190 c 2,26,-1
 460 915 l 1,27,-1
 970 915 l 1,28,-1
 970 905 l 1,29,-1
 918 795 l 1,30,-1
 460 795 l 1,31,-1
 460 715 l 1,32,-1
 970 715 l 1,33,-1
 970 705 l 1,34,-1
 918 595 l 1,35,-1
 460 595 l 1,36,-1
 460 320 l 2,37,38
 460 180 460 180 600 180 c 2,39,-1
 910 180 l 2,40,41
 1050 180 1050 180 1050 320 c 2,42,-1
 1050 383 l 1,43,-1
 1240 474 l 1,44,-1
 1250 474 l 1,45,-1
 1250 350 l 2,46,47
 1250 0 1250 0 900 0 c 2,48,-1
 610 0 l 2,0,1
EndSplineSet
Validated: 1
EndChar

StartChar: afii61248
Encoding: 8453 8453 149
Width: 1613
GlyphClass: 2
Flags: W
HStem: -20 21G<471.032 531.341> 0 131<1061.75 1318.25> 664 131<1061.75 1318.25> 726 131<293.274 540.726> 1390 131<293.274 540.726>
VStem: 150 140<859.043 1387.96> 544 140<859.729 951 1309 1389.63> 917 140<133.043 661.957> 1323 140<133.043 661.957>
DStem2: 385 42 522 -20 0.423185 0.906043<1.80173 1641.88>
LayerCount: 2
Fore
SplineSet
1273 664 m 2,0,-1
 1107 664 l 2,1,2
 1057 664 1057 664 1057 614 c 2,3,-1
 1057 181 l 2,4,5
 1057 131 1057 131 1107 131 c 2,6,7
 1273 131 l 2,8,9
 1323 131 1323 131 1323 181 c 2,10,-1
 1323 614 l 2,11,12
 1323 664 1323 664 1273 664 c 2,0,-1
1267 0 m 2,13,-1
 1113 0 l 2,14,15
 917 0 917 0 917 194 c 2,16,-1
 917 601 l 2,17,18
 917 795 917 795 1113 795 c 2,19,-1
 1267 795 l 2,20,21
 1463 795 1463 795 1463 601 c 2,22,-1
 1463 194 l 2,23,24
 1463 0 1463 0 1267 0 c 2,13,-1
344 1521 m 2,25,-1
 490 1521 l 2,26,27
 684 1521 684 1521 684 1322 c 2,28,-1
 684 1309 l 1,29,-1
 554 1256 l 1,30,-1
 544 1256 l 1,31,-1
 544 1340 l 2,32,33
 544 1390 544 1390 494 1390 c 2,34,-1
 340 1390 l 2,35,36
 290 1390 290 1390 290 1340 c 2,37,-1
 290 907 l 2,38,39
 290 857 290 857 340 857 c 2,40,-1
 494 857 l 2,41,42
 544 857 544 857 544 907 c 2,43,-1
 544 951 l 1,44,-1
 674 1003 l 1,45,-1
 684 1003 l 1,46,-1
 684 921 l 2,47,48
 684 726 684 726 490 726 c 2,49,-1
 344 726 l 2,50,51
 150 726 150 726 150 920 c 2,52,-1
 150 1327 l 2,53,54
 150 1521 150 1521 344 1521 c 2,25,-1
512 -20 m 1,55,-1
 385 42 l 1,56,-1
 1079 1530 l 1,57,-1
 1089 1530 l 1,58,-1
 1217 1468 l 1,59,-1
 522 -20 l 1,60,-1
 512 -20 l 1,55,-1
EndSplineSet
Validated: 1
EndChar

StartChar: afii61289
Encoding: 8467 8467 150
Width: 958
GlyphClass: 2
Flags: W
HStem: -20 136<458.002 574.715> 0 21G<50 263> 1510 20G<632 703>
VStem: 232 155<466 819.618> 655 153<1042.58 1357.48>
LayerCount: 2
Fore
SplineSet
387 466 m 1,0,1
 498 708 498 708 554 860 c 0,2,3
 655 1134 655 1134 655 1359 c 1,4,5
 563 1238 563 1238 503 1067 c 0,6,7
 387 740 387 740 387 466 c 1,0,1
50 0 m 1,8,9
 171 158 171 158 244 282 c 1,10,11
 232 366 232 366 232 443 c 0,12,13
 232 629 232 629 279 848 c 0,14,15
 367 1251 367 1251 517 1434 c 0,16,17
 595 1530 595 1530 669 1530 c 0,18,19
 737 1530 737 1530 772 1479 c 0,20,21
 808 1429 808 1429 808 1318 c 0,22,23
 808 1226 808 1226 778 1072 c 0,24,25
 708 722 708 722 422 271 c 1,26,27
 454 116 454 116 511 116 c 0,28,29
 535 116 535 116 562.5 145 c 128,-1,30
 590 174 590 174 616 228 c 1,31,-1
 792 228 l 1,32,33
 715 100 715 100 650.5 40 c 128,-1,34
 586 -20 586 -20 502 -20 c 0,35,36
 382 -20 382 -20 305 90 c 1,37,-1
 251 0 l 1,38,-1
 50 0 l 1,8,9
EndSplineSet
Validated: 1
EndChar

StartChar: trademark
Encoding: 8482 8482 151
Width: 1778
GlyphClass: 2
Flags: W
HStem: 1400 130<147 313 453 619 822.012 1082.14 1224.8 1483.99>
VStem: 313 140<767 1400> 678 140<769 1395.58> 1083 140<769 1398.8> 1488 140<769 1395.58>
LayerCount: 2
Fore
SplineSet
873 1530 m 2,0,-1
 1028 1530 l 2,1,2
 1106 1530 1106 1530 1153 1497 c 1,3,4
 1202 1530 1202 1530 1278 1530 c 2,5,-1
 1433 1530 l 2,6,7
 1628 1530 1628 1530 1628 1334 c 2,8,-1
 1628 769 l 1,9,-1
 1498 716 l 1,10,-1
 1488 716 l 1,11,-1
 1488 1349 l 2,12,13
 1488 1399 1488 1399 1438 1399 c 2,14,15
 1273 1399 l 2,16,17
 1223 1399 1223 1399 1223 1349 c 2,18,-1
 1223 769 l 1,19,-1
 1093 716 l 1,20,-1
 1083 716 l 1,21,-1
 1083 1349 l 2,22,23
 1083 1399 1083 1399 1033 1399 c 2,24,25
 868 1399 l 2,26,27
 818 1399 818 1399 818 1349 c 2,28,-1
 818 769 l 1,29,-1
 688 716 l 1,30,-1
 678 716 l 1,31,-1
 678 1334 l 2,32,33
 678 1530 678 1530 873 1530 c 2,0,-1
147 1530 m 1,34,-1
 666 1530 l 1,35,-1
 666 1520 l 1,36,-1
 619 1400 l 1,37,-1
 453 1400 l 1,38,-1
 453 767 l 1,39,-1
 323 716 l 1,40,-1
 313 716 l 1,41,-1
 313 1400 l 1,42,-1
 100 1400 l 1,43,-1
 100 1410 l 1,44,-1
 147 1530 l 1,34,-1
EndSplineSet
Validated: 1
EndChar

StartChar: uni2126
Encoding: 8486 8486 152
Width: 1410
GlyphClass: 2
Flags: W
HStem: 0 419<446.792 608 802 963.208> 0 180<280 446 964 1130> 1330 180<431.055 978.945>
VStem: 200 200<451.02 1296.38> 446 162<180 259.323> 802 162<180 259.323> 1010 200<451.02 1296.38>
LayerCount: 2
Fore
SplineSet
608 0 m 1,0,-1
 200 0 l 1,1,-1
 200 10 l 1,2,-1
 280 180 l 1,3,-1
 446 180 l 1,4,-1
 446 248 l 1,5,6
 200 297 200 297 200 589 c 2,7,-1
 200 1160 l 2,8,9
 200 1510 200 1510 550 1510 c 2,10,-1
 860 1510 l 2,11,12
 1210 1510 1210 1510 1210 1160 c 2,13,-1
 1210 589 l 2,14,15
 1210 297 1210 297 964 248 c 1,16,-1
 964 180 l 1,17,-1
 1210 180 l 1,18,-1
 1210 170 l 1,19,-1
 1130 0 l 1,20,-1
 802 0 l 1,21,-1
 802 419 l 1,22,-1
 870 419 l 2,23,24
 1010 419 1010 419 1010 559 c 2,25,-1
 1010 1190 l 2,26,27
 1010 1330 1010 1330 870 1330 c 2,28,-1
 540 1330 l 2,29,30
 400 1330 400 1330 400 1190 c 2,31,-1
 400 559 l 2,32,33
 400 419 400 419 540 419 c 2,34,-1
 608 419 l 1,35,-1
 608 0 l 1,0,-1
EndSplineSet
Validated: 1
EndChar

StartChar: estimated
Encoding: 8494 8494 153
Width: 1330
GlyphClass: 2
Flags: W
HStem: -20 92<451.758 852.453> 525 80<348 983> 1036 84<468.183 852.399>
VStem: 100 248<309.991 525 605 788.181> 983 247<605 774.087>
LayerCount: 2
Fore
SplineSet
1104 204 m 1,0,1
 1032 113 1032 113 948 61 c 0,2,3
 817 -20 817 -20 665 -20 c 0,4,5
 409 -20 409 -20 256 139 c 0,6,7
 100 301 100 301 100 550 c 0,8,9
 100 788 100 788 249 952 c 24,10,11
 402 1120 402 1120 666 1120 c 0,12,13
 915 1120 915 1120 1064 964 c 280,14,15
 1230 790 1230 790 1230 525 c 1,16,-1
 348 525 l 1,17,-1
 348 192 l 1,18,19
 459 72 459 72 666 72 c 256,20,21
 789 72 789 72 880 132 c 0,22,23
 962 186 962 186 1011 266 c 1,24,25
 1104 204 l 1,0,1
348 605 m 1,26,-1
 983 605 l 1,27,-1
 983 903 l 1,28,29
 852 1036 852 1036 666 1036 c 0,30,31
 475 1036 475 1036 348 914 c 1,32,-1
 348 605 l 1,26,-1
EndSplineSet
Validated: 1
EndChar

StartChar: partialdiff
Encoding: 8706 8706 154
Width: 1285
GlyphClass: 2
Flags: W
HStem: -20 153<399.379 663.581> 870 170<546.66 823.335> 1378 152<492 830.299>
VStem: 150 188<198.966 600.959> 952 183<930 1235.35>
LayerCount: 2
Fore
SplineSet
512 -20 m 0,0,1
 150 -20 150 -20 150 375 c 0,2,3
 150 631 150 631 286 815 c 0,4,5
 454 1040 454 1040 672 1040 c 0,6,7
 859 1040 859 1040 952 930 c 1,8,9
 952 1136 952 1136 907 1239 c 0,10,11
 846 1378 846 1378 678 1378 c 0,12,13
 547 1378 547 1378 420 1294 c 1,14,-1
 420 1468 l 1,15,16
 554 1530 554 1530 703 1530 c 0,17,18
 1135 1530 1135 1530 1135 934 c 0,19,20
 1135 545 1135 545 966.5 262.5 c 128,-1,21
 798 -20 798 -20 512 -20 c 0,0,1
525 133 m 0,22,23
 663 133 663 133 772.5 286 c 128,-1,24
 882 439 882 439 920 680 c 1,25,26
 898 765 898 765 834.5 817.5 c 128,-1,27
 771 870 771 870 695 870 c 0,28,29
 535 870 535 870 436.5 710 c 128,-1,30
 338 550 338 550 338 369 c 0,31,32
 338 133 338 133 525 133 c 0,22,23
EndSplineSet
Validated: 1
EndChar

StartChar: uni2206
Encoding: 8710 8710 155
Width: 1331
GlyphClass: 2
Flags: W
HStem: 0 180<266 1057>
DStem2: 5 0 266 180 0.355307 0.93475<260.99 1387.14> 746 1550 660 1235 0.350461 -0.936577<264.882 1392.1>
LayerCount: 2
Fore
SplineSet
5 0 m 1,0,-1
 563 1468 l 1,1,-1
 736 1550 l 1,2,-1
 746 1550 l 1,3,-1
 1326 0 l 1,4,-1
 5 0 l 1,0,-1
266 180 m 1,5,-1
 1057 180 l 1,6,-1
 660 1235 l 1,7,-1
 266 180 l 1,5,-1
EndSplineSet
Validated: 1
EndChar

StartChar: product
Encoding: 8719 8719 156
Width: 1400
GlyphClass: 2
Flags: W
HStem: -430 21G<200 252.222 1000 1052.22> 1330 180<400 1000>
VStem: 200 200<-340 1330> 1000 200<-340 1330>
LayerCount: 2
Fore
SplineSet
210 -430 m 1,0,-1
 200 -430 l 1,1,-1
 200 1460 l 1,2,-1
 306 1510 l 1,3,-1
 1200 1510 l 1,4,-1
 1200 -340 l 1,5,-1
 1010 -430 l 1,6,-1
 1000 -430 l 1,7,-1
 1000 1330 l 1,8,-1
 400 1330 l 1,9,-1
 400 -340 l 1,10,-1
 210 -430 l 1,0,-1
EndSplineSet
Validated: 1
EndChar

StartChar: summation
Encoding: 8721 8721 157
Width: 1203
GlyphClass: 2
Flags: W
HStem: -410 180<405 973> 1330 180<401 953>
DStem2: 100 -410 405 -230 0.431264 0.902226<293.936 1108.37> 401 1330 101 1460 0.480758 -0.876854<0 733.966>
LayerCount: 2
Fore
SplineSet
100 -410 m 1,0,-1
 578 590 l 1,1,-1
 101 1460 l 1,2,-1
 207 1510 l 1,3,-1
 1033 1510 l 1,4,-1
 1033 1500 l 1,5,-1
 953 1330 l 1,6,-1
 401 1330 l 1,7,-1
 808 596 l 1,8,-1
 405 -230 l 1,9,-1
 1053 -230 l 1,10,-1
 1053 -240 l 1,11,-1
 973 -410 l 1,12,-1
 100 -410 l 1,0,-1
EndSplineSet
Validated: 1
EndChar

StartChar: minus
Encoding: 8722 8722 158
Width: 1200
GlyphClass: 2
Flags: W
HStem: 680 150<216 984>
LayerCount: 2
Fore
SplineSet
216 830 m 5,0,-1
 1050 830 l 5,1,-1
 1050 820 l 5,2,-1
 984 680 l 5,3,-1
 150 680 l 5,4,-1
 150 690 l 5,5,-1
 216 830 l 5,0,-1
EndSplineSet
Validated: 1
EndChar

StartChar: uni2215
Encoding: 8725 8725 159
Width: 852
GlyphClass: 2
Flags: W
HStem: -20 21G<96.0323 156.341> 1510 20G<694.672 755.29>
DStem2: 10 42 147 -20 0.423185 0.906043<1.80173 1641.88>
LayerCount: 2
Fore
SplineSet
137 -20 m 1,0,-1
 10 42 l 1,1,-1
 704 1530 l 1,2,-1
 714 1530 l 1,3,-1
 842 1468 l 1,4,-1
 147 -20 l 1,5,-1
 137 -20 l 1,0,-1
EndSplineSet
Validated: 1
EndChar

StartChar: uni2219
Encoding: 8729 8729 160
Width: 340
GlyphClass: 2
Flags: W
HStem: 632 245<86.0974 253.903>
VStem: 50 240<669.129 839.871>
LayerCount: 2
Fore
SplineSet
170 877 m 128,-1,1
 220 877 220 877 255 841 c 128,-1,2
 290 805 290 805 290 754.5 c 128,-1,3
 290 704 290 704 255 668 c 128,-1,4
 220 632 220 632 170 632 c 128,-1,5
 120 632 120 632 85 668 c 128,-1,6
 50 704 50 704 50 754.5 c 128,-1,7
 50 805 50 805 85 841 c 128,-1,0
 120 877 120 877 170 877 c 128,-1,1
EndSplineSet
Validated: 1
EndChar

StartChar: radical
Encoding: 8730 8730 161
Width: 1066
GlyphClass: 2
Flags: W
HStem: -20 21G<312.829 372.133> 1510 20G<852.698 911.714>
DStem2: 213 806 50 733 0.337524 -0.941317<13.6997 567.663> 400 270 488 55 0.35178 0.936083<0 1330.63>
LayerCount: 2
Fore
SplineSet
320 -20 m 1,0,-1
 50 733 l 1,1,-1
 203 806 l 1,2,-1
 213 806 l 1,3,-1
 400 270 l 1,4,-1
 860 1530 l 1,5,-1
 870 1530 l 1,6,-1
 1016 1460 l 1,7,-1
 488 55 l 1,8,-1
 330 -20 l 1,9,-1
 320 -20 l 1,0,-1
EndSplineSet
Validated: 1
EndChar

StartChar: infinity
Encoding: 8734 8734 162
Width: 1360
GlyphClass: 2
Flags: W
HStem: 450 131<294.751 608.75 751.25 1065.25> 929 131<294.751 608.75 751.25 1065.25>
VStem: 150 140<583.043 926.957> 610 140<581.195 928.805> 1070 140<583.043 926.957>
CounterMasks: 1 38
LayerCount: 2
Fore
SplineSet
346 1060 m 2,0,-1
 554 1060 l 2,1,2
 633 1060 633 1060 680 1029 c 1,3,4
 727 1060 727 1060 806 1060 c 2,5,-1
 1014 1060 l 2,6,7
 1210 1060 1210 1060 1210 866 c 2,8,-1
 1210 644 l 2,9,10
 1210 450 1210 450 1014 450 c 2,11,-1
 806 450 l 2,12,13
 727 450 727 450 680 481 c 1,14,15
 633 450 633 450 554 450 c 2,16,-1
 346 450 l 2,17,18
 150 450 150 450 150 644 c 2,19,-1
 150 866 l 2,20,21
 150 1060 150 1060 346 1060 c 2,0,-1
610 879 m 2,22,23
 610 929 610 929 560 929 c 2,24,-1
 340 929 l 2,25,26
 290 929 290 929 290 879 c 2,27,-1
 290 631 l 2,28,29
 290 581 290 581 340 581 c 2,30,-1
 560 581 l 2,31,32
 610 581 610 581 610 631 c 2,33,-1
 610 879 l 2,22,23
750 631 m 2,34,35
 750 581 750 581 800 581 c 2,36,-1
 1020 581 l 2,37,38
 1070 581 1070 581 1070 631 c 2,39,-1
 1070 879 l 2,40,41
 1070 929 1070 929 1020 929 c 2,42,-1
 800 929 l 2,43,44
 750 929 750 929 750 879 c 2,45,-1
 750 631 l 2,34,35
EndSplineSet
Validated: 1
EndChar

StartChar: approxequal
Encoding: 8776 8776 163
Width: 1138
GlyphClass: 2
Flags: W
HStem: 376 147<657.304 812.171> 590 147<325.829 480.696> 776 147<657.304 812.171> 990 147<325.829 480.696>
VStem: 150 157<447 574.039 847 974.039> 831 157<538.961 666 938.961 1066>
LayerCount: 2
Fore
SplineSet
988 737 m 1,0,1
 988 376 988 376 732 376 c 0,2,3
 615 376 615 376 517 503 c 0,4,5
 450 590 450 590 400 590 c 0,6,7
 307 590 307 590 307 447 c 1,8,-1
 160 376 l 1,9,-1
 150 376 l 1,10,11
 150 737 150 737 406 737 c 0,12,13
 523 737 523 737 621 610 c 0,14,15
 688 523 688 523 738 523 c 0,16,17
 831 523 831 523 831 666 c 1,18,-1
 978 737 l 1,19,-1
 988 737 l 1,0,1
988 1137 m 1,20,21
 988 776 988 776 732 776 c 0,22,23
 615 776 615 776 517 903 c 0,24,25
 450 990 450 990 400 990 c 0,26,27
 307 990 307 990 307 847 c 1,28,-1
 160 776 l 1,29,-1
 150 776 l 1,30,31
 150 1137 150 1137 406 1137 c 0,32,33
 523 1137 523 1137 621 1010 c 0,34,35
 688 923 688 923 738 923 c 0,36,37
 831 923 831 923 831 1066 c 1,38,-1
 978 1137 l 1,39,-1
 988 1137 l 1,20,21
EndSplineSet
Validated: 1
EndChar

StartChar: notequal
Encoding: 8800 8800 164
Width: 1200
GlyphClass: 2
Flags: W
HStem: 480 150<216 417 596 984> 880 150<216 603 783 984>
DStem2: 272 170 380 166 0.422674 0.906282<42.0237 342.235 553.836 783.365 995.389 1296.51>
LayerCount: 2
Fore
SplineSet
216 1030 m 1,0,-1
 673 1030 l 1,1,-1
 820 1345 l 1,2,-1
 919 1345 l 1,3,-1
 928 1341 l 1,4,-1
 783 1030 l 1,5,-1
 1050 1030 l 1,6,-1
 1050 1020 l 1,7,-1
 984 880 l 1,8,-1
 713 880 l 1,9,-1
 596 630 l 1,10,-1
 1050 630 l 1,11,-1
 1050 620 l 1,12,-1
 984 480 l 1,13,-1
 526 480 l 1,14,-1
 380 166 l 1,15,-1
 281 166 l 1,16,-1
 272 170 l 1,17,-1
 417 480 l 1,18,-1
 150 480 l 1,19,-1
 150 490 l 1,20,-1
 216 630 l 1,21,-1
 487 630 l 1,22,-1
 603 880 l 1,23,-1
 150 880 l 1,24,-1
 150 890 l 1,25,-1
 216 1030 l 1,0,-1
EndSplineSet
Validated: 1
EndChar

StartChar: lessequal
Encoding: 8804 8804 165
Width: 1315
GlyphClass: 2
Flags: W
HStem: 275 150<216 1049>
DStem2: 392 888 150 818 0.942662 -0.33375<0 751.043> 216 968 392 888 0.937519 0.347934<137.169 893.848>
LayerCount: 2
Fore
SplineSet
1054 1279 m 1,0,-1
 1115 1152 l 1,1,-1
 1115 1142 l 1,2,-1
 392 888 l 1,3,-1
 1115 643 l 1,4,-1
 1115 633 l 1,5,-1
 1051 499 l 1,6,-1
 150 818 l 1,7,-1
 150 828 l 1,8,-1
 216 968 l 1,9,-1
 1054 1279 l 1,0,-1
216 425 m 1,10,-1
 1115 425 l 1,11,-1
 1115 415 l 1,12,-1
 1049 275 l 1,13,-1
 150 275 l 1,14,-1
 150 285 l 1,15,-1
 216 425 l 1,10,-1
EndSplineSet
Validated: 1
EndChar

StartChar: greaterequal
Encoding: 8805 8805 166
Width: 1315
GlyphClass: 2
Flags: W
HStem: 275 150<266 1099>
DStem2: 264 1279 200 1135 0.942662 -0.33375<0 751.043> 200 636 261 499 0.937519 0.347934<9.52175 766.201>
LayerCount: 2
Fore
SplineSet
264 1279 m 1,0,-1
 1165 960 l 1,1,-1
 1165 950 l 1,2,-1
 1099 810 l 1,3,-1
 261 499 l 1,4,-1
 200 626 l 1,5,-1
 200 636 l 1,6,-1
 923 890 l 1,7,-1
 200 1135 l 1,8,-1
 200 1145 l 1,9,-1
 264 1279 l 1,0,-1
266 425 m 1,10,-1
 1165 425 l 1,11,-1
 1165 415 l 1,12,-1
 1099 275 l 1,13,-1
 200 275 l 1,14,-1
 200 285 l 1,15,-1
 266 425 l 1,10,-1
EndSplineSet
Validated: 1
EndChar

StartChar: lozenge
Encoding: 9674 9674 167
Width: 1134
GlyphClass: 2
Flags: W
HStem: -20 21G<554.678 579.273> 1510 20G<555.207 578.838>
DStem2: 100 738 288 775 0.507923 0.861403<127.361 627.638> 288 775 100 738 0.524536 -0.851388<0 582.074> 567 1530 542 1206 0.509354 -0.860557<266.087 853.984> 591 278 567 -20 0.523035 0.852311<0 492.332>
LayerCount: 2
Fore
SplineSet
591 278 m 5,0,-1
 843 701 l 1,1,-1
 542 1206 l 1,2,-1
 288 775 l 1,3,-1
 591 278 l 5,0,-1
567 -20 m 1,4,-1
 100 738 l 1,5,-1
 567 1530 l 1,6,-1
 1034 741 l 1,7,-1
 567 -20 l 1,4,-1
EndSplineSet
Validated: 1
EndChar

StartChar: Oslash
Encoding: 216 216 168
Width: 1330
Flags: W
HStem: 0 180<455.391 938.945> 1330 180<391.055 874.609>
VStem: 160 200<247.941 1296.38> 970 200<213.623 1262.06>
DStem2: 241 -36 349 -40 0.422823 0.906212<42.04 112.399 312.271 1479.91 1679.78 1750.14>
LayerCount: 2
Fore
SplineSet
820 0 m 2,0,-1
 510 0 l 2,1,2
 434 0 434 0 375 16 c 1,3,-1
 349 -40 l 1,4,-1
 250 -40 l 1,5,-1
 241 -36 l 1,6,-1
 284 57 l 1,7,8
 160 141 160 141 160 350 c 2,9,-1
 160 1160 l 2,10,11
 160 1510 160 1510 510 1510 c 2,12,-1
 820 1510 l 2,13,14
 896 1510 896 1510 955 1494 c 1,15,-1
 981 1550 l 1,16,-1
 1080 1550 l 1,17,-1
 1089 1546 l 1,18,-1
 1046 1453 l 1,19,20
 1170 1369 1170 1369 1170 1160 c 2,21,-1
 1170 350 l 2,22,23
 1170 0 1170 0 820 0 c 2,0,-1
500 180 m 2,24,-1
 830 180 l 2,25,26
 970 180 970 180 970 320 c 2,27,-1
 970 1190 l 2,28,29
 970 1233 970 1233 957 1263 c 1,30,-1
 454 185 l 1,31,32
 475 180 475 180 500 180 c 2,24,-1
373 247 m 1,33,-1
 876 1325 l 1,34,35
 855 1330 855 1330 830 1330 c 2,36,-1
 500 1330 l 2,37,38
 360 1330 360 1330 360 1190 c 2,39,-1
 360 320 l 2,40,41
 360 277 360 277 373 247 c 1,33,-1
EndSplineSet
Validated: 1
EndChar

StartChar: oslash
Encoding: 248 248 169
Width: 1150
Flags: W
HStem: 0 160<448 797.979> 940 160<352.021 702>
VStem: 160 180<196 929.102> 810 180<170.898 904>
DStem2: 279 34 355 -40 0.422379 0.906419<-34.9742 7.04971 185.591 999.882 1179.45 1220.45>
LayerCount: 2
Fore
SplineSet
710 0 m 2,0,-1
 440 0 l 2,1,2
 406 0 406 0 376 4 c 1,3,-1
 355 -40 l 1,4,-1
 256 -40 l 1,5,-1
 247 -36 l 1,6,-1
 279 34 l 1,7,8
 160 97 160 97 160 280 c 2,9,-1
 160 820 l 2,10,11
 160 1100 160 1100 440 1100 c 2,12,-1
 710 1100 l 2,13,14
 744 1100 744 1100 774 1096 c 1,15,-1
 795 1140 l 1,16,-1
 894 1140 l 1,17,-1
 903 1136 l 1,18,-1
 871 1066 l 1,19,20
 990 1003 990 1003 990 820 c 2,21,-1
 990 280 l 2,22,23
 990 0 990 0 710 0 c 2,0,-1
354 193 m 1,24,-1
 702 940 l 1,25,-1
 430 940 l 2,26,27
 340 940 340 940 340 850 c 2,28,-1
 340 250 l 2,29,30
 340 214 340 214 354 193 c 1,24,-1
796 907 m 1,31,-1
 448 160 l 1,32,-1
 720 160 l 2,33,34
 810 160 810 160 810 250 c 2,35,-1
 810 850 l 2,36,37
 810 886 810 886 796 907 c 1,31,-1
EndSplineSet
Validated: 1
EndChar

StartChar: multiply
Encoding: 215 215 170
Width: 1142
Flags: W
HStem: 649 212<465 677>
VStem: 465 212<649 861>
DStem2: 353 1080 200 1020 0.706507 -0.707706<0 309.006 459.04 768.046> 200 490 353 430 0.706507 0.707706<65.6332 374.639 524.673 833.679>
LayerCount: 2
Fore
SplineSet
789 1080 m 1,0,-1
 935 1027 l 1,1,-1
 942 1020 l 1,2,-1
 677 755 l 1,3,-1
 942 490 l 1,4,-1
 935 483 l 1,5,-1
 789 430 l 1,6,-1
 571 649 l 1,7,-1
 353 430 l 1,8,-1
 207 483 l 1,9,-1
 200 490 l 1,10,-1
 465 755 l 1,11,-1
 200 1020 l 1,12,-1
 207 1027 l 1,13,-1
 353 1080 l 1,14,-1
 571 861 l 1,15,-1
 789 1080 l 1,0,-1
EndSplineSet
Validated: 1
EndChar

StartChar: divide
Encoding: 247 247 171
Width: 1200
Flags: W
HStem: 306 245<516.097 683.903> 680 150<216 984> 959 245<516.097 683.903>
VStem: 480 240<343.129 513.871 996.129 1166.87>
CounterMasks: 1 e0
LayerCount: 2
Fore
SplineSet
216 830 m 1,0,-1
 1050 830 l 1,1,-1
 1050 820 l 1,2,-1
 984 680 l 1,3,-1
 150 680 l 1,4,-1
 150 690 l 1,5,-1
 216 830 l 1,0,-1
600 1204 m 128,-1,7
 650 1204 650 1204 685 1168 c 128,-1,8
 720 1132 720 1132 720 1081.5 c 128,-1,9
 720 1031 720 1031 685 995 c 128,-1,10
 650 959 650 959 600 959 c 128,-1,11
 550 959 550 959 515 995 c 128,-1,12
 480 1031 480 1031 480 1081.5 c 128,-1,13
 480 1132 480 1132 515 1168 c 128,-1,6
 550 1204 550 1204 600 1204 c 128,-1,7
600 306 m 128,-1,15
 550 306 550 306 515 342 c 128,-1,16
 480 378 480 378 480 428.5 c 128,-1,17
 480 479 480 479 515 515 c 128,-1,18
 550 551 550 551 600 551 c 128,-1,19
 650 551 650 551 685 515 c 128,-1,20
 720 479 720 479 720 428.5 c 128,-1,21
 720 378 720 378 685 342 c 128,-1,14
 650 306 650 306 600 306 c 128,-1,15
EndSplineSet
Validated: 1
EndChar

StartChar: uni1E02
Encoding: 7682 7682 172
Width: 1250
Flags: W
HStem: 0 180<400 938.945> 746 180<400 851.021> 1330 180<400 848.945> 1630 245<521.097 688.903>
VStem: 200 200<180 746 926 1330> 485 240<1667.13 1837.87> 880 200<954.901 1297.4> 970 200<213.623 718.509>
LayerCount: 2
Fore
SplineSet
400 180 m 1,0,-1
 830 180 l 2,1,2
 970 180 970 180 970 320 c 2,3,-1
 970 606 l 2,4,5
 970 746 970 746 830 746 c 2,6,-1
 400 746 l 1,7,-1
 400 180 l 1,0,-1
200 0 m 1,8,-1
 200 1440 l 1,9,-1
 348 1510 l 1,10,-1
 730 1510 l 2,11,12
 1080 1510 1080 1510 1080 1200 c 2,13,-1
 1080 1096 l 2,14,15
 1080 952 1080 952 994 884 c 1,16,17
 1170 824 1170 824 1170 576 c 2,18,-1
 1170 350 l 2,19,20
 1170 0 1170 0 820 0 c 2,21,-1
 200 0 l 1,8,-1
400 926 m 1,22,-1
 740 926 l 2,23,24
 880 926 880 926 880 1066 c 2,25,-1
 880 1190 l 2,26,27
 880 1330 880 1330 740 1330 c 2,28,-1
 400 1330 l 1,29,-1
 400 926 l 1,22,-1
605 1875 m 128,-1,31
 655 1875 655 1875 690 1839 c 128,-1,32
 725 1803 725 1803 725 1752.5 c 128,-1,33
 725 1702 725 1702 690 1666 c 128,-1,34
 655 1630 655 1630 605 1630 c 128,-1,35
 555 1630 555 1630 520 1666 c 128,-1,36
 485 1702 485 1702 485 1752.5 c 128,-1,37
 485 1803 485 1803 520 1839 c 128,-1,30
 555 1875 555 1875 605 1875 c 128,-1,31
EndSplineSet
Validated: 1
EndChar

StartChar: uni1E03
Encoding: 7683 7683 173
Width: 1170
Flags: W
HStem: 0 160<372.021 817.979> 940 160<368.865 817.979> 1220 245<512.097 679.903> 1510 20G<308.025 360>
VStem: 180 180<170.898 932.068 1079 1449> 476 240<1257.13 1427.87> 830 180<170.898 929.102>
LayerCount: 2
Fore
SplineSet
450 160 m 2,0,-1
 740 160 l 2,1,2
 830 160 830 160 830 250 c 2,3,-1
 830 850 l 2,4,5
 830 940 830 940 740 940 c 2,6,-1
 450 940 l 2,7,8
 360 940 360 940 360 850 c 2,9,-1
 360 250 l 2,10,11
 360 160 360 160 450 160 c 2,0,-1
460 0 m 2,12,13
 180 0 180 0 180 280 c 2,14,-1
 180 1449 l 1,15,-1
 350 1530 l 1,16,-1
 360 1530 l 1,17,-1
 360 1079 l 1,18,19
 407 1100 407 1100 460 1100 c 2,20,-1
 730 1100 l 2,21,22
 1010 1100 1010 1100 1010 820 c 2,23,-1
 1010 280 l 2,24,25
 1010 0 1010 0 730 0 c 2,26,-1
 460 0 l 2,12,13
596 1465 m 128,-1,28
 646 1465 646 1465 681 1429 c 128,-1,29
 716 1393 716 1393 716 1342.5 c 128,-1,30
 716 1292 716 1292 681 1256 c 128,-1,31
 646 1220 646 1220 596 1220 c 128,-1,32
 546 1220 546 1220 511 1256 c 128,-1,33
 476 1292 476 1292 476 1342.5 c 128,-1,34
 476 1393 476 1393 511 1429 c 128,-1,27
 546 1465 546 1465 596 1465 c 128,-1,28
EndSplineSet
Validated: 1
EndChar

StartChar: uni1E0A
Encoding: 7690 7690 174
Width: 1350
Flags: W
HStem: 0 180<400 958.945> 1330 180<400 958.945> 1630 245<551.097 718.903>
VStem: 200 200<180 1330> 515 240<1667.13 1837.87> 990 200<213.623 1296.38>
LayerCount: 2
Fore
SplineSet
400 180 m 1,0,-1
 850 180 l 2,1,2
 990 180 990 180 990 320 c 2,3,-1
 990 1190 l 2,4,5
 990 1330 990 1330 850 1330 c 2,6,-1
 400 1330 l 1,7,-1
 400 180 l 1,0,-1
200 0 m 1,8,-1
 200 1440 l 1,9,-1
 348 1510 l 1,10,-1
 840 1510 l 2,11,12
 1190 1510 1190 1510 1190 1160 c 2,13,-1
 1190 350 l 2,14,15
 1190 0 1190 0 840 0 c 2,16,-1
 200 0 l 1,8,-1
635 1875 m 128,-1,18
 685 1875 685 1875 720 1839 c 128,-1,19
 755 1803 755 1803 755 1752.5 c 128,-1,20
 755 1702 755 1702 720 1666 c 128,-1,21
 685 1630 685 1630 635 1630 c 128,-1,22
 585 1630 585 1630 550 1666 c 128,-1,23
 515 1702 515 1702 515 1752.5 c 128,-1,24
 515 1803 515 1803 550 1839 c 128,-1,17
 585 1875 585 1875 635 1875 c 128,-1,18
EndSplineSet
Validated: 1
EndChar

StartChar: uni1E0B
Encoding: 7691 7691 175
Width: 1170
Flags: W
HStem: 0 160<352.021 797.979> 940 160<352.021 801.135> 1220 245<490.097 657.903> 1510 20G<938.025 990>
VStem: 160 180<170.898 929.102> 454 240<1257.13 1427.87> 810 180<170.898 932.068 1079 1449>
LayerCount: 2
Fore
SplineSet
720 160 m 2,0,1
 810 160 810 160 810 250 c 2,2,-1
 810 850 l 2,3,4
 810 940 810 940 720 940 c 2,5,-1
 430 940 l 2,6,7
 340 940 340 940 340 850 c 2,8,-1
 340 250 l 2,9,10
 340 160 340 160 430 160 c 2,11,-1
 720 160 l 2,0,1
440 0 m 2,12,13
 160 0 160 0 160 280 c 2,14,-1
 160 820 l 2,15,16
 160 1100 160 1100 440 1100 c 2,17,-1
 710 1100 l 2,18,19
 763 1100 763 1100 810 1079 c 1,20,-1
 810 1449 l 1,21,-1
 980 1530 l 1,22,-1
 990 1530 l 1,23,-1
 990 280 l 2,24,25
 990 0 990 0 710 0 c 2,26,-1
 440 0 l 2,12,13
574 1465 m 128,-1,28
 624 1465 624 1465 659 1429 c 128,-1,29
 694 1393 694 1393 694 1342.5 c 128,-1,30
 694 1292 694 1292 659 1256 c 128,-1,31
 624 1220 624 1220 574 1220 c 128,-1,32
 524 1220 524 1220 489 1256 c 128,-1,33
 454 1292 454 1292 454 1342.5 c 128,-1,34
 454 1393 454 1393 489 1429 c 128,-1,27
 524 1465 524 1465 574 1465 c 128,-1,28
EndSplineSet
Validated: 1
EndChar

StartChar: uni1E1E
Encoding: 7710 7710 176
Width: 1010
Flags: W
HStem: -20 21G<200 252.222> 665 180<400 880> 1330 180<400 880> 1630 245<510.097 677.903>
VStem: 200 200<70 665 845 1330> 474 240<1667.13 1837.87>
LayerCount: 2
Fore
SplineSet
200 -20 m 1,0,-1
 200 1440 l 1,1,-1
 348 1510 l 1,2,-1
 960 1510 l 1,3,-1
 960 1500 l 1,4,-1
 880 1330 l 1,5,-1
 400 1330 l 1,6,-1
 400 845 l 1,7,-1
 960 845 l 1,8,-1
 960 835 l 1,9,-1
 880 665 l 1,10,-1
 400 665 l 1,11,-1
 400 70 l 1,12,-1
 210 -20 l 1,13,-1
 200 -20 l 1,0,-1
594 1875 m 128,-1,15
 644 1875 644 1875 679 1839 c 128,-1,16
 714 1803 714 1803 714 1752.5 c 128,-1,17
 714 1702 714 1702 679 1666 c 128,-1,18
 644 1630 644 1630 594 1630 c 128,-1,19
 544 1630 544 1630 509 1666 c 128,-1,20
 474 1702 474 1702 474 1752.5 c 128,-1,21
 474 1803 474 1803 509 1839 c 128,-1,14
 544 1875 544 1875 594 1875 c 128,-1,15
EndSplineSet
Validated: 1
EndChar

StartChar: uni1E1F
Encoding: 7711 7711 177
Width: 780
Flags: W
HStem: -20 21G<180 231.975> 740 160<360 660> 1350 160<372.021 699> 1630 245<356.097 523.903>
VStem: 180 180<61 740 900 1339.1> 320 240<1667.13 1837.87>
LayerCount: 2
Fore
SplineSet
190 -20 m 1,0,-1
 180 -20 l 1,1,-1
 180 1230 l 2,2,3
 180 1510 180 1510 460 1510 c 2,4,-1
 770 1510 l 1,5,-1
 770 1500 l 1,6,-1
 699 1350 l 1,7,-1
 450 1350 l 2,8,9
 360 1350 360 1350 360 1260 c 2,10,-1
 360 900 l 1,11,-1
 731 900 l 1,12,-1
 731 890 l 1,13,-1
 660 740 l 1,14,-1
 360 740 l 1,15,-1
 360 61 l 1,16,-1
 190 -20 l 1,0,-1
440 1875 m 128,-1,18
 490 1875 490 1875 525 1839 c 128,-1,19
 560 1803 560 1803 560 1752.5 c 128,-1,20
 560 1702 560 1702 525 1666 c 128,-1,21
 490 1630 490 1630 440 1630 c 128,-1,22
 390 1630 390 1630 355 1666 c 128,-1,23
 320 1702 320 1702 320 1752.5 c 128,-1,24
 320 1803 320 1803 355 1839 c 128,-1,17
 390 1875 390 1875 440 1875 c 128,-1,18
EndSplineSet
Validated: 1
EndChar

StartChar: uni1E40
Encoding: 7744 7744 178
Width: 2180
Flags: W
HStem: -20 21G<180 232.222 990 1042.22 1800 1852.22> 1330 180<411.055 959.895 1220.11 1768.95> 1630 245<1003.1 1170.9>
VStem: 180 200<70 1296.38> 967 240<1667.13 1837.87> 990 200<70 1303.2> 1800 200<70 1296.38>
LayerCount: 2
Fore
SplineSet
190 -20 m 1,0,-1
 180 -20 l 1,1,-1
 180 1160 l 2,2,3
 180 1510 180 1510 530 1510 c 2,4,-1
 840 1510 l 2,5,6
 1003 1510 1003 1510 1090 1434 c 1,7,8
 1177 1510 1177 1510 1340 1510 c 2,9,-1
 1650 1510 l 2,10,11
 2000 1510 2000 1510 2000 1160 c 2,12,-1
 2000 70 l 1,13,-1
 1810 -20 l 1,14,-1
 1800 -20 l 1,15,-1
 1800 1190 l 2,16,17
 1800 1330 1800 1330 1660 1330 c 2,18,-1
 1330 1330 l 2,19,20
 1190 1330 1190 1330 1190 1190 c 2,21,-1
 1190 70 l 1,22,-1
 1000 -20 l 1,23,-1
 990 -20 l 1,24,-1
 990 1190 l 2,25,26
 990 1330 990 1330 850 1330 c 2,27,-1
 520 1330 l 2,28,29
 380 1330 380 1330 380 1190 c 2,30,-1
 380 70 l 1,31,-1
 190 -20 l 1,0,-1
1087 1875 m 128,-1,33
 1137 1875 1137 1875 1172 1839 c 128,-1,34
 1207 1803 1207 1803 1207 1752.5 c 128,-1,35
 1207 1702 1207 1702 1172 1666 c 128,-1,36
 1137 1630 1137 1630 1087 1630 c 128,-1,37
 1037 1630 1037 1630 1002 1666 c 128,-1,38
 967 1702 967 1702 967 1752.5 c 128,-1,39
 967 1803 967 1803 1002 1839 c 128,-1,32
 1037 1875 1037 1875 1087 1875 c 128,-1,33
EndSplineSet
Validated: 1
EndChar

StartChar: uni1E41
Encoding: 7745 7745 179
Width: 1840
Flags: W
HStem: -20 21G<180 231.975 830 881.975 1480 1531.98> 940 160<372.021 819.73 1020.27 1467.98> 1220 245<832.097 999.903>
VStem: 180 180<61 929.102> 796 240<1257.13 1427.87> 830 180<61 932.068> 1480 180<61 929.102>
LayerCount: 2
Fore
SplineSet
190 -20 m 1,0,-1
 180 -20 l 1,1,-1
 180 820 l 2,2,3
 180 1100 180 1100 460 1100 c 2,4,-1
 730 1100 l 2,5,6
 851 1100 851 1100 920 1047 c 1,7,8
 989 1100 989 1100 1110 1100 c 2,9,-1
 1380 1100 l 2,10,11
 1660 1100 1660 1100 1660 820 c 2,12,-1
 1660 61 l 1,13,-1
 1490 -20 l 1,14,-1
 1480 -20 l 1,15,-1
 1480 850 l 2,16,17
 1480 940 1480 940 1390 940 c 2,18,-1
 1100 940 l 2,19,20
 1010 940 1010 940 1010 850 c 2,21,-1
 1010 61 l 1,22,-1
 840 -20 l 1,23,-1
 830 -20 l 1,24,-1
 830 850 l 2,25,26
 830 940 830 940 740 940 c 2,27,-1
 450 940 l 2,28,29
 360 940 360 940 360 850 c 2,30,-1
 360 61 l 1,31,-1
 190 -20 l 1,0,-1
916 1465 m 128,-1,33
 966 1465 966 1465 1001 1429 c 128,-1,34
 1036 1393 1036 1393 1036 1342.5 c 128,-1,35
 1036 1292 1036 1292 1001 1256 c 128,-1,36
 966 1220 966 1220 916 1220 c 128,-1,37
 866 1220 866 1220 831 1256 c 128,-1,38
 796 1292 796 1292 796 1342.5 c 128,-1,39
 796 1393 796 1393 831 1429 c 128,-1,32
 866 1465 866 1465 916 1465 c 128,-1,33
EndSplineSet
Validated: 1
EndChar

StartChar: uni1E56
Encoding: 7766 7766 180
Width: 1210
Flags: W
HStem: -20 21G<200 252.222> 500 180<400 898.945> 1330 180<400 898.945> 1630 245<504.097 671.903>
VStem: 200 200<70 500 680 1330> 468 240<1667.13 1837.87> 930 200<713.623 1296.38>
LayerCount: 2
Fore
SplineSet
210 -20 m 1,0,-1
 200 -20 l 1,1,-1
 200 1440 l 1,2,-1
 348 1510 l 1,3,-1
 780 1510 l 2,4,5
 1130 1510 1130 1510 1130 1160 c 2,6,-1
 1130 850 l 2,7,8
 1130 500 1130 500 780 500 c 2,9,-1
 400 500 l 1,10,-1
 400 70 l 1,11,-1
 210 -20 l 1,0,-1
400 1330 m 1,12,-1
 400 680 l 1,13,-1
 790 680 l 2,14,15
 930 680 930 680 930 820 c 2,16,-1
 930 1190 l 2,17,18
 930 1330 930 1330 790 1330 c 2,19,-1
 400 1330 l 1,12,-1
588 1875 m 128,-1,21
 638 1875 638 1875 673 1839 c 128,-1,22
 708 1803 708 1803 708 1752.5 c 128,-1,23
 708 1702 708 1702 673 1666 c 128,-1,24
 638 1630 638 1630 588 1630 c 128,-1,25
 538 1630 538 1630 503 1666 c 128,-1,26
 468 1702 468 1702 468 1752.5 c 128,-1,27
 468 1803 468 1803 503 1839 c 128,-1,20
 538 1875 538 1875 588 1875 c 128,-1,21
EndSplineSet
Validated: 1
EndChar

StartChar: uni1E57
Encoding: 7767 7767 181
Width: 1170
Flags: W
HStem: -430 21G<180 231.975> 0 160<368.865 817.979> 940 160<372.021 817.979> 1220 245<514.097 681.903>
VStem: 180 180<-349 21 167.932 929.102> 478 240<1257.13 1427.87> 830 180<170.898 929.102>
LayerCount: 2
Fore
SplineSet
450 940 m 2,0,1
 360 940 360 940 360 850 c 2,2,-1
 360 250 l 2,3,4
 360 160 360 160 450 160 c 2,5,-1
 740 160 l 2,6,7
 830 160 830 160 830 250 c 2,8,-1
 830 850 l 2,9,10
 830 940 830 940 740 940 c 2,11,-1
 450 940 l 2,0,1
730 0 m 2,12,-1
 460 0 l 2,13,14
 407 0 407 0 360 21 c 1,15,-1
 360 -349 l 1,16,-1
 190 -430 l 1,17,-1
 180 -430 l 1,18,-1
 180 820 l 2,19,20
 180 1100 180 1100 460 1100 c 2,21,-1
 730 1100 l 2,22,23
 1010 1100 1010 1100 1010 820 c 2,24,-1
 1010 280 l 2,25,26
 1010 0 1010 0 730 0 c 2,12,-1
598 1465 m 128,-1,28
 648 1465 648 1465 683 1429 c 128,-1,29
 718 1393 718 1393 718 1342.5 c 128,-1,30
 718 1292 718 1292 683 1256 c 128,-1,31
 648 1220 648 1220 598 1220 c 128,-1,32
 548 1220 548 1220 513 1256 c 128,-1,33
 478 1292 478 1292 478 1342.5 c 128,-1,34
 478 1393 478 1393 513 1429 c 128,-1,27
 548 1465 548 1465 598 1465 c 128,-1,28
EndSplineSet
Validated: 1
EndChar

StartChar: uni1E6A
Encoding: 7786 7786 182
Width: 1070
Flags: W
HStem: -20 21G<435 487.222> 1330 180<90 435 635 980> 1630 245<445.097 612.903>
VStem: 409 240<1667.13 1837.87> 435 200<70 1330>
LayerCount: 2
Fore
SplineSet
435 -20 m 1,0,-1
 435 1330 l 1,1,-1
 10 1330 l 1,2,-1
 10 1340 l 1,3,-1
 90 1510 l 1,4,-1
 1060 1510 l 1,5,-1
 1060 1500 l 1,6,-1
 980 1330 l 1,7,-1
 635 1330 l 1,8,-1
 635 70 l 1,9,-1
 445 -20 l 1,10,-1
 435 -20 l 1,0,-1
529 1875 m 128,-1,12
 579 1875 579 1875 614 1839 c 128,-1,13
 649 1803 649 1803 649 1752.5 c 128,-1,14
 649 1702 649 1702 614 1666 c 128,-1,15
 579 1630 579 1630 529 1630 c 128,-1,16
 479 1630 479 1630 444 1666 c 128,-1,17
 409 1702 409 1702 409 1752.5 c 128,-1,18
 409 1803 409 1803 444 1839 c 128,-1,11
 479 1875 479 1875 529 1875 c 128,-1,12
EndSplineSet
Validated: 1
EndChar

StartChar: uni1E6B
Encoding: 7787 7787 183
Width: 780
Flags: W
HStem: -20 21G<300 351.975> 940 160<81 300 480 699> 1510 20G<428.025 480> 1630 245<306.097 473.903>
VStem: 270 240<1667.13 1837.87> 300 180<61 940 1100 1449>
LayerCount: 2
Fore
SplineSet
300 -20 m 1,0,-1
 300 940 l 1,1,-1
 10 940 l 1,2,-1
 10 950 l 1,3,-1
 81 1100 l 1,4,-1
 300 1100 l 1,5,-1
 300 1449 l 1,6,-1
 470 1530 l 1,7,-1
 480 1530 l 1,8,-1
 480 1100 l 1,9,-1
 770 1100 l 1,10,-1
 770 1090 l 1,11,-1
 699 940 l 1,12,-1
 480 940 l 1,13,-1
 480 61 l 1,14,-1
 310 -20 l 1,15,-1
 300 -20 l 1,0,-1
390 1875 m 128,-1,17
 440 1875 440 1875 475 1839 c 128,-1,18
 510 1803 510 1803 510 1752.5 c 128,-1,19
 510 1702 510 1702 475 1666 c 128,-1,20
 440 1630 440 1630 390 1630 c 128,-1,21
 340 1630 340 1630 305 1666 c 128,-1,22
 270 1702 270 1702 270 1752.5 c 128,-1,23
 270 1803 270 1803 305 1839 c 128,-1,16
 340 1875 340 1875 390 1875 c 128,-1,17
EndSplineSet
Validated: 1
EndChar

StartChar: uni1E60
Encoding: 7776 7776 184
Width: 1120
Flags: W
HStem: 0 180<291.055 808.945> 754 180<374.558 808.945> 1117 21G<767 819.353> 1340 170<374.558 735.442> 1630 245<483.097 650.903>
VStem: 60 200<209.853 358> 153 190<967.574 1311.95> 447 240<1667.13 1837.87> 767 190<1202 1314.16> 840 200<213.623 720.377>
LayerCount: 2
Fore
SplineSet
410 0 m 2,0,1
 60 0 60 0 60 358 c 1,2,-1
 250 448 l 1,3,-1
 260 448 l 9,4,-1
 260 320 l 2,5,6
 260 180 260 180 400 180 c 2,7,-1
 700 180 l 2,8,9
 840 180 840 180 840 320 c 2,10,-1
 840 614 l 2,11,12
 840 754 840 754 700 754 c 2,13,-1
 453 754 l 2,14,15
 153 754 153 754 153 1054 c 2,16,-1
 153 1210 l 2,17,18
 153 1510 153 1510 453 1510 c 2,19,-1
 657 1510 l 2,20,21
 957 1510 957 1510 957 1202 c 1,22,-1
 777 1117 l 1,23,-1
 767 1117 l 1,24,-1
 767 1205 l 2,25,26
 767 1340 767 1340 627 1340 c 2,27,-1
 483 1340 l 2,28,29
 343 1340 343 1340 343 1200 c 2,30,-1
 343 1074 l 2,31,32
 343 934 343 934 483 934 c 2,33,-1
 690 934 l 2,34,35
 1040 934 1040 934 1040 584 c 2,36,-1
 1040 350 l 2,37,38
 1040 0 1040 0 690 0 c 2,39,-1
 410 0 l 2,0,1
567 1875 m 128,-1,41
 617 1875 617 1875 652 1839 c 128,-1,42
 687 1803 687 1803 687 1752.5 c 128,-1,43
 687 1702 687 1702 652 1666 c 128,-1,44
 617 1630 617 1630 567 1630 c 128,-1,45
 517 1630 517 1630 482 1666 c 128,-1,46
 447 1702 447 1702 447 1752.5 c 128,-1,47
 447 1803 447 1803 482 1839 c 128,-1,40
 517 1875 517 1875 567 1875 c 128,-1,41
EndSplineSet
Validated: 1
EndChar

StartChar: uni1E61
Encoding: 7777 7777 185
Width: 910
Flags: W
HStem: 0 160<252.021 637.979> 522 160<311.75 637.979> 950 150<311.75 598.754> 1220 245<369.097 536.903>
VStem: 60 180<173.95 285> 128 170<692.859 941.562> 333 240<1257.13 1427.87> 606 170<855 938.262> 650 180<170.898 511.102>
LayerCount: 2
Fore
SplineSet
340 0 m 2,0,1
 60 0 60 0 60 285 c 1,2,-1
 230 366 l 1,3,-1
 240 366 l 1,4,-1
 240 250 l 2,5,6
 240 160 240 160 330 160 c 2,7,-1
 560 160 l 2,8,9
 650 160 650 160 650 250 c 2,10,-1
 650 432 l 2,11,12
 650 522 650 522 560 522 c 2,13,-1
 368 522 l 2,14,15
 128 522 128 522 128 762 c 2,16,-1
 128 860 l 2,17,18
 128 1100 128 1100 368 1100 c 2,19,-1
 536 1100 l 2,20,21
 776 1100 776 1100 776 855 c 1,22,-1
 616 779 l 1,23,-1
 606 779 l 1,24,-1
 606 865 l 2,25,26
 606 950 606 950 516 950 c 2,27,-1
 388 950 l 2,28,29
 298 950 298 950 298 860 c 2,30,-1
 298 772 l 2,31,32
 298 682 298 682 388 682 c 2,33,-1
 550 682 l 2,34,35
 830 682 830 682 830 402 c 2,36,-1
 830 280 l 2,37,38
 830 0 830 0 550 0 c 2,39,-1
 340 0 l 2,0,1
453 1465 m 128,-1,41
 503 1465 503 1465 538 1429 c 128,-1,42
 573 1393 573 1393 573 1342.5 c 128,-1,43
 573 1292 573 1292 538 1256 c 128,-1,44
 503 1220 503 1220 453 1220 c 128,-1,45
 403 1220 403 1220 368 1256 c 128,-1,46
 333 1292 333 1292 333 1342.5 c 128,-1,47
 333 1393 333 1393 368 1429 c 128,-1,40
 403 1465 403 1465 453 1465 c 128,-1,41
EndSplineSet
Validated: 1
EndChar

StartChar: Wgrave
Encoding: 7808 7808 186
Width: 2180
Flags: W
HStem: 0 180<411.055 959.895 1220.11 1768.95> 1510 20G<327.778 380 1137.78 1190 1947.78 2000>
VStem: 180 200<213.623 1440> 990 200<206.797 1440> 1800 200<213.623 1440>
DStem2: 1030 1937 900 1880 0.427336 -0.904093<0 339.921>
CounterMasks: 1 38
LayerCount: 2
Fore
SplineSet
530 0 m 2,0,1
 180 0 180 0 180 350 c 2,2,-1
 180 1440 l 1,3,-1
 370 1530 l 1,4,-1
 380 1530 l 1,5,-1
 380 320 l 2,6,7
 380 180 380 180 520 180 c 2,8,-1
 850 180 l 2,9,10
 990 180 990 180 990 320 c 2,11,-1
 990 1440 l 1,12,-1
 1180 1530 l 1,13,-1
 1190 1530 l 1,14,-1
 1190 320 l 2,15,16
 1190 180 1190 180 1330 180 c 2,17,-1
 1660 180 l 2,18,19
 1800 180 1800 180 1800 320 c 2,20,-1
 1800 1440 l 1,21,-1
 1990 1530 l 1,22,-1
 2000 1530 l 1,23,-1
 2000 350 l 2,24,25
 2000 0 2000 0 1650 0 c 2,26,-1
 1340 0 l 2,27,28
 1177 0 1177 0 1090 76 c 1,29,30
 1003 0 1003 0 840 0 c 2,31,-1
 530 0 l 2,0,1
1020 1937 m 1,32,-1
 1030 1937 l 1,33,-1
 1177 1626 l 1,34,-1
 1059 1570 l 1,35,-1
 1049 1570 l 1,36,-1
 900 1880 l 1,37,-1
 1020 1937 l 1,32,-1
EndSplineSet
Validated: 1
EndChar

StartChar: wgrave
Encoding: 7809 7809 187
Width: 1840
Flags: W
HStem: 0 160<372.021 819.73 1020.27 1467.98> 1100 20G<308.025 360 958.025 1010 1608.02 1660>
VStem: 180 180<170.898 1039> 830 180<167.932 1039> 1480 180<170.898 1039>
DStem2: 862 1527 732 1470 0.427336 -0.904093<0 339.921>
CounterMasks: 1 38
LayerCount: 2
Fore
SplineSet
460 0 m 2,0,1
 180 0 180 0 180 280 c 2,2,-1
 180 1039 l 1,3,-1
 350 1120 l 1,4,-1
 360 1120 l 1,5,-1
 360 250 l 2,6,7
 360 160 360 160 450 160 c 2,8,-1
 740 160 l 2,9,10
 830 160 830 160 830 250 c 2,11,-1
 830 1039 l 1,12,-1
 1000 1120 l 1,13,-1
 1010 1120 l 1,14,-1
 1010 250 l 2,15,16
 1010 160 1010 160 1100 160 c 2,17,-1
 1390 160 l 2,18,19
 1480 160 1480 160 1480 250 c 2,20,-1
 1480 1039 l 1,21,-1
 1650 1120 l 1,22,-1
 1660 1120 l 1,23,-1
 1660 280 l 2,24,25
 1660 0 1660 0 1380 0 c 2,26,-1
 1110 0 l 2,27,28
 989 0 989 0 920 53 c 1,29,30
 851 0 851 0 730 0 c 2,31,-1
 460 0 l 2,0,1
852 1527 m 1,32,-1
 862 1527 l 1,33,-1
 1009 1216 l 1,34,-1
 891 1160 l 1,35,-1
 881 1160 l 1,36,-1
 732 1470 l 1,37,-1
 852 1527 l 1,32,-1
EndSplineSet
Validated: 1
EndChar

StartChar: Wacute
Encoding: 7810 7810 188
Width: 2180
Flags: W
HStem: 0 180<411.055 959.895 1220.11 1768.95> 1510 20G<327.778 380 1137.78 1190 1947.78 2000>
VStem: 180 200<213.623 1440> 990 200<206.797 1440> 1800 200<213.623 1440>
DStem2: 980 1626 1108 1570 0.427336 0.904093<4.06987 343.991>
CounterMasks: 1 38
LayerCount: 2
Fore
SplineSet
530 0 m 2,0,1
 180 0 180 0 180 350 c 2,2,-1
 180 1440 l 1,3,-1
 370 1530 l 1,4,-1
 380 1530 l 1,5,-1
 380 320 l 2,6,7
 380 180 380 180 520 180 c 2,8,-1
 850 180 l 2,9,10
 990 180 990 180 990 320 c 2,11,-1
 990 1440 l 1,12,-1
 1180 1530 l 1,13,-1
 1190 1530 l 1,14,-1
 1190 320 l 2,15,16
 1190 180 1190 180 1330 180 c 2,17,-1
 1660 180 l 2,18,19
 1800 180 1800 180 1800 320 c 2,20,-1
 1800 1440 l 1,21,-1
 1990 1530 l 1,22,-1
 2000 1530 l 1,23,-1
 2000 350 l 2,24,25
 2000 0 2000 0 1650 0 c 2,26,-1
 1340 0 l 2,27,28
 1177 0 1177 0 1090 76 c 1,29,30
 1003 0 1003 0 840 0 c 2,31,-1
 530 0 l 2,0,1
1137 1937 m 1,32,-1
 1257 1880 l 1,33,-1
 1108 1570 l 1,34,-1
 1098 1570 l 1,35,-1
 980 1626 l 1,36,-1
 1127 1937 l 1,37,-1
 1137 1937 l 1,32,-1
EndSplineSet
Validated: 1
EndChar

StartChar: wacute
Encoding: 7811 7811 189
Width: 1840
Flags: W
HStem: 0 160<372.021 819.73 1020.27 1467.98> 1100 20G<308.025 360 958.025 1010 1608.02 1660>
VStem: 180 180<170.898 1039> 830 180<167.932 1039> 1480 180<170.898 1039>
DStem2: 802 1216 930 1160 0.427336 0.904093<4.06987 343.991>
CounterMasks: 1 38
LayerCount: 2
Fore
SplineSet
460 0 m 2,0,1
 180 0 180 0 180 280 c 2,2,-1
 180 1039 l 1,3,-1
 350 1120 l 1,4,-1
 360 1120 l 1,5,-1
 360 250 l 2,6,7
 360 160 360 160 450 160 c 2,8,-1
 740 160 l 2,9,10
 830 160 830 160 830 250 c 2,11,-1
 830 1039 l 1,12,-1
 1000 1120 l 1,13,-1
 1010 1120 l 1,14,-1
 1010 250 l 2,15,16
 1010 160 1010 160 1100 160 c 2,17,-1
 1390 160 l 2,18,19
 1480 160 1480 160 1480 250 c 2,20,-1
 1480 1039 l 1,21,-1
 1650 1120 l 1,22,-1
 1660 1120 l 1,23,-1
 1660 280 l 2,24,25
 1660 0 1660 0 1380 0 c 2,26,-1
 1110 0 l 2,27,28
 989 0 989 0 920 53 c 1,29,30
 851 0 851 0 730 0 c 2,31,-1
 460 0 l 2,0,1
959 1527 m 1,32,-1
 1079 1470 l 1,33,-1
 930 1160 l 1,34,-1
 920 1160 l 1,35,-1
 802 1216 l 1,36,-1
 949 1527 l 1,37,-1
 959 1527 l 1,32,-1
EndSplineSet
Validated: 1
EndChar

StartChar: Wdieresis
Encoding: 7812 7812 190
Width: 2180
Flags: W
HStem: 0 180<411.055 959.895 1220.11 1768.95> 1510 20G<327.778 380 1137.78 1190 1947.78 2000> 1640 227<866.034 1021.97 1143 1299>
VStem: 180 200<213.623 1440> 832 224<1674.55 1832.45> 990 200<206.797 1440> 1110 222<1675.07 1832.93> 1800 200<213.623 1440>
LayerCount: 2
Fore
SplineSet
530 0 m 2,0,1
 180 0 180 0 180 350 c 2,2,-1
 180 1440 l 1,3,-1
 370 1530 l 1,4,-1
 380 1530 l 1,5,-1
 380 320 l 2,6,7
 380 180 380 180 520 180 c 2,8,-1
 850 180 l 2,9,10
 990 180 990 180 990 320 c 2,11,-1
 990 1440 l 1,12,-1
 1180 1530 l 1,13,-1
 1190 1530 l 1,14,-1
 1190 320 l 2,15,16
 1190 180 1190 180 1330 180 c 2,17,-1
 1660 180 l 2,18,19
 1800 180 1800 180 1800 320 c 2,20,-1
 1800 1440 l 1,21,-1
 1990 1530 l 1,22,-1
 2000 1530 l 1,23,-1
 2000 350 l 2,24,25
 2000 0 2000 0 1650 0 c 2,26,-1
 1340 0 l 2,27,28
 1177 0 1177 0 1090 76 c 1,29,30
 1003 0 1003 0 840 0 c 2,31,-1
 530 0 l 2,0,1
1221 1868 m 128,-1,33
 1268 1868 1268 1868 1300 1834 c 128,-1,34
 1332 1800 1332 1800 1332 1754 c 128,-1,35
 1332 1708 1332 1708 1300 1674 c 128,-1,36
 1268 1640 1268 1640 1221 1640 c 128,-1,37
 1174 1640 1174 1640 1142 1674 c 128,-1,38
 1110 1708 1110 1708 1110 1754 c 128,-1,39
 1110 1800 1110 1800 1142 1834 c 128,-1,32
 1174 1868 1174 1868 1221 1868 c 128,-1,33
944 1867 m 128,-1,41
 990 1867 990 1867 1023 1833.5 c 128,-1,42
 1056 1800 1056 1800 1056 1753.5 c 128,-1,43
 1056 1707 1056 1707 1023 1673.5 c 128,-1,44
 990 1640 990 1640 944 1640 c 128,-1,45
 898 1640 898 1640 865 1673.5 c 128,-1,46
 832 1707 832 1707 832 1753.5 c 128,-1,47
 832 1800 832 1800 865 1833.5 c 128,-1,40
 898 1867 898 1867 944 1867 c 128,-1,41
EndSplineSet
Validated: 1
EndChar

StartChar: wdieresis
Encoding: 7813 7813 191
Width: 1840
Flags: W
HStem: 0 160<372.021 819.73 1020.27 1467.98> 1100 20G<308.025 360 958.025 1010 1608.02 1660> 1230 227<703.034 858.966 980.004 1136>
VStem: 180 180<170.898 1039> 669 224<1264.55 1422.45> 830 180<167.932 1039> 947 222<1265.07 1422.93> 1480 180<170.898 1039>
LayerCount: 2
Fore
SplineSet
460 0 m 2,0,1
 180 0 180 0 180 280 c 2,2,-1
 180 1039 l 1,3,-1
 350 1120 l 1,4,-1
 360 1120 l 1,5,-1
 360 250 l 2,6,7
 360 160 360 160 450 160 c 2,8,-1
 740 160 l 2,9,10
 830 160 830 160 830 250 c 2,11,-1
 830 1039 l 1,12,-1
 1000 1120 l 1,13,-1
 1010 1120 l 1,14,-1
 1010 250 l 2,15,16
 1010 160 1010 160 1100 160 c 2,17,-1
 1390 160 l 2,18,19
 1480 160 1480 160 1480 250 c 2,20,-1
 1480 1039 l 1,21,-1
 1650 1120 l 1,22,-1
 1660 1120 l 1,23,-1
 1660 280 l 2,24,25
 1660 0 1660 0 1380 0 c 2,26,-1
 1110 0 l 2,27,28
 989 0 989 0 920 53 c 1,29,30
 851 0 851 0 730 0 c 2,31,-1
 460 0 l 2,0,1
1058 1458 m 128,-1,33
 1105 1458 1105 1458 1137 1424 c 128,-1,34
 1169 1390 1169 1390 1169 1344 c 128,-1,35
 1169 1298 1169 1298 1137 1264 c 128,-1,36
 1105 1230 1105 1230 1058 1230 c 128,-1,37
 1011 1230 1011 1230 979 1264 c 128,-1,38
 947 1298 947 1298 947 1344 c 128,-1,39
 947 1390 947 1390 979 1424 c 128,-1,32
 1011 1458 1011 1458 1058 1458 c 128,-1,33
781 1457 m 128,-1,41
 827 1457 827 1457 860 1423.5 c 128,-1,42
 893 1390 893 1390 893 1343.5 c 128,-1,43
 893 1297 893 1297 860 1263.5 c 128,-1,44
 827 1230 827 1230 781 1230 c 128,-1,45
 735 1230 735 1230 702 1263.5 c 128,-1,46
 669 1297 669 1297 669 1343.5 c 128,-1,47
 669 1390 669 1390 702 1423.5 c 128,-1,40
 735 1457 735 1457 781 1457 c 128,-1,41
EndSplineSet
Validated: 1
EndChar

StartChar: Ygrave
Encoding: 7922 7922 192
Width: 1210
Flags: W
HStem: -20 21G<505 557.222> 450 180<351.055 505 705 858.945> 1510 20G<267.778 320 1037.78 1090>
VStem: 120 200<663.623 1440> 505 200<70 450> 890 200<663.623 1440>
DStem2: 592 1937 462 1880 0.427336 -0.904093<0 339.921>
CounterMasks: 1 1c
LayerCount: 2
Fore
SplineSet
515 -20 m 1,0,-1
 505 -20 l 1,1,-1
 505 450 l 1,2,-1
 470 450 l 2,3,4
 120 450 120 450 120 800 c 2,5,-1
 120 1440 l 1,6,-1
 310 1530 l 1,7,-1
 320 1530 l 1,8,-1
 320 770 l 2,9,10
 320 630 320 630 460 630 c 2,11,-1
 750 630 l 2,12,13
 890 630 890 630 890 770 c 2,14,-1
 890 1440 l 1,15,-1
 1080 1530 l 1,16,-1
 1090 1530 l 1,17,-1
 1090 800 l 2,18,19
 1090 450 1090 450 740 450 c 2,20,-1
 705 450 l 1,21,-1
 705 70 l 1,22,-1
 515 -20 l 1,0,-1
582 1937 m 1,23,-1
 592 1937 l 1,24,-1
 739 1626 l 1,25,-1
 621 1570 l 1,26,-1
 611 1570 l 1,27,-1
 462 1880 l 1,28,-1
 582 1937 l 1,23,-1
EndSplineSet
Validated: 1
EndChar

StartChar: ygrave
Encoding: 7923 7923 193
Width: 1210
Flags: W
HStem: -410 160<391 817.979> 0 160<372.021 821.305> 1100 20G<308.025 360 958.025 1010>
VStem: 180 180<170.898 1039> 830 180<-239.102 21 167.932 1039>
DStem2: 545 1527 415 1470 0.427336 -0.904093<0 339.921>
LayerCount: 2
Fore
SplineSet
460 0 m 2,0,1
 180 0 180 0 180 280 c 2,2,-1
 180 1039 l 1,3,-1
 350 1120 l 1,4,-1
 360 1120 l 1,5,-1
 360 250 l 2,6,7
 360 160 360 160 450 160 c 2,8,-1
 740 160 l 2,9,10
 830 160 830 160 830 250 c 2,11,-1
 830 1039 l 1,12,-1
 1000 1120 l 1,13,-1
 1010 1120 l 1,14,-1
 1010 -130 l 2,15,16
 1010 -410 1010 -410 730 -410 c 2,17,-1
 320 -410 l 1,18,-1
 320 -400 l 1,19,-1
 391 -250 l 1,20,-1
 740 -250 l 2,21,22
 830 -250 830 -250 830 -160 c 2,23,-1
 830 21 l 1,24,25
 784 0 784 0 730 0 c 2,26,-1
 460 0 l 2,0,1
535 1527 m 1,27,-1
 545 1527 l 1,28,-1
 692 1216 l 1,29,-1
 574 1160 l 1,30,-1
 564 1160 l 1,31,-1
 415 1470 l 1,32,-1
 535 1527 l 1,27,-1
EndSplineSet
Validated: 1
EndChar

StartChar: AE
Encoding: 198 198 194
Width: 1688
Flags: W
HStem: -20 21G<180 232.222> 0 180<1028 1558> 665 180<380 828 1028 1508> 1330 180<411.055 828 1028 1508>
VStem: 180 200<70 665 845 1296.38> 828 200<180 665 845 1330>
LayerCount: 2
Fore
SplineSet
1558 0 m 1,0,-1
 828 0 l 1,1,-1
 828 665 l 1,2,-1
 380 665 l 1,3,-1
 380 70 l 1,4,-1
 190 -20 l 1,5,-1
 180 -20 l 1,6,-1
 180 1160 l 2,7,8
 180 1510 180 1510 530 1510 c 2,9,-1
 1588 1510 l 1,10,-1
 1588 1500 l 1,11,-1
 1508 1330 l 1,12,-1
 1028 1330 l 1,13,-1
 1028 845 l 1,14,-1
 1588 845 l 1,15,-1
 1588 835 l 1,16,-1
 1508 665 l 1,17,-1
 1028 665 l 1,18,-1
 1028 180 l 1,19,-1
 1638 180 l 1,20,-1
 1638 170 l 1,21,-1
 1558 0 l 1,0,-1
828 1330 m 9,22,-1
 520 1330 l 2,23,24
 380 1330 380 1330 380 1190 c 2,25,26
 380 845 l 1,27,-1
 828 845 l 1,28,-1
 828 1330 l 9,22,-1
EndSplineSet
Validated: 1
EndChar

StartChar: Eth
Encoding: 208 208 195
Width: 1350
Flags: W
HStem: 0 180<400 958.945> 695 120<92 200 400 678> 1330 180<400 958.945>
VStem: 200 200<180 695 815 1330> 990 200<213.623 1296.38>
CounterMasks: 1 e0
LayerCount: 2
Fore
SplineSet
200 0 m 1,0,-1
 200 695 l 1,1,-1
 40 695 l 1,2,-1
 40 705 l 1,3,-1
 92 815 l 1,4,-1
 200 815 l 1,5,-1
 200 1440 l 1,6,-1
 348 1510 l 1,7,-1
 840 1510 l 2,8,9
 1190 1510 1190 1510 1190 1160 c 2,10,-1
 1190 350 l 2,11,12
 1190 0 1190 0 840 0 c 2,13,-1
 200 0 l 1,0,-1
400 180 m 1,14,-1
 850 180 l 2,15,16
 990 180 990 180 990 320 c 2,17,-1
 990 1190 l 2,18,19
 990 1330 990 1330 850 1330 c 2,20,-1
 400 1330 l 1,21,-1
 400 815 l 1,22,-1
 730 815 l 1,23,-1
 730 805 l 1,24,-1
 678 695 l 1,25,-1
 400 695 l 1,26,-1
 400 180 l 1,14,-1
EndSplineSet
Validated: 1
EndChar

StartChar: Dcroat
Encoding: 272 272 196
Width: 1350
Flags: W
HStem: 0 180<400 958.945> 695 120<92 200 400 678> 1330 180<400 958.945>
VStem: 200 200<180 695 815 1330> 990 200<213.623 1296.38>
CounterMasks: 1 e0
LayerCount: 2
Fore
SplineSet
200 0 m 1,0,-1
 200 695 l 1,1,-1
 40 695 l 1,2,-1
 40 705 l 1,3,-1
 92 815 l 1,4,-1
 200 815 l 1,5,-1
 200 1440 l 1,6,-1
 348 1510 l 1,7,-1
 840 1510 l 2,8,9
 1190 1510 1190 1510 1190 1160 c 2,10,-1
 1190 350 l 2,11,12
 1190 0 1190 0 840 0 c 2,13,-1
 200 0 l 1,0,-1
400 180 m 1,14,-1
 850 180 l 2,15,16
 990 180 990 180 990 320 c 2,17,-1
 990 1190 l 2,18,19
 990 1330 990 1330 850 1330 c 2,20,-1
 400 1330 l 1,21,-1
 400 815 l 1,22,-1
 730 815 l 1,23,-1
 730 805 l 1,24,-1
 678 695 l 1,25,-1
 400 695 l 1,26,-1
 400 180 l 1,14,-1
EndSplineSet
Validated: 1
EndChar

StartChar: Hbar
Encoding: 294 294 197
Width: 1400
Flags: W
HStem: -20 21G<200 252.222 1000 1052.22> 665 180<400 1000> 1250 120<92 200 400 1000 1200 1308> 1510 20G<347.778 400 1147.78 1200>
VStem: 200 200<70 665 845 1250 1370 1440> 1000 200<70 665 845 1250 1370 1440>
LayerCount: 2
Fore
SplineSet
210 -20 m 1,0,-1
 200 -20 l 1,1,-1
 200 1250 l 1,2,-1
 40 1250 l 1,3,-1
 40 1260 l 1,4,-1
 92 1370 l 1,5,-1
 200 1370 l 1,6,-1
 200 1440 l 1,7,-1
 390 1530 l 1,8,-1
 400 1530 l 1,9,-1
 400 1370 l 1,10,-1
 1000 1370 l 1,11,-1
 1000 1440 l 1,12,-1
 1190 1530 l 1,13,-1
 1200 1530 l 1,14,-1
 1200 1370 l 1,15,-1
 1360 1370 l 1,16,-1
 1360 1360 l 1,17,-1
 1308 1250 l 1,18,-1
 1200 1250 l 1,19,-1
 1200 70 l 1,20,-1
 1010 -20 l 1,21,-1
 1000 -20 l 1,22,-1
 1000 665 l 1,23,-1
 400 665 l 1,24,-1
 400 70 l 1,25,-1
 210 -20 l 1,0,-1
400 1250 m 1,26,-1
 400 845 l 1,27,-1
 1000 845 l 1,28,-1
 1000 1250 l 1,29,-1
 400 1250 l 1,26,-1
EndSplineSet
Validated: 1
EndChar

StartChar: IJ
Encoding: 306 306 198
Width: 1660
Flags: W
HStem: -20 21G<200 252.222> 0 180<771.055 1268.95> 1330 180<715 1300> 1510 20G<347.778 400>
VStem: 200 200<70 1440> 540 200<209.853 358> 1300 200<213.623 1330>
LayerCount: 2
Fore
SplineSet
890 0 m 2,0,1
 540 0 540 0 540 358 c 1,2,-1
 730 448 l 1,3,-1
 740 448 l 9,4,-1
 740 320 l 2,5,6
 740 180 740 180 880 180 c 2,7,-1
 1160 180 l 2,8,9
 1300 180 1300 180 1300 320 c 2,10,-1
 1300 1330 l 1,11,-1
 635 1330 l 1,12,-1
 635 1340 l 1,13,-1
 715 1510 l 1,14,-1
 1500 1510 l 1,15,-1
 1500 350 l 2,16,17
 1500 0 1500 0 1150 0 c 2,18,-1
 890 0 l 2,0,1
200 -20 m 1,19,-1
 200 1440 l 1,20,-1
 390 1530 l 1,21,-1
 400 1530 l 1,22,-1
 400 70 l 1,23,-1
 210 -20 l 1,24,-1
 200 -20 l 1,19,-1
EndSplineSet
Validated: 1
EndChar

StartChar: lslash
Encoding: 322 322 199
Width: 684
Flags: W
HStem: -20 21G<252 303.975> 1510 20G<380.025 432>
VStem: 252 180<61 647 863 1449>
DStem2: 50 685 55 555 0.906303 0.422628<0 167.013 421.436 588.026>
LayerCount: 2
Fore
SplineSet
262 -20 m 1,0,-1
 252 -20 l 1,1,-1
 252 647 l 1,2,-1
 55 555 l 1,3,-1
 50 564 l 1,4,-1
 50 685 l 1,5,-1
 252 779 l 1,6,-1
 252 1449 l 1,7,-1
 422 1530 l 1,8,-1
 432 1530 l 1,9,-1
 432 863 l 1,10,-1
 629 955 l 1,11,-1
 634 946 l 1,12,-1
 634 824 l 1,13,-1
 432 730 l 1,14,-1
 432 61 l 1,15,-1
 262 -20 l 1,0,-1
EndSplineSet
Validated: 1
EndChar

StartChar: Lslash
Encoding: 321 321 200
Width: 1020
Flags: W
HStem: 0 180<400 930> 1510 20G<347.778 400>
VStem: 200 200<180 590 816 1440>
DStem2: 120 686 200 590 0.906902 0.421341<0 32.1034 308.707 587.776>
LayerCount: 2
Fore
SplineSet
200 0 m 1,0,-1
 200 590 l 1,1,-1
 125 555 l 1,2,-1
 120 564 l 1,3,-1
 120 686 l 1,4,-1
 200 723 l 1,5,-1
 200 1440 l 1,6,-1
 390 1530 l 1,7,-1
 400 1530 l 1,8,-1
 400 816 l 1,9,-1
 699 955 l 1,10,-1
 704 946 l 1,11,-1
 704 824 l 1,12,-1
 400 683 l 1,13,-1
 400 180 l 1,14,-1
 1010 180 l 1,15,-1
 1010 170 l 1,16,-1
 930 0 l 1,17,-1
 200 0 l 1,0,-1
EndSplineSet
Validated: 1
EndChar

StartChar: Eng
Encoding: 330 330 201
Width: 1370
Flags: W
HStem: -410 180<856 958.945> -20 21G<180 232.222> 1330 180<411.055 958.945>
VStem: 180 200<70 1296.38> 990 200<-204.836 1296.38>
LayerCount: 2
Fore
SplineSet
190 -20 m 1,0,-1
 180 -20 l 1,1,-1
 180 1160 l 2,2,3
 180 1510 180 1510 530 1510 c 2,4,-1
 840 1510 l 2,5,6
 1190 1510 1190 1510 1190 1160 c 2,7,-1
 1190 -60 l 2,8,9
 1190 -410 1190 -410 840 -410 c 2,10,-1
 775 -410 l 1,11,-1
 775 -400 l 1,12,-1
 856 -230 l 1,13,14
 990 -230 990 -230 990 -90 c 2,15,-1
 990 1190 l 2,16,17
 990 1330 990 1330 850 1330 c 2,18,-1
 520 1330 l 2,19,20
 380 1330 380 1330 380 1190 c 2,21,-1
 380 70 l 1,22,-1
 190 -20 l 1,0,-1
EndSplineSet
Validated: 1
EndChar

StartChar: OE
Encoding: 338 338 202
Width: 1674
Flags: W
HStem: 0 180<391.055 814 1014 1544> 665 180<1014 1494> 1330 180<391.055 814 1014 1494>
VStem: 160 200<213.623 1296.38> 814 200<180 665 845 1330>
CounterMasks: 1 e0
LayerCount: 2
Fore
SplineSet
814 180 m 17,0,-1
 814 1330 l 1,1,-1
 500 1330 l 2,2,3
 360 1330 360 1330 360 1190 c 2,4,5
 360 320 l 2,6,7
 360 180 360 180 500 180 c 2,8,-1
 814 180 l 17,0,-1
1544 0 m 1,9,-1
 510 0 l 2,10,11
 160 0 160 0 160 350 c 2,12,-1
 160 1160 l 2,13,14
 160 1510 160 1510 510 1510 c 2,15,-1
 1574 1510 l 1,16,-1
 1574 1500 l 1,17,-1
 1494 1330 l 1,18,-1
 1014 1330 l 1,19,-1
 1014 845 l 1,20,-1
 1574 845 l 1,21,-1
 1574 835 l 1,22,-1
 1494 665 l 1,23,-1
 1014 665 l 1,24,-1
 1014 180 l 1,25,-1
 1624 180 l 1,26,-1
 1624 170 l 1,27,-1
 1544 0 l 1,9,-1
EndSplineSet
Validated: 1
EndChar

StartChar: Thorn
Encoding: 222 222 203
Width: 1210
Flags: W
HStem: -20 21G<200 252.222> 250 180<400 898.945> 1080 180<400 898.945> 1510 20G<347.778 400>
VStem: 200 200<70 250 430 1080 1260 1440> 930 200<463.623 1046.38>
LayerCount: 2
Fore
SplineSet
210 -20 m 1,0,-1
 200 -20 l 1,1,-1
 200 1440 l 1,2,-1
 390 1530 l 1,3,-1
 400 1530 l 1,4,-1
 400 1260 l 1,5,-1
 780 1260 l 2,6,7
 1130 1260 1130 1260 1130 910 c 2,8,-1
 1130 600 l 2,9,10
 1130 250 1130 250 780 250 c 2,11,-1
 400 250 l 1,12,-1
 400 70 l 1,13,-1
 210 -20 l 1,0,-1
400 430 m 1,14,-1
 790 430 l 2,15,16
 930 430 930 430 930 570 c 2,17,-1
 930 940 l 2,18,19
 930 1080 930 1080 790 1080 c 2,20,-1
 400 1080 l 1,21,-1
 400 430 l 1,14,-1
EndSplineSet
Validated: 1
EndChar

StartChar: Tbar
Encoding: 358 358 204
Width: 1070
Flags: W
HStem: -20 21G<435 487.222> 460 120<292 435 635 778> 1330 180<90 435 635 980>
VStem: 435 200<70 460 580 1330>
LayerCount: 2
Fore
SplineSet
445 -20 m 1,0,-1
 435 -20 l 1,1,-1
 435 460 l 1,2,-1
 240 460 l 1,3,-1
 240 470 l 1,4,-1
 292 580 l 1,5,-1
 435 580 l 1,6,-1
 435 1330 l 1,7,-1
 10 1330 l 1,8,-1
 10 1340 l 1,9,-1
 90 1510 l 1,10,-1
 1060 1510 l 1,11,-1
 1060 1500 l 1,12,-1
 980 1330 l 1,13,-1
 635 1330 l 1,14,-1
 635 580 l 1,15,-1
 830 580 l 1,16,-1
 830 570 l 1,17,-1
 778 460 l 1,18,-1
 635 460 l 1,19,-1
 635 70 l 1,20,-1
 445 -20 l 1,0,-1
EndSplineSet
Validated: 1
EndChar

StartChar: tbar
Encoding: 359 359 205
Width: 780
Flags: W
HStem: -20 21G<300 351.975> 460 120<152 300 480 628> 940 160<81 300 480 699> 1510 20G<428.025 480>
VStem: 300 180<61 460 580 940 1100 1449>
LayerCount: 2
Fore
SplineSet
310 -20 m 1,0,-1
 300 -20 l 1,1,-1
 300 460 l 1,2,-1
 100 460 l 1,3,-1
 100 470 l 1,4,-1
 152 580 l 1,5,-1
 300 580 l 1,6,-1
 300 940 l 1,7,-1
 10 940 l 1,8,-1
 10 950 l 1,9,-1
 81 1100 l 1,10,-1
 300 1100 l 1,11,-1
 300 1449 l 1,12,-1
 470 1530 l 1,13,-1
 480 1530 l 1,14,-1
 480 1100 l 1,15,-1
 770 1100 l 1,16,-1
 770 1090 l 1,17,-1
 699 940 l 1,18,-1
 480 940 l 1,19,-1
 480 580 l 1,20,-1
 680 580 l 1,21,-1
 680 570 l 1,22,-1
 628 460 l 1,23,-1
 480 460 l 1,24,-1
 480 61 l 1,25,-1
 310 -20 l 1,0,-1
EndSplineSet
Validated: 1
EndChar

StartChar: thorn
Encoding: 254 254 206
Width: 1190
Flags: W
HStem: -430 21G<200 251.975> 0 160<388.865 837.979> 940 160<388.865 837.979> 1510 20G<328.025 380>
VStem: 200 180<-349 21 167.932 932.068 1079 1449> 850 180<170.898 929.102>
LayerCount: 2
Fore
SplineSet
750 0 m 2,0,-1
 480 0 l 2,1,2
 427 0 427 0 380 21 c 1,3,-1
 380 -349 l 1,4,-1
 210 -430 l 1,5,-1
 200 -430 l 1,6,-1
 200 1449 l 1,7,-1
 370 1530 l 1,8,-1
 380 1530 l 1,9,-1
 380 1079 l 1,10,11
 427 1100 427 1100 480 1100 c 2,12,-1
 750 1100 l 2,13,14
 1030 1100 1030 1100 1030 820 c 2,15,-1
 1030 280 l 2,16,17
 1030 0 1030 0 750 0 c 2,0,-1
470 940 m 2,18,19
 380 940 380 940 380 850 c 2,20,-1
 380 250 l 2,21,22
 380 160 380 160 470 160 c 2,23,-1
 760 160 l 2,24,25
 850 160 850 160 850 250 c 2,26,-1
 850 850 l 2,27,28
 850 940 850 940 760 940 c 2,29,-1
 470 940 l 2,18,19
EndSplineSet
Validated: 1
EndChar

StartChar: eth
Encoding: 240 240 207
Width: 1150
Flags: W
HStem: 0 160<352.021 797.979> 940 160<352.021 654> 1510 20G<424 491.938>
VStem: 160 180<170.898 929.102> 810 180<170.898 931.226>
DStem2: 295 1309 300 1180 0.905974 0.423333<0 121.247 329.308 438.473>
LayerCount: 2
Fore
SplineSet
440 0 m 2,0,1
 160 0 160 0 160 280 c 2,2,-1
 160 820 l 2,3,4
 160 1100 160 1100 440 1100 c 2,5,-1
 654 1100 l 1,6,-1
 492 1269 l 1,7,-1
 300 1180 l 1,8,-1
 295 1189 l 1,9,-1
 295 1309 l 1,10,-1
 405 1360 l 1,11,-1
 314 1455 l 1,12,-1
 464 1530 l 1,13,-1
 474 1530 l 1,14,-1
 561 1433 l 1,15,-1
 738 1516 l 1,16,-1
 743 1507 l 1,17,-1
 743 1386 l 1,18,-1
 644 1340 l 1,19,-1
 923 1027 l 2,20,21
 990 952 990 952 990 820 c 2,22,-1
 990 280 l 2,23,24
 990 0 990 0 710 0 c 2,25,-1
 440 0 l 2,0,1
430 160 m 2,26,-1
 720 160 l 2,27,28
 810 160 810 160 810 250 c 2,29,-1
 810 850 l 2,30,31
 810 940 810 940 720 940 c 2,32,-1
 430 940 l 2,33,34
 340 940 340 940 340 850 c 2,35,-1
 340 250 l 2,36,37
 340 160 340 160 430 160 c 2,26,-1
EndSplineSet
Validated: 1
EndChar

StartChar: oe
Encoding: 339 339 208
Width: 1717
Flags: W
HStem: 0 160<352.021 801.906 975.564 1364.98> 940 160<352.021 800.226 976.094 1364.98>
VStem: 160 180<170.898 929.102> 810 180<168.473 373 548 930.922> 1377 180<170.898 307 734 929.102>
DStem2: 990 548 990 373 0.902242 0.43123<0 429.376>
LayerCount: 2
Fore
SplineSet
430 160 m 2,0,-1
 720 160 l 2,1,2
 810 160 810 160 810 250 c 2,3,-1
 810 850 l 2,4,5
 810 940 810 940 720 940 c 2,6,-1
 430 940 l 2,7,8
 340 940 340 940 340 850 c 2,9,-1
 340 250 l 2,10,11
 340 160 340 160 430 160 c 2,0,-1
440 0 m 2,12,13
 160 0 160 0 160 280 c 2,14,-1
 160 820 l 2,15,16
 160 1100 160 1100 440 1100 c 2,17,-1
 710 1100 l 2,18,19
 806 1100 806 1100 869 1067 c 1,20,21
 932 1100 932 1100 1027 1100 c 2,22,-1
 1277 1100 l 2,23,24
 1557 1100 1557 1100 1557 820 c 2,25,-1
 1557 644 l 1,26,-1
 990 373 l 1,27,-1
 990 280 l 2,28,29
 990 205 990 205 975 166 c 1,30,31
 993 160 993 160 1017 160 c 2,32,-1
 1287 160 l 2,33,34
 1377 160 1377 160 1377 250 c 2,35,-1
 1377 307 l 1,36,-1
 1547 388 l 1,37,-1
 1557 388 l 1,38,-1
 1557 280 l 2,39,40
 1557 0 1557 0 1277 0 c 2,41,-1
 1027 0 l 2,42,43
 930 0 930 0 868 33 c 1,44,45
 805 0 805 0 710 0 c 2,46,-1
 440 0 l 2,12,13
990 548 m 1,47,-1
 1377 734 l 1,48,-1
 1377 850 l 2,49,50
 1377 940 1377 940 1287 940 c 2,51,-1
 1017 940 l 2,52,53
 993 940 993 940 975 934 c 1,54,55
 990 885 990 885 990 820 c 2,56,-1
 990 548 l 1,47,-1
EndSplineSet
Validated: 1
EndChar

StartChar: eng
Encoding: 331 331 209
Width: 1190
Flags: W
HStem: -410 160<666 817.979> -20 21G<180 231.975> 940 160<372.021 817.979>
VStem: 180 180<61 929.102> 830 180<-239.102 929.102>
LayerCount: 2
Fore
SplineSet
190 -20 m 1,0,-1
 180 -20 l 1,1,-1
 180 820 l 2,2,3
 180 1100 180 1100 460 1100 c 2,4,-1
 730 1100 l 2,5,6
 1010 1100 1010 1100 1010 820 c 2,7,-1
 1010 -130 l 2,8,9
 1010 -410 1010 -410 730 -410 c 2,10,-1
 595 -410 l 1,11,-1
 595 -400 l 1,12,-1
 666 -250 l 1,13,-1
 740 -250 l 2,14,15
 830 -250 830 -250 830 -160 c 2,16,-1
 830 850 l 2,17,18
 830 940 830 940 740 940 c 2,19,-1
 450 940 l 2,20,21
 360 940 360 940 360 850 c 2,22,-1
 360 61 l 1,23,-1
 190 -20 l 1,0,-1
EndSplineSet
Validated: 1
EndChar

StartChar: kgreenlandic
Encoding: 312 312 210
Width: 1170
Flags: W
HStem: -20 21G<200 251.975 830 881.975> 596 160<642 817.979> 1100 20G<328.025 380 796.582 868>
VStem: 200 180<61 588.068 711 1039> 830 180<61 585.102>
DStem2: 380 711 642 756 0.730889 0.682497<222.205 599.27>
LayerCount: 2
Fore
SplineSet
210 -20 m 1,0,-1
 200 -20 l 1,1,-1
 200 1039 l 1,2,-1
 370 1120 l 1,3,-1
 380 1120 l 1,4,-1
 380 711 l 1,5,-1
 818 1120 l 1,6,-1
 828 1120 l 1,7,-1
 968 1050 l 1,8,-1
 642 756 l 1,9,-1
 730 756 l 2,10,11
 1010 756 1010 756 1010 476 c 2,12,-1
 1010 61 l 1,13,-1
 840 -20 l 1,14,-1
 830 -20 l 1,15,-1
 830 506 l 2,16,17
 830 596 830 596 740 596 c 2,18,-1
 470 596 l 2,19,20
 380 596 380 596 380 506 c 2,21,-1
 380 61 l 1,22,-1
 210 -20 l 1,0,-1
EndSplineSet
Validated: 1
EndChar

StartChar: ij
Encoding: 307 307 211
Width: 1100
Flags: W
HStem: -410 160<556 707.979> -20 21G<200 251.975> 1100 20G<328.025 380 848.025 900> 1220 245<206.097 373.903 726.097 893.903>
VStem: 170 240<1257.13 1427.87> 200 180<61 1039> 690 240<1257.13 1427.87> 720 180<-239.102 1039>
LayerCount: 2
Fore
SplineSet
485 -410 m 1,0,-1
 485 -400 l 1,1,-1
 556 -250 l 1,2,-1
 630 -250 l 2,3,4
 720 -250 720 -250 720 -160 c 2,5,-1
 720 1039 l 1,6,-1
 890 1120 l 1,7,-1
 900 1120 l 1,8,-1
 900 -130 l 2,9,10
 900 -410 900 -410 620 -410 c 2,11,-1
 485 -410 l 1,0,-1
200 -20 m 1,12,-1
 200 1039 l 1,13,-1
 370 1120 l 1,14,-1
 380 1120 l 1,15,-1
 380 61 l 1,16,-1
 210 -20 l 1,17,-1
 200 -20 l 1,12,-1
810 1465 m 128,-1,19
 860 1465 860 1465 895 1429 c 128,-1,20
 930 1393 930 1393 930 1342.5 c 128,-1,21
 930 1292 930 1292 895 1256 c 128,-1,22
 860 1220 860 1220 810 1220 c 128,-1,23
 760 1220 760 1220 725 1256 c 128,-1,24
 690 1292 690 1292 690 1342.5 c 128,-1,25
 690 1393 690 1393 725 1429 c 128,-1,18
 760 1465 760 1465 810 1465 c 128,-1,19
290 1465 m 128,-1,27
 340 1465 340 1465 375 1429 c 128,-1,28
 410 1393 410 1393 410 1342.5 c 128,-1,29
 410 1292 410 1292 375 1256 c 128,-1,30
 340 1220 340 1220 290 1220 c 128,-1,31
 240 1220 240 1220 205 1256 c 128,-1,32
 170 1292 170 1292 170 1342.5 c 128,-1,33
 170 1393 170 1393 205 1429 c 128,-1,26
 240 1465 240 1465 290 1465 c 128,-1,27
EndSplineSet
Validated: 1
EndChar

StartChar: hbar
Encoding: 295 295 212
Width: 1210
Flags: W
HStem: -20 21G<200 251.975 850 901.975> 940 160<389.205 837.979> 1250 120<92 200 380 528> 1510 20G<328.025 380>
VStem: 200 180<61 932.068 1079 1250 1370 1449> 850 180<61 929.102>
LayerCount: 2
Fore
SplineSet
210 -20 m 1,0,-1
 200 -20 l 1,1,-1
 200 1250 l 1,2,-1
 40 1250 l 1,3,-1
 40 1260 l 1,4,-1
 92 1370 l 1,5,-1
 200 1370 l 1,6,-1
 200 1449 l 1,7,-1
 370 1530 l 1,8,-1
 380 1530 l 1,9,-1
 380 1370 l 1,10,-1
 580 1370 l 1,11,-1
 580 1360 l 1,12,-1
 528 1250 l 1,13,-1
 380 1250 l 1,14,-1
 380 1079 l 1,15,16
 429 1100 429 1100 480 1100 c 2,17,-1
 750 1100 l 2,18,19
 1030 1100 1030 1100 1030 820 c 2,20,-1
 1030 61 l 1,21,-1
 860 -20 l 1,22,-1
 850 -20 l 1,23,-1
 850 850 l 2,24,25
 850 940 850 940 760 940 c 2,26,-1
 470 940 l 2,27,28
 380 940 380 940 380 850 c 2,29,-1
 380 61 l 1,30,-1
 210 -20 l 1,0,-1
EndSplineSet
Validated: 1
EndChar

StartChar: longs
Encoding: 383 383 213
Width: 820
Flags: W
HStem: -20 21G<220 271.975> 740 160<81 220> 1350 160<412.021 739>
VStem: 220 180<61 740 900 1339.1>
LayerCount: 2
Fore
SplineSet
230 -20 m 1,0,-1
 220 -20 l 1,1,-1
 220 740 l 1,2,-1
 10 740 l 1,3,-1
 10 750 l 1,4,-1
 81 900 l 1,5,-1
 220 900 l 1,6,-1
 220 1230 l 2,7,8
 220 1510 220 1510 500 1510 c 2,9,-1
 810 1510 l 1,10,-1
 810 1500 l 1,11,-1
 739 1350 l 1,12,-1
 490 1350 l 2,13,14
 400 1350 400 1350 400 1260 c 2,15,-1
 400 61 l 1,16,-1
 230 -20 l 1,0,-1
EndSplineSet
Validated: 1
EndChar

StartChar: florin
Encoding: 402 402 214
Width: 800
Flags: W
HStem: -410 160<36 187.979> 740 160<380 680> 1350 160<392.021 719>
VStem: 200 180<-239.102 740 900 1339.1>
LayerCount: 2
Fore
SplineSet
-35 -410 m 1,0,-1
 -35 -400 l 1,1,-1
 36 -250 l 1,2,-1
 110 -250 l 2,3,4
 200 -250 200 -250 200 -160 c 2,5,-1
 200 1230 l 2,6,7
 200 1510 200 1510 480 1510 c 2,8,-1
 790 1510 l 1,9,-1
 790 1500 l 1,10,-1
 719 1350 l 1,11,-1
 470 1350 l 2,12,13
 380 1350 380 1350 380 1260 c 2,14,-1
 380 900 l 1,15,-1
 751 900 l 1,16,-1
 751 890 l 1,17,-1
 680 740 l 1,18,-1
 380 740 l 1,19,-1
 380 -130 l 2,20,21
 380 -410 380 -410 100 -410 c 2,22,-1
 -35 -410 l 1,0,-1
EndSplineSet
Validated: 1
EndChar

StartChar: dcroat
Encoding: 273 273 215
Width: 1170
Flags: W
HStem: 0 160<352.021 797.979> 940 160<352.021 801.135> 1250 120<662 810 990 1098> 1510 20G<938.025 990>
VStem: 160 180<170.898 929.102> 810 180<170.898 932.068 1079 1250 1370 1449>
LayerCount: 2
Fore
SplineSet
440 0 m 2,0,1
 160 0 160 0 160 280 c 2,2,-1
 160 820 l 2,3,4
 160 1100 160 1100 440 1100 c 2,5,-1
 710 1100 l 2,6,7
 763 1100 763 1100 810 1079 c 1,8,-1
 810 1250 l 1,9,-1
 610 1250 l 1,10,-1
 610 1260 l 1,11,-1
 662 1370 l 1,12,-1
 810 1370 l 1,13,-1
 810 1449 l 1,14,-1
 980 1530 l 1,15,-1
 990 1530 l 1,16,-1
 990 1370 l 1,17,-1
 1150 1370 l 1,18,-1
 1150 1360 l 1,19,-1
 1098 1250 l 1,20,-1
 990 1250 l 1,21,-1
 990 280 l 2,22,23
 990 0 990 0 710 0 c 2,24,-1
 440 0 l 2,0,1
720 160 m 2,25,26
 810 160 810 160 810 250 c 2,27,-1
 810 850 l 2,28,29
 810 940 810 940 720 940 c 2,30,-1
 430 940 l 2,31,32
 340 940 340 940 340 850 c 2,33,-1
 340 250 l 2,34,35
 340 160 340 160 430 160 c 2,36,-1
 720 160 l 2,25,26
EndSplineSet
Validated: 1
EndChar

StartChar: germandbls
Encoding: 223 223 216
Width: 1159
Flags: W
HStem: -20 21G<180 231.975> 0 160<586 886.979> 761 160<585 802.068> 1350 160<372.021 797.979>
VStem: 180 180<61 1339.1> 810 180<929.113 1339.1> 899 180<170.898 751.14>
LayerCount: 2
Fore
SplineSet
799 0 m 2,0,-1
 515 0 l 1,1,-1
 515 10 l 1,2,-1
 586 160 l 1,3,-1
 809 160 l 2,4,5
 899 160 899 160 899 250 c 2,6,-1
 899 671 l 2,7,8
 899 761 899 761 809 761 c 2,9,-1
 514 761 l 1,10,-1
 514 771 l 1,11,-1
 585 921 l 1,12,-1
 720 921 l 2,13,14
 810 921 810 921 810 1011 c 2,15,-1
 810 1260 l 2,16,17
 810 1350 810 1350 720 1350 c 2,18,-1
 450 1350 l 2,19,20
 360 1350 360 1350 360 1260 c 2,21,-1
 360 61 l 1,22,-1
 190 -20 l 1,23,-1
 180 -20 l 1,24,-1
 180 1230 l 2,25,26
 180 1510 180 1510 460 1510 c 2,27,-1
 710 1510 l 2,28,29
 990 1510 990 1510 990 1230 c 2,30,-1
 990 1041 l 2,31,32
 990 930 990 930 924 882 c 1,33,34
 1079 822 1079 822 1079 641 c 2,35,-1
 1079 280 l 2,36,37
 1079 0 1079 0 799 0 c 2,0,-1
EndSplineSet
Validated: 1
EndChar

StartChar: ae
Encoding: 230 230 217
Width: 1611
Flags: W
HStem: -20 21G<704 755.538> 0 160<292.021 701.068 884.376 1258.98> 580 160<292.021 700.117> 940 160<315 694.226 870.094 1258.98>
VStem: 100 180<170.898 569.102> 704 180<166.35 373 548 573.65 719 930.922> 1271 180<170.898 307 734 929.102>
DStem2: 884 548 884 373 0.902242 0.43123<0 429.376>
LayerCount: 2
Fore
SplineSet
380 0 m 2,0,1
 100 0 100 0 100 280 c 2,2,-1
 100 460 l 2,3,4
 100 740 100 740 380 740 c 2,5,-1
 604 740 l 2,6,7
 663 740 663 740 704 719 c 1,8,-1
 704 850 l 2,9,10
 704 940 704 940 614 940 c 2,11,-1
 244 940 l 1,12,-1
 244 950 l 1,13,-1
 315 1100 l 1,14,-1
 604 1100 l 2,15,16
 700 1100 700 1100 763 1067 c 1,17,18
 826 1100 826 1100 921 1100 c 2,19,-1
 1171 1100 l 2,20,21
 1451 1100 1451 1100 1451 820 c 2,22,-1
 1451 644 l 1,23,-1
 884 373 l 1,24,-1
 884 162 l 1,25,26
 896 160 896 160 911 160 c 2,27,-1
 1181 160 l 2,28,29
 1271 160 1271 160 1271 250 c 2,30,-1
 1271 307 l 1,31,-1
 1441 388 l 1,32,-1
 1451 388 l 1,33,-1
 1451 280 l 2,34,35
 1451 0 1451 0 1171 0 c 2,36,-1
 921 0 l 2,37,38
 849 0 849 0 795 19 c 1,39,-1
 714 -20 l 1,40,-1
 704 -20 l 1,41,-1
 704 21 l 1,42,43
 659 0 659 0 604 0 c 2,44,-1
 380 0 l 2,0,1
370 160 m 2,45,-1
 619 160 l 2,46,47
 709 160 709 160 709 250 c 2,48,-1
 709 490 l 2,49,50
 709 580 709 580 619 580 c 2,51,-1
 370 580 l 2,52,53
 280 580 280 580 280 490 c 2,54,-1
 280 250 l 2,55,56
 280 160 280 160 370 160 c 2,45,-1
884 548 m 1,57,-1
 1271 734 l 1,58,-1
 1271 850 l 2,59,60
 1271 940 1271 940 1181 940 c 2,61,-1
 911 940 l 2,62,63
 887 940 887 940 869 934 c 1,64,65
 884 885 884 885 884 820 c 2,66,-1
 884 548 l 1,57,-1
EndSplineSet
Validated: 1
EndChar

StartChar: S
Encoding: 83 83 218
Width: 1120
Flags: W
HStem: 0 180<291.055 808.945> 754 180<374.558 808.945> 1117 21G<767 819.353> 1340 170<374.558 735.442>
VStem: 60 200<209.853 358> 153 190<967.574 1311.95> 767 190<1202 1314.16> 840 200<213.623 720.377>
LayerCount: 2
Fore
SplineSet
410 0 m 2,0,1
 60 0 60 0 60 358 c 1,2,-1
 250 448 l 1,3,-1
 260 448 l 9,4,-1
 260 320 l 2,5,6
 260 180 260 180 400 180 c 2,7,-1
 700 180 l 2,8,9
 840 180 840 180 840 320 c 2,10,-1
 840 614 l 2,11,12
 840 754 840 754 700 754 c 2,13,-1
 453 754 l 2,14,15
 153 754 153 754 153 1054 c 2,16,-1
 153 1210 l 2,17,18
 153 1510 153 1510 453 1510 c 2,19,-1
 657 1510 l 2,20,21
 957 1510 957 1510 957 1202 c 1,22,-1
 777 1117 l 1,23,-1
 767 1117 l 1,24,-1
 767 1205 l 2,25,26
 767 1340 767 1340 627 1340 c 2,27,-1
 483 1340 l 2,28,29
 343 1340 343 1340 343 1200 c 2,30,-1
 343 1074 l 2,31,32
 343 934 343 934 483 934 c 2,33,-1
 690 934 l 2,34,35
 1040 934 1040 934 1040 584 c 2,36,-1
 1040 350 l 2,37,38
 1040 0 1040 0 690 0 c 2,39,-1
 410 0 l 2,0,1
EndSplineSet
Validated: 1
EndChar

StartChar: s
Encoding: 115 115 219
Width: 910
Flags: W
HStem: 0 160<252.021 637.979> 522 160<311.75 637.979> 950 150<311.75 598.754>
VStem: 60 180<173.95 285> 128 170<692.859 941.562> 606 170<855 938.262> 650 180<170.898 511.102>
LayerCount: 2
Fore
SplineSet
340 0 m 2,0,1
 60 0 60 0 60 285 c 1,2,-1
 230 366 l 1,3,-1
 240 366 l 1,4,-1
 240 250 l 2,5,6
 240 160 240 160 330 160 c 2,7,-1
 560 160 l 2,8,9
 650 160 650 160 650 250 c 2,10,-1
 650 432 l 2,11,12
 650 522 650 522 560 522 c 2,13,-1
 368 522 l 2,14,15
 128 522 128 522 128 762 c 2,16,-1
 128 860 l 2,17,18
 128 1100 128 1100 368 1100 c 2,19,-1
 536 1100 l 2,20,21
 776 1100 776 1100 776 855 c 1,22,-1
 616 779 l 1,23,-1
 606 779 l 1,24,-1
 606 865 l 2,25,26
 606 950 606 950 516 950 c 2,27,-1
 388 950 l 2,28,29
 298 950 298 950 298 860 c 2,30,-1
 298 772 l 2,31,32
 298 682 298 682 388 682 c 2,33,-1
 550 682 l 2,34,35
 830 682 830 682 830 402 c 2,36,-1
 830 280 l 2,37,38
 830 0 830 0 550 0 c 2,39,-1
 340 0 l 2,0,1
EndSplineSet
Validated: 1
EndChar

StartChar: Aringacute
Encoding: 506 506 220
Width: 1370
Flags: W
HStem: -20 21G<180 232.222 990 1042.22> 665 180<380 990> 1330 180<411.055 958.945> 1570 98<524.776 662.24> 1836 98<525.247 662.469>
VStem: 180 200<70 665 845 1296.38> 410 97<1686.75 1818.1> 673 97<1678.01 1825.38> 990 200<70 665 845 1296.38>
DStem2: 752 1626 880 1570 0.427336 0.904093<4.06987 343.991>
LayerCount: 2
Fore
SplineSet
190 -20 m 1,0,-1
 180 -20 l 1,1,-1
 180 1160 l 2,2,3
 180 1510 180 1510 530 1510 c 2,4,-1
 840 1510 l 2,5,6
 1190 1510 1190 1510 1190 1160 c 2,7,-1
 1190 70 l 1,8,-1
 1000 -20 l 1,9,-1
 990 -20 l 1,10,-1
 990 665 l 1,11,-1
 380 665 l 1,12,-1
 380 70 l 1,13,-1
 190 -20 l 1,0,-1
380 845 m 1,14,-1
 990 845 l 1,15,-1
 990 1190 l 2,16,17
 990 1330 990 1330 850 1330 c 2,18,-1
 520 1330 l 2,19,20
 380 1330 380 1330 380 1190 c 2,21,-1
 380 845 l 1,14,-1
591 1836 m 0,22,23
 556 1835 556 1835 532 1811 c 0,24,25
 507 1786 507 1786 507 1752 c 128,-1,26
 507 1718 507 1718 531 1694 c 128,-1,27
 555 1670 555 1670 590 1668 c 256,28,29
 626 1668 626 1668 648 1693 c 0,30,31
 672 1719 672 1719 673 1752 c 0,32,33
 672 1789 672 1789 648 1811 c 0,34,35
 622 1835 622 1835 591 1836 c 0,22,23
592 1934 m 0,36,37
 665 1934 665 1934 717 1881 c 0,38,39
 770 1826 770 1826 770 1753 c 0,40,41
 770 1677 770 1677 717 1624 c 0,42,43
 663 1570 663 1570 590 1570 c 256,44,45
 517 1570 517 1570 463 1624 c 0,46,47
 410 1677 410 1677 410 1753 c 0,48,49
 410 1827 410 1827 463 1881 c 0,50,51
 516 1934 516 1934 592 1934 c 0,36,37
909 1937 m 1,52,-1
 1029 1880 l 1,53,-1
 880 1570 l 1,54,-1
 870 1570 l 1,55,-1
 752 1626 l 1,56,-1
 899 1937 l 1,57,-1
 909 1937 l 1,52,-1
EndSplineSet
Validated: 1
EndChar

StartChar: aringacute
Encoding: 507 507 221
Width: 1064
Flags: W
HStem: -20 21G<704 755.975> 0 160<292.021 701.068> 580 160<292.021 700.117> 940 160<315 691.979> 1160 98<350.776 488.24> 1426 98<351.247 488.469>
VStem: 100 180<170.898 569.102> 236 97<1276.75 1408.1> 499 97<1268.01 1415.38> 704 180<166.35 573.65 719 929.102>
DStem2: 578 1216 706 1160 0.427336 0.904093<4.06987 343.991>
LayerCount: 2
Fore
SplineSet
380 0 m 2,0,1
 100 0 100 0 100 280 c 2,2,-1
 100 460 l 2,3,4
 100 740 100 740 380 740 c 2,5,-1
 604 740 l 2,6,7
 663 740 663 740 704 719 c 1,8,-1
 704 850 l 2,9,10
 704 940 704 940 614 940 c 2,11,-1
 244 940 l 1,12,-1
 244 950 l 1,13,-1
 315 1100 l 1,14,-1
 604 1100 l 2,15,16
 884 1100 884 1100 884 820 c 2,17,-1
 884 61 l 1,18,-1
 714 -20 l 1,19,-1
 704 -20 l 1,20,-1
 704 21 l 1,21,22
 659 0 659 0 604 0 c 2,23,-1
 380 0 l 2,0,1
370 160 m 2,24,-1
 619 160 l 2,25,26
 709 160 709 160 709 250 c 2,27,-1
 709 490 l 2,28,29
 709 580 709 580 619 580 c 2,30,-1
 370 580 l 2,31,32
 280 580 280 580 280 490 c 2,33,-1
 280 250 l 2,34,35
 280 160 280 160 370 160 c 2,24,-1
417 1426 m 0,36,37
 382 1425 382 1425 358 1401 c 0,38,39
 333 1376 333 1376 333 1342 c 128,-1,40
 333 1308 333 1308 357 1284 c 128,-1,41
 381 1260 381 1260 416 1258 c 256,42,43
 452 1258 452 1258 474 1283 c 0,44,45
 498 1309 498 1309 499 1342 c 0,46,47
 498 1379 498 1379 474 1401 c 0,48,49
 448 1425 448 1425 417 1426 c 0,36,37
418 1524 m 0,50,51
 491 1524 491 1524 543 1471 c 0,52,53
 596 1416 596 1416 596 1343 c 0,54,55
 596 1267 596 1267 543 1214 c 0,56,57
 489 1160 489 1160 416 1160 c 256,58,59
 343 1160 343 1160 289 1214 c 0,60,61
 236 1267 236 1267 236 1343 c 0,62,63
 236 1417 236 1417 289 1471 c 0,64,65
 342 1524 342 1524 418 1524 c 0,50,51
735 1527 m 1,66,-1
 855 1470 l 1,67,-1
 706 1160 l 1,68,-1
 696 1160 l 1,69,-1
 578 1216 l 1,70,-1
 725 1527 l 1,71,-1
 735 1527 l 1,66,-1
EndSplineSet
Validated: 1
EndChar

StartChar: AEacute
Encoding: 508 508 222
Width: 1688
Flags: W
HStem: -20 21G<180 232.222> 0 180<1028 1558> 665 180<380 828 1028 1508> 1330 180<411.055 828 1028 1508>
VStem: 180 200<70 665 845 1296.38> 828 200<180 665 845 1330>
DStem2: 822 1626 950 1570 0.427336 0.904093<4.06987 343.991>
LayerCount: 2
Fore
SplineSet
1558 0 m 1,0,-1
 828 0 l 1,1,-1
 828 665 l 1,2,-1
 380 665 l 1,3,-1
 380 70 l 1,4,-1
 190 -20 l 1,5,-1
 180 -20 l 1,6,-1
 180 1160 l 2,7,8
 180 1510 180 1510 530 1510 c 2,9,-1
 1588 1510 l 1,10,-1
 1588 1500 l 1,11,-1
 1508 1330 l 1,12,-1
 1028 1330 l 1,13,-1
 1028 845 l 1,14,-1
 1588 845 l 1,15,-1
 1588 835 l 1,16,-1
 1508 665 l 1,17,-1
 1028 665 l 1,18,-1
 1028 180 l 1,19,-1
 1638 180 l 1,20,-1
 1638 170 l 1,21,-1
 1558 0 l 1,0,-1
828 1330 m 9,22,-1
 520 1330 l 2,23,24
 380 1330 380 1330 380 1190 c 2,25,26
 380 845 l 1,27,-1
 828 845 l 1,28,-1
 828 1330 l 9,22,-1
979 1937 m 1,29,-1
 1099 1880 l 1,30,-1
 950 1570 l 1,31,-1
 940 1570 l 1,32,-1
 822 1626 l 1,33,-1
 969 1937 l 1,34,-1
 979 1937 l 1,29,-1
EndSplineSet
Validated: 1
EndChar

StartChar: aeacute
Encoding: 509 509 223
Width: 1611
Flags: W
HStem: -20 21G<704 755.538> 0 160<292.021 701.068 884.376 1258.98> 580 160<292.021 700.117> 940 160<315 694.226 870.094 1258.98>
VStem: 100 180<170.898 569.102> 704 180<166.35 373 548 573.65 719 930.922> 1271 180<170.898 307 734 929.102>
DStem2: 716 1216 844 1160 0.427336 0.904093<4.06987 343.991> 884 548 884 373 0.902242 0.43123<0 429.376>
LayerCount: 2
Fore
SplineSet
380 0 m 2,0,1
 100 0 100 0 100 280 c 2,2,-1
 100 460 l 2,3,4
 100 740 100 740 380 740 c 2,5,-1
 604 740 l 2,6,7
 663 740 663 740 704 719 c 1,8,-1
 704 850 l 2,9,10
 704 940 704 940 614 940 c 2,11,-1
 244 940 l 1,12,-1
 244 950 l 1,13,-1
 315 1100 l 1,14,-1
 604 1100 l 2,15,16
 700 1100 700 1100 763 1067 c 1,17,18
 826 1100 826 1100 921 1100 c 2,19,-1
 1171 1100 l 2,20,21
 1451 1100 1451 1100 1451 820 c 2,22,-1
 1451 644 l 1,23,-1
 884 373 l 1,24,-1
 884 162 l 1,25,26
 896 160 896 160 911 160 c 2,27,-1
 1181 160 l 2,28,29
 1271 160 1271 160 1271 250 c 2,30,-1
 1271 307 l 1,31,-1
 1441 388 l 1,32,-1
 1451 388 l 1,33,-1
 1451 280 l 2,34,35
 1451 0 1451 0 1171 0 c 2,36,-1
 921 0 l 2,37,38
 849 0 849 0 795 19 c 1,39,-1
 714 -20 l 1,40,-1
 704 -20 l 1,41,-1
 704 21 l 1,42,43
 659 0 659 0 604 0 c 2,44,-1
 380 0 l 2,0,1
370 160 m 2,45,-1
 619 160 l 2,46,47
 709 160 709 160 709 250 c 2,48,-1
 709 490 l 2,49,50
 709 580 709 580 619 580 c 2,51,-1
 370 580 l 2,52,53
 280 580 280 580 280 490 c 2,54,-1
 280 250 l 2,55,56
 280 160 280 160 370 160 c 2,45,-1
884 548 m 1,57,-1
 1271 734 l 1,58,-1
 1271 850 l 2,59,60
 1271 940 1271 940 1181 940 c 2,61,-1
 911 940 l 2,62,63
 887 940 887 940 869 934 c 1,64,65
 884 885 884 885 884 820 c 2,66,-1
 884 548 l 1,57,-1
873 1527 m 1,67,-1
 993 1470 l 1,68,-1
 844 1160 l 1,69,-1
 834 1160 l 1,70,-1
 716 1216 l 1,71,-1
 863 1527 l 1,72,-1
 873 1527 l 1,67,-1
EndSplineSet
Validated: 1
EndChar

StartChar: Oslashacute
Encoding: 510 510 224
Width: 1330
Flags: W
HStem: 0 180<455.391 938.945> 1330 180<391.055 874.609>
VStem: 160 200<247.941 1296.38> 970 200<213.623 1262.06>
DStem2: 241 -36 349 -40 0.422823 0.906212<42.04 112.399 312.271 1479.91 1679.78 1750.14> 548 1626 676 1570 0.427336 0.904093<4.06987 343.991>
LayerCount: 2
Fore
SplineSet
820 0 m 2,0,-1
 510 0 l 2,1,2
 434 0 434 0 375 16 c 1,3,-1
 349 -40 l 1,4,-1
 250 -40 l 1,5,-1
 241 -36 l 1,6,-1
 284 57 l 1,7,8
 160 141 160 141 160 350 c 2,9,-1
 160 1160 l 2,10,11
 160 1510 160 1510 510 1510 c 2,12,-1
 820 1510 l 2,13,14
 896 1510 896 1510 955 1494 c 1,15,-1
 981 1550 l 1,16,-1
 1080 1550 l 1,17,-1
 1089 1546 l 1,18,-1
 1046 1453 l 1,19,20
 1170 1369 1170 1369 1170 1160 c 2,21,-1
 1170 350 l 2,22,23
 1170 0 1170 0 820 0 c 2,0,-1
500 180 m 2,24,-1
 830 180 l 2,25,26
 970 180 970 180 970 320 c 2,27,-1
 970 1190 l 2,28,29
 970 1233 970 1233 957 1263 c 1,30,-1
 454 185 l 1,31,32
 475 180 475 180 500 180 c 2,24,-1
373 247 m 1,33,-1
 876 1325 l 1,34,35
 855 1330 855 1330 830 1330 c 2,36,-1
 500 1330 l 2,37,38
 360 1330 360 1330 360 1190 c 2,39,-1
 360 320 l 2,40,41
 360 277 360 277 373 247 c 1,33,-1
705 1937 m 1,42,-1
 825 1880 l 1,43,-1
 676 1570 l 1,44,-1
 666 1570 l 1,45,-1
 548 1626 l 1,46,-1
 695 1937 l 1,47,-1
 705 1937 l 1,42,-1
EndSplineSet
Validated: 1
EndChar

StartChar: oslashacute
Encoding: 511 511 225
Width: 1150
Flags: W
HStem: 0 160<448 797.979> 940 160<352.021 702>
VStem: 160 180<196 929.102> 810 180<170.898 904>
DStem2: 279 34 355 -40 0.422379 0.906419<-34.9742 7.04971 185.591 999.882 1179.45 1220.45> 449 1216 577 1160 0.427336 0.904093<4.06987 343.991>
LayerCount: 2
Fore
SplineSet
710 0 m 2,0,-1
 440 0 l 2,1,2
 406 0 406 0 376 4 c 1,3,-1
 355 -40 l 1,4,-1
 256 -40 l 1,5,-1
 247 -36 l 1,6,-1
 279 34 l 1,7,8
 160 97 160 97 160 280 c 2,9,-1
 160 820 l 2,10,11
 160 1100 160 1100 440 1100 c 2,12,-1
 710 1100 l 2,13,14
 744 1100 744 1100 774 1096 c 1,15,-1
 795 1140 l 1,16,-1
 894 1140 l 1,17,-1
 903 1136 l 1,18,-1
 871 1066 l 1,19,20
 990 1003 990 1003 990 820 c 2,21,-1
 990 280 l 2,22,23
 990 0 990 0 710 0 c 2,0,-1
354 193 m 1,24,-1
 702 940 l 1,25,-1
 430 940 l 2,26,27
 340 940 340 940 340 850 c 2,28,-1
 340 250 l 2,29,30
 340 214 340 214 354 193 c 1,24,-1
796 907 m 1,31,-1
 448 160 l 1,32,-1
 720 160 l 2,33,34
 810 160 810 160 810 250 c 2,35,-1
 810 850 l 2,36,37
 810 886 810 886 796 907 c 1,31,-1
606 1527 m 1,38,-1
 726 1470 l 1,39,-1
 577 1160 l 1,40,-1
 567 1160 l 1,41,-1
 449 1216 l 1,42,-1
 596 1527 l 1,43,-1
 606 1527 l 1,38,-1
EndSplineSet
Validated: 1
EndChar

StartChar: Scommaaccent
Encoding: 536 536 226
Width: 1120
Flags: W
HStem: -427 21G<475.857 537.613> 0 180<291.055 808.945> 754 180<374.558 808.945> 1117 21G<767 819.353> 1340 170<374.558 735.442>
VStem: 60 200<209.853 358> 153 190<967.574 1311.95> 767 190<1202 1314.16> 840 200<213.623 720.377>
DStem2: 400 -371 528 -427 0.427336 0.904093<4.06987 343.991>
LayerCount: 2
Fore
SplineSet
410 0 m 2,0,1
 60 0 60 0 60 358 c 1,2,-1
 250 448 l 1,3,-1
 260 448 l 9,4,-1
 260 320 l 2,5,6
 260 180 260 180 400 180 c 2,7,-1
 700 180 l 2,8,9
 840 180 840 180 840 320 c 2,10,-1
 840 614 l 2,11,12
 840 754 840 754 700 754 c 2,13,-1
 453 754 l 2,14,15
 153 754 153 754 153 1054 c 2,16,-1
 153 1210 l 2,17,18
 153 1510 153 1510 453 1510 c 2,19,-1
 657 1510 l 2,20,21
 957 1510 957 1510 957 1202 c 1,22,-1
 777 1117 l 1,23,-1
 767 1117 l 1,24,-1
 767 1205 l 2,25,26
 767 1340 767 1340 627 1340 c 2,27,-1
 483 1340 l 2,28,29
 343 1340 343 1340 343 1200 c 2,30,-1
 343 1074 l 2,31,32
 343 934 343 934 483 934 c 2,33,-1
 690 934 l 2,34,35
 1040 934 1040 934 1040 584 c 2,36,-1
 1040 350 l 2,37,38
 1040 0 1040 0 690 0 c 2,39,-1
 410 0 l 2,0,1
557 -60 m 1,40,-1
 677 -117 l 1,41,-1
 528 -427 l 1,42,-1
 518 -427 l 1,43,-1
 400 -371 l 1,44,-1
 547 -60 l 1,45,-1
 557 -60 l 1,40,-1
EndSplineSet
Validated: 1
EndChar

StartChar: scommaaccent
Encoding: 537 537 227
Width: 910
Flags: W
HStem: -427 21G<372.857 434.613> 0 160<252.021 637.979> 522 160<311.75 637.979> 950 150<311.75 598.754>
VStem: 60 180<173.95 285> 128 170<692.859 941.562> 606 170<855 938.262> 650 180<170.898 511.102>
DStem2: 297 -371 425 -427 0.427336 0.904093<4.06987 343.991>
LayerCount: 2
Fore
SplineSet
340 0 m 2,0,1
 60 0 60 0 60 285 c 1,2,-1
 230 366 l 1,3,-1
 240 366 l 1,4,-1
 240 250 l 2,5,6
 240 160 240 160 330 160 c 2,7,-1
 560 160 l 2,8,9
 650 160 650 160 650 250 c 2,10,-1
 650 432 l 2,11,12
 650 522 650 522 560 522 c 2,13,-1
 368 522 l 2,14,15
 128 522 128 522 128 762 c 2,16,-1
 128 860 l 2,17,18
 128 1100 128 1100 368 1100 c 2,19,-1
 536 1100 l 2,20,21
 776 1100 776 1100 776 855 c 1,22,-1
 616 779 l 1,23,-1
 606 779 l 1,24,-1
 606 865 l 2,25,26
 606 950 606 950 516 950 c 2,27,-1
 388 950 l 2,28,29
 298 950 298 950 298 860 c 2,30,-1
 298 772 l 2,31,32
 298 682 298 682 388 682 c 2,33,-1
 550 682 l 2,34,35
 830 682 830 682 830 402 c 2,36,-1
 830 280 l 2,37,38
 830 0 830 0 550 0 c 2,39,-1
 340 0 l 2,0,1
454 -60 m 1,40,-1
 574 -117 l 1,41,-1
 425 -427 l 1,42,-1
 415 -427 l 1,43,-1
 297 -371 l 1,44,-1
 444 -60 l 1,45,-1
 454 -60 l 1,40,-1
EndSplineSet
Validated: 1
EndChar

StartChar: uni021A
Encoding: 538 538 228
Width: 1070
Flags: W
HStem: -427 21G<461.857 523.613> -20 21G<435 487.222> 1330 180<90 435 635 980>
VStem: 435 200<70 1330>
DStem2: 386 -371 514 -427 0.427336 0.904093<4.06987 343.991>
LayerCount: 2
Fore
SplineSet
435 -20 m 1,0,-1
 435 1330 l 1,1,-1
 10 1330 l 1,2,-1
 10 1340 l 1,3,-1
 90 1510 l 1,4,-1
 1060 1510 l 1,5,-1
 1060 1500 l 1,6,-1
 980 1330 l 1,7,-1
 635 1330 l 1,8,-1
 635 70 l 1,9,-1
 445 -20 l 1,10,-1
 435 -20 l 1,0,-1
543 -60 m 1,11,-1
 663 -117 l 1,12,-1
 514 -427 l 1,13,-1
 504 -427 l 1,14,-1
 386 -371 l 1,15,-1
 533 -60 l 1,16,-1
 543 -60 l 1,11,-1
EndSplineSet
Validated: 1
EndChar

StartChar: uni021B
Encoding: 539 539 229
Width: 780
Flags: W
HStem: -427 21G<313.857 375.613> -20 21G<300 351.975> 940 160<81 300 480 699> 1510 20G<428.025 480>
VStem: 300 180<61 940 1100 1449>
DStem2: 238 -371 366 -427 0.427336 0.904093<4.06987 343.991>
LayerCount: 2
Fore
SplineSet
300 -20 m 1,0,-1
 300 940 l 1,1,-1
 10 940 l 1,2,-1
 10 950 l 1,3,-1
 81 1100 l 1,4,-1
 300 1100 l 1,5,-1
 300 1449 l 1,6,-1
 470 1530 l 1,7,-1
 480 1530 l 1,8,-1
 480 1100 l 1,9,-1
 770 1100 l 1,10,-1
 770 1090 l 1,11,-1
 699 940 l 1,12,-1
 480 940 l 1,13,-1
 480 61 l 1,14,-1
 310 -20 l 1,15,-1
 300 -20 l 1,0,-1
395 -60 m 1,16,-1
 515 -117 l 1,17,-1
 366 -427 l 1,18,-1
 356 -427 l 1,19,-1
 238 -371 l 1,20,-1
 385 -60 l 1,21,-1
 395 -60 l 1,16,-1
EndSplineSet
Validated: 1
EndChar

StartChar: circumflex
Encoding: 710 710 230
Width: 600
Flags: W
HStem: 1170 354
VStem: 50 500
DStem2: 353 1524 301 1367 0.551466 -0.834197<102.293 333.357>
LayerCount: 2
Fore
SplineSet
343 1524 m 1,0,-1
 353 1524 l 1,1,-1
 550 1226 l 1,2,-1
 432 1170 l 1,3,-1
 422 1170 l 1,4,-1
 301 1367 l 1,5,-1
 178 1170 l 1,6,-1
 168 1170 l 1,7,-1
 50 1226 l 1,8,-1
 223 1467 l 1,9,-1
 343 1524 l 1,0,-1
EndSplineSet
Validated: 1
EndChar

StartChar: caron
Encoding: 711 711 231
Width: 600
Flags: W
HStem: 1170 354
VStem: 50 500
DStem2: 178 1524 50 1468 0.551466 -0.834197<0 231.064>
LayerCount: 2
Fore
SplineSet
168 1524 m 1,0,-1
 178 1524 l 1,1,-1
 299 1327 l 1,2,-1
 422 1524 l 1,3,-1
 432 1524 l 1,4,-1
 550 1468 l 1,5,-1
 377 1227 l 1,6,-1
 257 1170 l 1,7,-1
 247 1170 l 1,8,-1
 50 1468 l 1,9,-1
 168 1524 l 1,0,-1
EndSplineSet
Validated: 1
EndChar

StartChar: uni02C9
Encoding: 713 713 232
Width: 600
Flags: W
HStem: 1280 130<107 493>
VStem: 50 500
LayerCount: 2
Fore
SplineSet
107 1410 m 1,0,-1
 550 1410 l 1,1,-1
 550 1400 l 1,2,-1
 493 1280 l 1,3,-1
 50 1280 l 1,4,-1
 50 1290 l 1,5,-1
 107 1410 l 1,0,-1
EndSplineSet
Validated: 1
EndChar

StartChar: breve
Encoding: 728 728 233
Width: 600
Flags: W
HStem: 1250 140<163.496 437.521>
VStem: 50 500<1310.96 1356>
LayerCount: 2
Fore
SplineSet
114 1485 m 1,0,1
 184 1390 184 1390 300 1390 c 128,-1,2
 416 1390 416 1390 486 1485 c 1,3,-1
 550 1356 l 1,4,-1
 550 1346 l 1,5,6
 468 1250 468 1250 309 1250 c 128,-1,7
 150 1250 150 1250 50 1346 c 1,8,-1
 50 1356 l 1,9,-1
 114 1485 l 1,0,1
EndSplineSet
Validated: 1
EndChar

StartChar: dotaccent
Encoding: 729 729 234
Width: 340
Flags: W
HStem: 1220 245<86.0974 253.903>
VStem: 50 240<1257.13 1427.87>
LayerCount: 2
Fore
SplineSet
170 1465 m 128,-1,1
 220 1465 220 1465 255 1429 c 128,-1,2
 290 1393 290 1393 290 1342.5 c 128,-1,3
 290 1292 290 1292 255 1256 c 128,-1,4
 220 1220 220 1220 170 1220 c 128,-1,5
 120 1220 120 1220 85 1256 c 128,-1,6
 50 1292 50 1292 50 1342.5 c 128,-1,7
 50 1393 50 1393 85 1429 c 128,-1,0
 120 1465 120 1465 170 1465 c 128,-1,1
EndSplineSet
Validated: 1
EndChar

StartChar: ring
Encoding: 730 730 235
Width: 460
Flags: W
HStem: 1160 98<164.776 302.24> 1426 98<165.247 302.469>
VStem: 50 97<1276.75 1408.1> 313 97<1268.01 1415.38>
LayerCount: 2
Fore
SplineSet
231 1426 m 0,0,1
 196 1425 196 1425 172 1401 c 0,2,3
 147 1376 147 1376 147 1342 c 128,-1,4
 147 1308 147 1308 171 1284 c 128,-1,5
 195 1260 195 1260 230 1258 c 256,6,7
 266 1258 266 1258 288 1283 c 0,8,9
 312 1309 312 1309 313 1342 c 0,10,11
 312 1379 312 1379 288 1401 c 0,12,13
 262 1425 262 1425 231 1426 c 0,0,1
232 1524 m 0,14,15
 305 1524 305 1524 357 1471 c 0,16,17
 410 1416 410 1416 410 1343 c 0,18,19
 410 1267 410 1267 357 1214 c 0,20,21
 303 1160 303 1160 230 1160 c 256,22,23
 157 1160 157 1160 103 1214 c 0,24,25
 50 1267 50 1267 50 1343 c 0,26,27
 50 1417 50 1417 103 1471 c 0,28,29
 156 1524 156 1524 232 1524 c 0,14,15
EndSplineSet
Validated: 1
EndChar

StartChar: ogonek
Encoding: 731 731 236
Width: 379
Flags: W
HStem: -430 430 -20 20G<211 234>
VStem: 50 147<-290.173 -101.531>
LayerCount: 2
Fore
SplineSet
211 0 m 1,0,1
 271 0 l 1,2,3
 197 -98 197 -98 197 -184 c 0,4,5
 197 -291 197 -291 329 -349 c 1,6,-1
 158 -430 l 1,7,-1
 149 -430 l 1,8,9
 50 -354 50 -354 50 -236 c 0,10,11
 50 -94 50 -94 211 0 c 1,0,1
EndSplineSet
Validated: 1
EndChar

StartChar: tilde
Encoding: 732 732 237
Width: 600
Flags: W
HStem: 1220 125<342.268 416.951> 1338 125<183.049 257.732>
VStem: 50 128<1268 1337.47> 422 128<1345.53 1415>
LayerCount: 2
Fore
SplineSet
550 1463 m 1,0,1
 550 1220 550 1220 388 1220 c 0,2,3
 317 1220 317 1220 254 1299 c 0,4,5
 224 1337 224 1337 207 1338 c 0,6,7
 179 1338 179 1338 178 1268 c 1,8,-1
 60 1220 l 1,9,-1
 50 1220 l 1,10,11
 50 1463 50 1463 212 1463 c 24,12,13
 283 1463 283 1463 346 1384 c 0,14,15
 376 1346 376 1346 393 1345 c 0,16,17
 421 1345 421 1345 422 1415 c 1,18,-1
 540 1463 l 1,19,-1
 550 1463 l 1,0,1
EndSplineSet
Validated: 1
EndChar

StartChar: hungarumlaut
Encoding: 733 733 238
Width: 556
Flags: W
HStem: 1170 322
VStem: 50 456
DStem2: 50 1217 159 1170 0.42738 0.904072<4.09298 304.179> 265 1217 374 1170 0.42738 0.904072<4.09298 304.179>
LayerCount: 2
Fore
SplineSet
405 1492 m 1,0,-1
 506 1444 l 1,1,-1
 374 1170 l 1,2,-1
 364 1170 l 1,3,-1
 265 1217 l 1,4,-1
 395 1492 l 1,5,-1
 405 1492 l 1,0,-1
190 1492 m 1,6,-1
 291 1444 l 1,7,-1
 159 1170 l 1,8,-1
 149 1170 l 1,9,-1
 50 1217 l 1,10,-1
 180 1492 l 1,11,-1
 190 1492 l 1,6,-1
EndSplineSet
Validated: 1
EndChar

StartChar: uni1E9E
Encoding: 7838 7838 239
Width: 1250
Flags: W
HStem: -20 21G<200 252.222> 0 180<665 938.945> 746 179<841 935.78> 1330 180<400 836.996>
VStem: 200 200<70 1330> 970 200<213.623 711.987>
DStem2: 585 756 841 925 0.424434 0.905459<261.678 603.553>
LayerCount: 2
Fore
SplineSet
820 0 m 2,0,1
 585 0 l 1,2,-1
 585 10 l 1,3,-1
 665 180 l 1,4,-1
 830 180 l 2,5,6
 970 180 970 180 970 320 c 2,7,-1
 970 606 l 2,8,9
 970 746 970 746 830 746 c 2,10,-1
 585 746 l 1,11,-1
 585 756 l 1,12,-1
 840 1300 l 1,13,14
 804 1330 804 1330 740 1330 c 2,15,16
 400 1330 l 1,17,-1
 400 70 l 1,18,-1
 210 -20 l 1,19,-1
 200 -20 l 1,20,-1
 200 1440 l 1,21,-1
 348 1510 l 1,22,-1
 730 1510 l 2,23,24
 979 1510 979 1510 1051 1334 c 1,25,-1
 841 925 l 1,26,27
 1170 925 1170 925 1170 576 c 2,28,-1
 1170 350 l 2,29,30
 1170 0 1170 0 820 0 c 2,0,1
EndSplineSet
Validated: 1
EndChar

StartChar: uni203D
Encoding: 8253 8253 240
Width: 1270
Flags: W
HStem: -20 245<511.097 678.903> 1330 180<381.934 888.945>
VStem: 150 200<1127 1296.38> 475 240<17.1285 187.871> 498 203<454 560.139 738 897.797> 518 180<454 556.408 738 1059> 920 200<905.161 1296.38>
LayerCount: 2
Fore
SplineSet
595 -20 m 128,-1,1
 545 -20 545 -20 510 16 c 128,-1,2
 475 52 475 52 475 102.5 c 128,-1,3
 475 153 475 153 510 189 c 128,-1,4
 545 225 545 225 595 225 c 128,-1,5
 645 225 645 225 680 189 c 128,-1,6
 715 153 715 153 715 102.5 c 128,-1,7
 715 52 715 52 680 16 c 128,-1,0
 645 -20 645 -20 595 -20 c 128,-1,1
530 1510 m 2,8,9
 770 1510 l 2,10,11
 1120 1510 1120 1510 1120 1160 c 2,12,-1
 1120 1070 l 2,13,14
 1120 756 1120 756 791 591 c 0,15,16
 701 546 701 546 701 454 c 1,17,-1
 508 361 l 1,18,-1
 498 361 l 1,19,20
 498 446 498 446 518 516 c 1,21,-1
 518 1059 l 1,22,-1
 688 1140 l 1,23,-1
 698 1140 l 1,24,-1
 698 738 l 1,25,26
 920 855 920 855 920 1072 c 2,27,-1
 920 1190 l 2,28,29
 920 1330 920 1330 780 1330 c 2,30,-1
 490 1330 l 2,31,32
 350 1330 350 1330 350 1190 c 2,33,-1
 350 1127 l 1,34,-1
 160 1036 l 1,35,-1
 150 1036 l 1,36,-1
 150 1160 l 2,37,38
 150 1510 150 1510 530 1510 c 2,8,9
EndSplineSet
Validated: 1
EndChar

StartChar: afii61352
Encoding: 8470 8470 241
Width: 1950
Flags: W
HStem: -20 21G<180 232.222 990 1042.22> 0 120<1398 1748> 179 121<1477.41 1668.59> 649 121<1477.41 1668.59> 1330 180<411.055 958.945>
VStem: 180 200<70 1296.38> 990 200<70 1296.38> 1346 130<301.5 647.5> 1670 130<301.5 647.5>
LayerCount: 2
Fore
SplineSet
1476 624 m 2,0,-1
 1476 325 l 2,1,2
 1476 300 1476 300 1500 300 c 2,3,-1
 1646 300 l 2,4,5
 1670 300 1670 300 1670 325 c 2,6,-1
 1670 624 l 2,7,8
 1670 649 1670 649 1646 649 c 2,9,-1
 1500 649 l 2,10,11
 1476 649 1476 649 1476 624 c 2,0,-1
1506 770 m 2,12,-1
 1640 770 l 2,13,14
 1800 770 1800 770 1800 610 c 2,15,-1
 1800 339 l 2,16,17
 1800 179 1800 179 1640 179 c 2,18,-1
 1506 179 l 2,19,20
 1346 179 1346 179 1346 339 c 2,21,-1
 1346 610 l 2,22,23
 1346 770 1346 770 1506 770 c 2,12,-1
1346 0 m 1,24,-1
 1346 10 l 1,25,-1
 1398 120 l 1,26,-1
 1800 120 l 1,27,-1
 1800 110 l 1,28,-1
 1748 0 l 1,29,-1
 1346 0 l 1,24,-1
190 -20 m 1,30,-1
 180 -20 l 1,31,-1
 180 1160 l 2,32,33
 180 1510 180 1510 530 1510 c 2,34,-1
 840 1510 l 2,35,36
 1190 1510 1190 1510 1190 1160 c 2,37,-1
 1190 70 l 1,38,-1
 1000 -20 l 1,39,-1
 990 -20 l 1,40,-1
 990 1190 l 2,41,42
 990 1330 990 1330 850 1330 c 2,43,-1
 520 1330 l 2,44,45
 380 1330 380 1330 380 1190 c 2,46,-1
 380 70 l 1,47,-1
 190 -20 l 1,30,-1
EndSplineSet
Validated: 1
EndChar

StartChar: uni2117
Encoding: 8471 8471 242
Width: 1401
Flags: W
HStem: 386 48<545.181 850.676> 791 131<629 849.726> 1207 131<629 849.726> 1478 52<544.168 856.773>
VStem: 150 50<794.694 1125.05> 489 140<582 791 922 1207> 853 140<925.415 1203.58> 1200 51<785.868 1126.58>
LayerCount: 2
Fore
SplineSet
803 1207 m 2,0,-1
 629 1207 l 1,1,-1
 629 922 l 1,2,-1
 803 922 l 2,3,4
 853 922 853 922 853 972 c 2,5,-1
 853 1157 l 2,6,7
 853 1207 853 1207 803 1207 c 2,0,-1
578 1338 m 1,8,-1
 799 1338 l 2,9,10
 993 1338 993 1338 993 1142 c 2,11,-1
 993 987 l 2,12,13
 993 791 993 791 799 791 c 2,14,-1
 629 791 l 1,15,-1
 629 582 l 1,16,-1
 499 531 l 1,17,-1
 489 531 l 1,18,-1
 489 1294 l 1,19,-1
 578 1338 l 1,8,-1
701 1530 m 0,20,21
 943 1530 943 1530 1099 1357 c 0,22,23
 1251 1188 1251 1188 1251 953 c 0,24,25
 1251 701 1251 701 1090 549 c 0,26,27
 919 386 919 386 699 386 c 0,28,29
 476 386 476 386 311 549 c 0,30,31
 150 708 150 708 150 953 c 0,32,33
 150 1197 150 1197 308 1362 c 0,34,35
 469 1530 469 1530 701 1530 c 0,20,21
699 1478 m 0,36,37
 499 1478 499 1478 350 1330 c 0,38,39
 200 1181 200 1181 200 953 c 0,40,41
 200 750 200 750 347 587 c 0,42,43
 485 434 485 434 701 434 c 0,44,45
 902 434 902 434 1054 587 c 0,46,47
 1200 734 1200 734 1200 953 c 0,48,49
 1200 1185 1200 1185 1056 1327 c 0,50,51
 903 1478 903 1478 699 1478 c 0,36,37
EndSplineSet
Validated: 1
EndChar

StartChar: integral
Encoding: 8747 8747 243
Width: 908
Flags: W
HStem: -410 180<129 322.945> 1600 180<585.055 779>
VStem: 354 200<-196.377 1566.38>
LayerCount: 2
Fore
SplineSet
50 -410 m 1,0,-1
 50 -400 l 1,1,-1
 129 -230 l 1,2,-1
 214 -230 l 2,3,4
 354 -230 354 -230 354 -90 c 2,5,-1
 354 1430 l 2,6,7
 354 1780 354 1780 704 1780 c 2,8,-1
 858 1780 l 1,9,-1
 858 1770 l 1,10,-1
 779 1600 l 1,11,-1
 694 1600 l 2,12,13
 554 1600 554 1600 554 1460 c 2,14,-1
 554 -60 l 2,15,16
 554 -410 554 -410 204 -410 c 2,17,-1
 50 -410 l 1,0,-1
EndSplineSet
Validated: 1
EndChar

StartChar: Agrave
Encoding: 192 192 244
Width: 1370
Flags: W
HStem: -20 21G<180 232.222 990 1042.22> 665 180<380 990> 1330 180<411.055 958.945>
VStem: 180 200<70 665 845 1296.38> 990 200<70 665 845 1296.38>
DStem2: 655 1937 525 1880 0.427336 -0.904093<0 339.921>
LayerCount: 2
Fore
SplineSet
190 -20 m 1,0,-1
 180 -20 l 1,1,-1
 180 1160 l 2,2,3
 180 1510 180 1510 530 1510 c 2,4,-1
 840 1510 l 2,5,6
 1190 1510 1190 1510 1190 1160 c 2,7,-1
 1190 70 l 1,8,-1
 1000 -20 l 1,9,-1
 990 -20 l 1,10,-1
 990 665 l 1,11,-1
 380 665 l 1,12,-1
 380 70 l 1,13,-1
 190 -20 l 1,0,-1
380 845 m 1,14,-1
 990 845 l 1,15,-1
 990 1190 l 2,16,17
 990 1330 990 1330 850 1330 c 2,18,-1
 520 1330 l 2,19,20
 380 1330 380 1330 380 1190 c 2,21,-1
 380 845 l 1,14,-1
645 1937 m 1,22,-1
 655 1937 l 1,23,-1
 802 1626 l 1,24,-1
 684 1570 l 1,25,-1
 674 1570 l 1,26,-1
 525 1880 l 1,27,-1
 645 1937 l 1,22,-1
EndSplineSet
Validated: 1
EndChar

StartChar: Aacute
Encoding: 193 193 245
Width: 1370
Flags: W
HStem: -20 21G<180 232.222 990 1042.22> 665 180<380 990> 1330 180<411.055 958.945>
VStem: 180 200<70 665 845 1296.38> 990 200<70 665 845 1296.38>
DStem2: 566 1626 694 1570 0.427336 0.904093<4.06987 343.991>
LayerCount: 2
Fore
SplineSet
190 -20 m 1,0,-1
 180 -20 l 1,1,-1
 180 1160 l 2,2,3
 180 1510 180 1510 530 1510 c 2,4,-1
 840 1510 l 2,5,6
 1190 1510 1190 1510 1190 1160 c 2,7,-1
 1190 70 l 1,8,-1
 1000 -20 l 1,9,-1
 990 -20 l 1,10,-1
 990 665 l 1,11,-1
 380 665 l 1,12,-1
 380 70 l 1,13,-1
 190 -20 l 1,0,-1
380 845 m 1,14,-1
 990 845 l 1,15,-1
 990 1190 l 2,16,17
 990 1330 990 1330 850 1330 c 2,18,-1
 520 1330 l 2,19,20
 380 1330 380 1330 380 1190 c 2,21,-1
 380 845 l 1,14,-1
723 1937 m 1,22,-1
 843 1880 l 1,23,-1
 694 1570 l 1,24,-1
 684 1570 l 1,25,-1
 566 1626 l 1,26,-1
 713 1937 l 1,27,-1
 723 1937 l 1,22,-1
EndSplineSet
Validated: 1
EndChar

StartChar: Acircumflex
Encoding: 194 194 246
Width: 1370
Flags: W
HStem: -20 21G<180 232.222 990 1042.22> 665 180<380 990> 1330 180<411.055 958.945>
VStem: 180 200<70 665 845 1296.38> 990 200<70 665 845 1296.38>
DStem2: 734 1934 682 1777 0.551466 -0.834197<102.293 333.357>
LayerCount: 2
Fore
SplineSet
190 -20 m 1,0,-1
 180 -20 l 1,1,-1
 180 1160 l 2,2,3
 180 1510 180 1510 530 1510 c 2,4,-1
 840 1510 l 2,5,6
 1190 1510 1190 1510 1190 1160 c 2,7,-1
 1190 70 l 1,8,-1
 1000 -20 l 1,9,-1
 990 -20 l 1,10,-1
 990 665 l 1,11,-1
 380 665 l 1,12,-1
 380 70 l 1,13,-1
 190 -20 l 1,0,-1
380 845 m 1,14,-1
 990 845 l 1,15,-1
 990 1190 l 2,16,17
 990 1330 990 1330 850 1330 c 2,18,-1
 520 1330 l 2,19,20
 380 1330 380 1330 380 1190 c 2,21,-1
 380 845 l 1,14,-1
724 1934 m 1,22,-1
 734 1934 l 1,23,-1
 931 1636 l 1,24,-1
 813 1580 l 1,25,-1
 803 1580 l 1,26,-1
 682 1777 l 1,27,-1
 559 1580 l 1,28,-1
 549 1580 l 1,29,-1
 431 1636 l 1,30,-1
 604 1877 l 1,31,-1
 724 1934 l 1,22,-1
EndSplineSet
Validated: 1
EndChar

StartChar: Atilde
Encoding: 195 195 247
Width: 1370
Flags: W
HStem: -20 21G<180 232.222 990 1042.22> 665 180<380 990> 1330 180<411.055 958.945> 1630 125<740.268 814.951> 1748 125<581.049 655.732>
VStem: 180 200<70 665 845 1296.38> 448 128<1678 1747.47> 820 128<1755.53 1825> 990 200<70 665 845 1296.38>
LayerCount: 2
Fore
SplineSet
190 -20 m 1,0,-1
 180 -20 l 1,1,-1
 180 1160 l 2,2,3
 180 1510 180 1510 530 1510 c 2,4,-1
 840 1510 l 2,5,6
 1190 1510 1190 1510 1190 1160 c 2,7,-1
 1190 70 l 1,8,-1
 1000 -20 l 1,9,-1
 990 -20 l 1,10,-1
 990 665 l 1,11,-1
 380 665 l 1,12,-1
 380 70 l 1,13,-1
 190 -20 l 1,0,-1
380 845 m 1,14,-1
 990 845 l 1,15,-1
 990 1190 l 2,16,17
 990 1330 990 1330 850 1330 c 2,18,-1
 520 1330 l 2,19,20
 380 1330 380 1330 380 1190 c 2,21,-1
 380 845 l 1,14,-1
948 1873 m 1,22,23
 948 1630 948 1630 786 1630 c 0,24,25
 715 1630 715 1630 652 1709 c 0,26,27
 622 1747 622 1747 605 1748 c 0,28,29
 577 1748 577 1748 576 1678 c 1,30,-1
 458 1630 l 1,31,-1
 448 1630 l 1,32,33
 448 1873 448 1873 610 1873 c 24,34,35
 681 1873 681 1873 744 1794 c 0,36,37
 774 1756 774 1756 791 1755 c 0,38,39
 819 1755 819 1755 820 1825 c 1,40,-1
 938 1873 l 1,41,-1
 948 1873 l 1,22,23
EndSplineSet
Validated: 1
EndChar

